<svg width="162" height="57" viewBox="0 0 162 57" fill="none" xmlns="http://www.w3.org/2000/svg">
<path d="M82.8851 4.25387V22.6135H79.1848V4.25387H72.1133V0.768555H90.0115V4.25387H82.8851Z" fill="white"/>
<path d="M99.4125 11.1693C99.0014 11.1144 98.6177 11.087 98.2339 11.087C95.4656 11.087 94.2048 12.6787 94.2048 15.5054V22.6681H90.6416V7.60167H94.1226V10.0167C94.8352 8.37009 96.4798 7.43701 98.4532 7.43701C98.8918 7.43701 99.2481 7.4919 99.4125 7.51934V11.1693Z" fill="white"/>
<path d="M104.155 0C105.443 0 106.485 1.04285 106.485 2.33269C106.485 3.62253 105.443 4.63794 104.155 4.63794C102.894 4.63794 101.853 3.62253 101.853 2.33269C101.853 1.04285 102.894 0 104.155 0ZM102.401 22.6134V7.60183H105.937V22.6134H102.401Z" fill="white"/>
<path d="M114.132 22.6132H110.568V7.60169H114.022V9.60506C115.009 7.87613 116.79 7.1626 118.462 7.1626C122.135 7.1626 123.889 9.82461 123.889 13.1178V22.6132H120.326V13.749C120.326 11.9103 119.504 10.4284 117.256 10.4284C115.228 10.4284 114.159 11.9926 114.159 13.9686V22.6132H114.132Z" fill="white"/>
<path d="M129.974 0C131.262 0 132.304 1.04285 132.304 2.33269C132.304 3.62253 131.262 4.63794 129.974 4.63794C128.713 4.63794 127.672 3.62253 127.672 2.33269C127.672 1.04285 128.713 0 129.974 0ZM128.22 22.6134V7.60183H131.756V22.6134H128.22Z" fill="white"/>
<path d="M140.911 7.6021H144.008V10.7855H140.911V17.7562C140.911 19.0734 141.486 19.6498 142.829 19.6498C143.323 19.6498 143.898 19.5674 144.063 19.54V22.5039C143.843 22.5862 143.158 22.8332 141.87 22.8332C139.102 22.8332 137.375 21.1591 137.375 18.3599V10.7855H134.579V7.6021H135.347C136.936 7.6021 137.649 6.58669 137.649 5.2694V3.01904H140.883V7.6021H140.911Z" fill="white"/>
<path d="M148.64 28.7059L152.23 20.8571L145.816 7.62939H149.846L154.149 17.1248L158.178 7.62939H161.96L152.422 28.7059H148.64Z" fill="white"/>
<path d="M82.8851 38.1464V56.5061H79.1848V38.1464H72.1133V34.6611H90.0115V38.1464H82.8851Z" fill="white"/>
<path d="M103.058 52.2248C102.263 54.8319 99.8785 56.9725 96.2879 56.9725C92.2313 56.9725 88.6133 54.0086 88.6133 48.9315C88.6133 44.1838 92.1217 41.0278 95.9041 41.0278C100.509 41.0278 103.222 44.0741 103.222 48.8218C103.222 49.3981 103.168 49.8921 103.14 49.9744H92.1765C92.2587 52.2522 94.0677 53.8988 96.2605 53.8988C98.4258 53.8988 99.5221 52.7462 100.016 51.2917L103.058 52.2248ZM99.6318 47.3673C99.577 45.6109 98.3984 44.0466 95.9315 44.0466C93.684 44.0466 92.3958 45.7755 92.2587 47.3673H99.6318Z" fill="white"/>
<path d="M109.034 48.9863C109.034 52.0051 110.98 53.7066 113.228 53.7066C115.557 53.7066 116.654 52.06 116.983 50.9348L120.135 52.0874C119.422 54.4201 117.174 56.9998 113.228 56.9998C108.815 56.9998 105.471 53.5694 105.471 49.0138C105.471 44.4033 108.815 41.0552 113.145 41.0552C117.174 41.0552 119.395 43.58 119.998 45.995L116.791 47.1751C116.462 45.8578 115.448 44.3758 113.145 44.3758C110.98 44.3484 109.034 45.9675 109.034 48.9863Z" fill="white"/>
<path d="M126.849 56.5063H123.286V34.1948H126.849V42.9493C127.863 41.632 129.563 41.0557 131.125 41.0557C134.825 41.0557 136.607 43.7177 136.607 47.0109V56.5063H133.044V47.6421C133.044 45.8034 132.222 44.3214 129.974 44.3214C128.001 44.3214 126.932 45.8034 126.877 47.7244V56.5063H126.849Z" fill="white"/>
<path d="M16.1988 17.2894V14.4078L15.0476 13.7492L7.48271 9.35821L16.1988 4.33606V1.4545L15.2943 0.933077L13.9239 0.137217L13.7046 0L13.4853 0.137217L12.1971 0.87819L0 7.93115V40.6163L1.28823 41.3572L2.11051 41.8512L2.49424 42.0708L2.71351 41.9336L4.52252 40.8907L4.98847 40.6163V40.3693V13.6943L12.3067 17.9206L13.4853 18.6066L13.7046 18.7439L15.5136 17.701L16.1988 17.2894Z" fill="white"/>
<path d="M55.4491 7.29995L54.5994 6.77853L54.2979 6.61387L53.5853 6.20222L44.4854 0.933077L43.0875 0.137217L42.8683 0L42.649 0.137217L41.2511 0.933077L40.374 1.4545V4.33606L49.0901 9.35821L41.58 13.7217L40.374 14.4078V17.2894L42.4297 18.4969L42.8409 18.7439H42.8683L43.252 18.5243L44.458 17.8108L51.5844 13.6943V40.6163L52.7082 41.2749L53.8593 41.9336L54.0786 42.0708L54.1608 42.0159L55.5039 41.2475L56.5729 40.6163V7.93115L55.4491 7.29995Z" fill="white"/>
<path d="M17.0763 44.7324L17.0214 44.7599L15.8154 45.446L14.582 46.1595V49.041L24.093 54.5572L27.7933 56.6978L28.2592 56.9722H28.2866L28.5059 56.835L28.6704 56.7526L33.2751 54.0906L25.7924 49.782L17.0763 44.7324Z" fill="white"/>
<path d="M40.8396 45.5011L39.8529 44.9248L39.4966 44.7327L30.7805 49.7823V22.8328L30.2323 22.5309L28.5055 21.5155L28.2862 21.4058L28.067 21.5155L25.9839 22.723L25.792 22.8328V49.7823L28.2862 51.2093L33.2747 54.0909L34.2888 53.5146L41.9908 49.0413V46.1597L40.8396 45.5011Z" fill="white"/>
</svg>
