<svg width="295" height="79" viewBox="0 0 295 79" fill="none" xmlns="http://www.w3.org/2000/svg">
<g clip-path="url(#clip0_217_491)">
<path d="M12.861 9.37288H67.5204V0H12.861C5.6267 0 0 5.62373 0 12.8542V79.2678L20.0954 67.7525H67.2525V58.3797H17.6839L9.37784 63.2V12.8542C9.37784 10.9797 10.9855 9.37288 12.861 9.37288Z" fill="#4AA5FF"/>
<path d="M118.161 41.7754V66.9483H108.783V61.8601C106.372 65.6093 101.817 67.7516 95.3865 67.7516C85.7407 67.7516 79.5781 62.3957 79.5781 54.8974C79.5781 47.6669 84.401 42.0432 97.262 42.0432H108.248V41.5076C108.248 35.6161 104.764 32.1347 97.53 32.1347C92.7071 32.1347 87.8842 33.7415 84.669 36.4194L80.6499 29.1889C85.2048 25.7076 91.9033 23.833 98.8697 23.833C110.927 23.833 118.161 29.4567 118.161 41.7754ZM108.248 53.5584V48.4703H97.7979C91.0995 48.4703 89.2239 51.1483 89.2239 54.094C89.2239 57.5754 92.1712 59.9855 97.262 59.9855C102.353 60.2533 106.372 58.111 108.248 53.5584Z" fill="white"/>
<path d="M155.673 23.833V33.4737C154.869 33.2059 154.065 33.2059 153.261 33.2059C145.759 33.2059 140.936 37.7584 140.936 46.3279V66.9483H131.022V24.1008H140.668V30.2601C143.348 25.9754 148.706 23.833 155.673 23.833Z" fill="white"/>
<path d="M188.897 23.833V33.4737C188.094 33.2059 187.29 33.2059 186.486 33.2059C178.984 33.2059 174.161 37.7584 174.161 46.3279V66.9483H164.247V24.1008H173.893V30.2601C176.572 25.9754 181.931 23.833 188.897 23.833Z" fill="white"/>
<path d="M196.131 11.247C196.131 7.76564 198.81 5.35547 202.561 5.35547C206.313 5.35547 208.992 7.76564 208.992 11.247C208.992 14.7283 206.313 17.4063 202.561 17.4063C198.81 17.1385 196.131 14.4606 196.131 11.247ZM197.471 24.1012H207.384V66.9487H197.471V24.1012Z" fill="white"/>
<path d="M260.436 48.7383H226.944C228.016 54.8976 233.375 58.9146 240.877 58.9146C245.7 58.9146 249.451 57.3078 252.398 54.362L257.757 60.5214C254.006 65.0739 247.843 67.4841 240.609 67.4841C226.408 67.4841 217.03 58.379 217.03 45.5248C217.03 32.6705 226.408 23.5654 239.001 23.5654C251.594 23.5654 260.704 32.4027 260.704 45.5248C260.704 46.5959 260.704 47.9349 260.436 48.7383ZM226.944 42.0434H251.326C250.523 35.8841 245.7 31.5993 239.269 31.5993C232.571 31.8671 228.016 35.8841 226.944 42.0434Z" fill="white"/>
<path d="M295.001 23.833V33.4737C294.197 33.2059 293.393 33.2059 292.589 33.2059C285.087 33.2059 280.264 37.7584 280.264 46.3279V66.9483H270.351V24.1008H279.996V30.2601C282.676 25.9754 288.035 23.833 295.001 23.833Z" fill="white"/>
</g>
<defs>
<clipPath id="clip0_217_491">
<rect width="295" height="79" fill="white"/>
</clipPath>
</defs>
</svg>
