<svg width="527" height="657" viewBox="0 0 527 657" fill="none" xmlns="http://www.w3.org/2000/svg">
<path d="M364.15 159.75C359.627 153 355.103 148.5 350.579 141.75L287.249 60.75C260.107 22.5 212.609 0 165.112 0H76.9013H0V69.75V587.25V657H76.9013H289.511C337.009 657 375.459 618.75 375.459 571.5V441L527 351L364.15 159.75ZM307.605 400.5V569.25C307.605 578.25 300.82 587.25 289.511 587.25H76.9013V69.75H165.112C192.253 69.75 217.133 83.25 232.966 103.5L296.296 184.5C300.82 191.25 307.605 198 312.129 204.75L422.957 333L307.605 400.5Z" fill="url(#paint0_linear_217_254)"/>
<defs>
<linearGradient id="paint0_linear_217_254" x1="263.5" y1="0" x2="263.5" y2="657" gradientUnits="userSpaceOnUse">
<stop stop-color="#3FFF7B"/>
<stop offset="1"/>
</linearGradient>
</defs>
</svg>
