<svg width="137" height="76" viewBox="0 0 137 76" fill="none" xmlns="http://www.w3.org/2000/svg">
<g clip-path="url(#clip0_217_260)">
<path d="M8.88931 0H0V76H8.88931V0Z" fill="#3FFF7B"/>
<path d="M33.7271 76H0V67.9038H33.7271C34.7729 67.9038 35.8187 67.1203 35.8187 65.8144V46.2268L49.1527 38.3918L36.3416 23.5052C35.8187 22.7216 35.0343 21.9381 34.5114 21.1546L27.1908 11.7526C25.3607 9.40206 22.4847 7.83505 19.3473 7.83505H0V0H19.0859C24.5763 0 30.0668 2.61168 33.4656 7.05155L40.7863 16.4536C41.3092 17.2371 41.8321 17.7594 42.355 18.543L61.1794 40.4811L43.6622 50.9278V66.0756C43.6622 71.5601 39.2176 76 33.7271 76Z" fill="#3FFF7B"/>
<path d="M72.1602 21.1549C72.1602 17.7597 74.7747 15.4092 78.435 15.4092C82.0953 15.4092 84.7098 17.7597 84.7098 21.1549C84.7098 24.5501 82.0953 27.1618 78.435 27.1618C74.7747 27.1618 72.1602 24.5501 72.1602 21.1549ZM73.4674 33.9521H83.1411V75.7391H73.4674V33.9521Z" fill="white"/>
<path d="M136.999 17.7598V75.7391H127.587V70.2546C124.188 74.1721 119.482 76.2615 113.73 76.2615C101.703 76.2615 92.5527 67.9041 92.5527 54.8457C92.5527 41.7873 101.442 33.4299 113.73 33.4299C119.221 33.4299 123.927 35.258 127.064 39.1756V17.7598H136.999ZM127.326 54.8457C127.326 47.0106 121.835 41.7873 114.776 41.7873C107.717 41.7873 102.226 46.7495 102.226 54.8457C102.226 62.9419 107.717 67.9041 114.776 67.9041C122.097 67.9041 127.326 62.6807 127.326 54.8457Z" fill="white"/>
</g>
<defs>
<clipPath id="clip0_217_260">
<rect width="137" height="76" fill="white"/>
</clipPath>
</defs>
</svg>
