<svg width="209" height="77" viewBox="0 0 209 77" fill="none" xmlns="http://www.w3.org/2000/svg">
<path d="M106.099 16.844C109.831 16.844 112.497 14.1704 112.497 10.6947C112.497 7.48633 109.831 5.08008 106.099 5.08008C102.367 5.08008 99.7012 7.75369 99.7012 10.962C99.7012 14.1704 102.367 16.844 106.099 16.844ZM101.034 66.3058H110.898V23.7954H101.034V66.3058ZM154.35 23.7954L140.755 55.344L127.426 23.7954H117.029L135.157 66.3058H145.553L163.681 23.7954H154.35ZM209 45.1842C209 31.8162 199.936 23.2606 187.407 23.2606C174.877 23.2606 165.547 32.3509 165.547 45.1842C165.547 58.0176 174.877 67.1079 189.006 67.1079C196.204 67.1079 202.335 64.7016 206.067 60.1565L200.736 54.0072C197.803 57.2155 194.071 58.5523 189.273 58.5523C181.808 58.5523 176.743 54.5419 175.41 48.3926H208.733C208.733 47.3231 209 45.9863 209 45.1842ZM187.407 31.2815C193.804 31.2815 198.603 35.5592 199.403 41.7086H175.41C176.21 35.2919 181.009 31.2815 187.407 31.2815Z" fill="white"/>
<path d="M0 0V10.1597L24.5255 24.3299V52.6701L0 66.8403V77L33.0561 57.75V19.25L0 0Z" fill="#FF8A00"/>
<path d="M80.2407 10.1597V0L46.918 19.25V57.75L79.9741 77V66.8403L55.4486 52.6701V24.3299L80.2407 10.1597Z" fill="#FF8A00"/>
</svg>
