<svg width="259" height="69" viewBox="0 0 259 69" fill="none" xmlns="http://www.w3.org/2000/svg">
<path d="M120.83 42.6089V68.4496H111.196V63.2265C108.719 67.0751 104.04 69.2743 97.4344 69.2743C87.5258 69.2743 81.1953 63.7763 81.1953 56.079C81.1953 48.6567 86.1496 42.8838 99.3611 42.8838H110.646V42.334C110.646 36.2862 107.068 32.7125 99.6363 32.7125C94.682 32.7125 89.7277 34.3619 86.4249 37.1109L82.2963 29.6886C86.9753 26.1149 93.8563 24.1906 101.013 24.1906C113.398 23.9157 120.83 29.9635 120.83 42.6089ZM110.371 54.7045V49.4814H99.6363C92.7554 49.4814 90.8287 52.2304 90.8287 55.2543C90.8287 58.8281 93.8563 61.3022 99.0859 61.3022C104.315 61.5771 108.719 59.103 110.371 54.7045Z" fill="white"/>
<path d="M133.766 7.42188H143.949V68.4498H133.766V7.42188Z" fill="white"/>
<path d="M157.712 7.42188H167.896V68.4498H157.712V7.42188Z" fill="white"/>
<path d="M222.669 49.7567H187.989C189.09 56.0794 194.594 60.2029 202.301 60.2029C207.255 60.2029 211.109 58.5535 214.136 55.5296L219.641 61.8523C215.788 66.5256 209.457 68.9997 202.026 68.9997C187.438 68.9997 177.805 59.6531 177.805 46.4578C177.805 33.2626 187.438 23.916 200.374 23.916C213.311 23.916 222.669 32.9877 222.669 46.4578C222.669 47.5574 222.669 48.6571 222.669 49.7567ZM187.989 42.8841H213.035C212.21 36.5614 207.255 32.163 200.65 32.163C193.769 32.163 189.09 36.5614 187.989 42.8841Z" fill="white"/>
<path d="M259 65.9752C256.523 67.8995 252.945 68.9991 249.091 68.9991C239.458 68.9991 233.953 63.776 233.953 54.1545V32.9872H226.797V24.7402H233.953V14.8438H244.137V24.7402H255.972V32.9872H244.137V53.8796C244.137 58.278 246.339 60.4772 250.192 60.4772C252.394 60.4772 254.321 59.9274 255.972 58.5529L259 65.9752Z" fill="white"/>
<path d="M79.2689 9.34661L70.4612 4.12351L44.864 50.3068V0H44.3135H34.9554H34.4049V50.3068L8.80765 4.12351L0 9.34661L34.4049 69H34.9554H44.3135H44.864L79.2689 9.34661Z" fill="#9000F4"/>
</svg>
