<svg width="49" height="62" viewBox="0 0 49 62" fill="none" xmlns="http://www.w3.org/2000/svg">
<path d="M33.7137 14.8832C33.2949 14.2543 32.8761 13.8351 32.4573 13.2062L26.594 5.65979C24.0812 2.09622 19.6838 0 15.2863 0H7.11966H0V6.49828V54.7113V61.2096H7.11966H26.8034C31.2009 61.2096 34.7607 57.646 34.7607 53.244V41.0859L48.7906 32.701L33.7137 14.8832ZM28.4786 37.3127V53.0344C28.4786 53.8728 27.8504 54.7113 26.8034 54.7113H7.11966V6.49828H15.2863C17.7991 6.49828 20.1026 7.75601 21.5684 9.64261L27.4316 17.189C27.8504 17.8179 28.4786 18.4467 28.8974 19.0756L39.1581 31.0241L28.4786 37.3127Z" fill="white"/>
</svg>
