<svg width="87" height="88" viewBox="0 0 87 88" fill="none" xmlns="http://www.w3.org/2000/svg">
<path d="M43.5 9.62963C41.4215 9.62963 39.7884 11.2593 39.7884 13.3333C39.7884 15.4074 41.4215 17.037 43.5 17.037C45.5785 17.037 47.2116 15.4074 47.2116 13.3333C47.2116 11.2593 45.5785 9.62963 43.5 9.62963Z" fill="white"/>
<path d="M33.5529 0C32.2167 0 31.029 1.18519 31.029 2.51852C31.029 3.85185 32.2167 5.03704 33.5529 5.03704C34.889 5.03704 36.0767 3.85185 36.0767 2.51852C36.0767 1.18519 34.889 0 33.5529 0Z" fill="white"/>
<path d="M29.099 59.7037L35.3344 51.2593V22.2222H19.3003V29.4815H26.872V51.2593L0 88H35.3344V80.5926H13.8072L29.099 59.7037Z" fill="white"/>
<path d="M70.372 76.5926H51.814V69.1852H64.8789L70.372 76.5926Z" fill="white"/>
<path d="M87 88H78.686L70.372 76.5926L64.8789 69.1852L61.9096 65.1852L57.901 59.7037L51.814 51.2593V22.2222H67.6997V29.4815H60.128V51.2593L87 88Z" fill="white"/>
</svg>
