<svg width="88" height="88" viewBox="0 0 88 88" fill="none" xmlns="http://www.w3.org/2000/svg">
<path d="M44 88C19.7457 88 0 68.2815 0 44C0 19.7185 19.7457 0 44 0C68.2543 0 88 19.7457 88 44C88 68.2543 68.2815 88 44 88ZM44 2.44444C21.0765 2.44444 2.44444 21.0765 2.44444 44C2.44444 66.9235 21.0765 85.5555 44 85.5555C66.9235 85.5555 85.5555 66.9235 85.5555 44C85.5555 21.0765 66.9235 2.44444 44 2.44444Z" fill="white"/>
<path d="M62.0619 34.2765L53.099 39.4642L44.0002 44.7333L34.9286 39.4913L25.9385 34.2765L35.0372 29.0345L44.0274 34.2222L52.9903 29.0345L62.0619 34.2765Z" fill="white"/>
<path d="M62.0619 48.5358L53.099 53.7235L44.0002 58.9654L34.9286 53.7235L25.9385 48.5358L35.0372 43.2938L44.0274 48.4815L52.9903 43.2938L62.0619 48.5358Z" fill="white"/>
</svg>
