<svg width="43" height="72" viewBox="0 0 43 72" fill="none" xmlns="http://www.w3.org/2000/svg">
<path d="M40.3221 56.0001H27.3914V69.2549C27.3914 70.7451 28.6156 72 30.0694 72H40.3221C41.7758 72 43 70.7451 43 69.2549V58.7452C42.9235 57.255 41.7758 56.0001 40.3221 56.0001Z" fill="white"/>
<path d="M42.9236 30.6666C42.8471 29.1764 41.6994 27.9999 40.2457 27.9999H15.6086V2.74509C15.6086 1.2549 14.3844 0 12.9307 0H2.67795C1.2242 0 0 1.2549 0 2.74509V69.2546C0 70.7448 1.2242 71.9997 2.67795 71.9997H12.9307C14.3844 71.9997 15.6086 70.7448 15.6086 69.2546V43.9998H40.2457C41.3169 43.9998 42.235 43.3724 42.6176 42.4312C42.6176 42.3528 42.6941 42.3528 42.6941 42.2743C42.8471 41.9606 42.9236 41.5685 42.9236 41.1763V30.6666C43.0002 30.6666 43.0002 30.6666 42.9236 30.6666Z" fill="white"/>
<path d="M42.9235 13.333C42.9235 13.2546 42.9235 13.2546 42.9235 13.1761V2.74479C42.9235 2.58793 42.9235 2.43106 42.9235 2.35263C42.9235 2.19577 42.847 2.11734 42.847 1.96048C42.847 1.88205 42.7705 1.80362 42.7705 1.72519C42.6939 1.56833 42.6174 1.4899 42.6174 1.33303C42.5409 1.2546 42.4644 1.09774 42.3879 1.01931C42.3114 0.940877 42.2349 0.862448 42.2349 0.862448C41.7758 0.391861 41.0872 0.0781373 40.3221 0.0781373H30.0694C28.6156 0.0781373 27.3914 1.33303 27.3914 2.82322V16.0781H40.3221C41.6993 15.9996 42.9235 14.8232 42.9235 13.333Z" fill="white"/>
</svg>
