<svg width="95" height="64" viewBox="0 0 95 64" fill="none" xmlns="http://www.w3.org/2000/svg">
<path d="M95.0003 50.6694C91.5243 50.7366 88.2508 49.9307 85.3147 48.2518C83.5936 47.278 82.3112 47.2444 80.5563 48.2518C77.9914 49.7292 75.0216 49.9979 72.0518 49.9307C70.4319 49.8971 68.7783 49.9643 67.1584 49.8971C66.0447 49.8636 65.6398 50.3001 65.741 51.3746C66.0785 55.9748 67.0572 60.2392 71.1069 63.1605C71.1744 63.2277 71.1744 63.362 71.4106 63.9664C68.8795 63.4291 66.5847 63.0933 64.3911 62.4554C62.8049 61.9853 61.32 61.0451 59.7339 60.5078C59.0927 60.2728 58.1478 60.2056 57.6078 60.5078C54.7055 62.086 51.6682 62.7576 48.3946 62.7576C38.0341 62.724 27.7073 62.8247 17.3467 62.7911C7.55983 62.7576 0.439049 56.0084 0.135319 46.3043C-0.0334199 40.596 -0.0334199 34.8877 0.169067 29.1794C0.439049 21.2549 5.06249 15.5802 12.7232 13.4312C13.9044 13.0954 15.1531 13.0283 16.4017 12.9947C18.1904 12.9276 20.0128 12.9611 21.8014 12.9611C24.7375 12.9611 24.7037 12.9276 25.9186 10.2749C28.8884 3.72714 34.1193 0.235007 41.2739 0.100694C51.9044 -0.0671967 62.535 -0.0336185 73.1655 0.0335378C82.7836 0.100694 90.0057 7.38716 90.0394 16.9234C90.0732 23.8069 89.9719 30.6904 90.0057 37.5739C90.0057 39.4543 90.2081 41.3683 90.6131 43.2151C91.1868 46.1364 92.6042 48.6547 95.0003 50.6694ZM61.4213 56.4449C61.4888 56.277 61.5225 56.1091 61.59 55.9076C61.4888 54.8667 61.3875 53.8258 61.32 52.7848C61.1513 49.7292 61.59 49.9643 58.2827 49.9643C52.7144 49.9643 47.146 49.9643 41.5776 49.9643C31.622 49.9643 24.5012 42.8121 24.5012 32.9066C24.5012 28.2728 24.5012 23.639 24.5687 18.9716C24.6025 17.5949 24.0962 17.0577 22.7126 17.0913C20.789 17.1584 18.8991 17.0577 16.9755 17.1248C9.34846 17.427 4.45503 22.4973 4.45503 30.0524C4.45503 35.1899 4.48878 40.3273 4.48878 45.4984C4.52253 53.1878 9.65219 58.3924 17.3804 58.3924C27.8422 58.426 38.3041 58.4596 48.7321 58.2917C50.892 58.2581 53.1868 57.5529 55.1105 56.5456C57.3041 55.4711 59.0927 53.6579 61.4213 56.4449ZM85.3822 43.0472C85.3822 40.2266 85.3822 37.4732 85.3822 34.6862C85.3822 28.5414 85.4835 22.3966 85.3822 16.2182C85.281 9.9391 80.1513 4.7009 73.908 4.63375C62.7712 4.53301 51.6344 4.46586 40.5314 4.63375C35.773 4.7009 32.2632 7.21927 30.1033 11.4837C29.9346 11.8531 29.9009 12.256 29.7659 12.8604C30.6433 12.8604 31.3183 12.8604 31.9932 12.8604C37.3254 12.8604 42.6575 12.8268 47.9897 12.8604C49.6096 12.8604 51.2632 12.9947 52.8494 13.3305C60.3076 15.0094 65.5048 21.3893 65.6735 29.0115C65.7747 33.8132 65.8085 38.6149 65.7073 43.4501C65.6735 45.0954 66.281 45.6327 67.8334 45.532C69.5545 45.4312 71.3094 45.532 73.0643 45.4984C75.5279 45.4648 77.9577 45.0283 79.9151 43.4837C81.7374 42.0734 83.3911 41.3011 85.3822 43.0472C85.3485 43.0472 85.4497 43.0136 85.3822 43.0472ZM40.2952 17.2256V17.2591C37.0891 17.2591 33.8831 17.2927 30.6771 17.2591C29.4284 17.2591 28.8209 17.5949 28.8209 18.9716C28.8884 23.8405 28.7872 28.7093 28.9559 33.5781C29.1922 40.2602 34.0856 45.2298 40.7676 45.4648C47.0447 45.6663 53.3556 45.4984 59.6664 45.532C60.8476 45.532 61.2188 45.0283 61.2188 43.9202C61.1851 39.0514 61.32 34.1825 61.1851 29.3137C60.9826 22.2623 56.1566 17.5278 49.0696 17.2591C46.1335 17.1248 43.2312 17.2256 40.2952 17.2256Z" fill="white"/>
</svg>
