<svg width="75" height="52" viewBox="0 0 75 52" fill="none" xmlns="http://www.w3.org/2000/svg">
<path d="M38.0528 0.859619C35.769 0.859619 33.9746 2.64622 33.9746 4.92008V47.3113C33.9746 49.5852 35.769 51.3718 38.0528 51.3718C40.3366 51.3718 42.131 49.5852 42.131 47.3113V4.92008C41.9679 2.64622 40.1735 0.859619 38.0528 0.859619Z" fill="white"/>
<path d="M55.3438 26.0344L73.7773 7.68111C75.4085 6.05693 75.4085 3.62065 73.7773 1.99646C72.146 0.372274 69.6991 0.372274 68.0678 1.99646L46.8612 23.1109C45.2299 24.7351 45.2299 27.1713 46.8612 28.7955L68.0678 49.91C68.8834 50.722 69.8622 51.0469 70.841 51.0469C71.8197 51.0469 72.9616 50.722 73.6141 49.91C75.2454 48.2858 75.2454 45.8495 73.6141 44.2253L55.3438 26.0344Z" fill="white"/>
<path d="M4.28429 0.859619C2.0005 0.859619 0.206097 2.64622 0.206097 4.92008C0.206097 7.19394 2.0005 8.98055 4.28429 8.98055C13.7457 8.81813 21.4127 16.6142 21.4127 26.0345C21.4127 35.4548 13.7457 43.2509 4.12117 43.2509C1.83738 43.2509 0.0429688 45.0375 0.0429688 47.3113C0.206097 49.4228 2.0005 51.2094 4.28429 51.2094C18.1502 51.2094 29.5691 39.8401 29.5691 26.0345C29.5691 12.0665 18.1502 0.859619 4.28429 0.859619Z" fill="white"/>
</svg>
