<svg width="89" height="89" viewBox="0 0 89 89" fill="none" xmlns="http://www.w3.org/2000/svg">
<path d="M55.0084 55.07C48.8964 48.9579 39.0559 48.9579 33.005 55.07C29.9489 58.1261 28.4209 62.0989 28.4209 66.0718C28.4209 70.0446 29.9489 74.0175 33.005 77.0735L44.0067 88.0752L55.0084 77.0735C58.0645 74.0175 59.5925 70.0446 59.5925 66.0718C59.5925 62.0989 58.0645 58.1261 55.0084 55.07ZM48.2852 70.228L48.224 70.2891L48.1629 70.3502L44.0678 74.4453L39.8505 70.228C37.5279 67.9054 37.5279 64.1159 39.8505 61.7933C41.0118 60.632 42.5398 60.0208 44.0678 60.0208C45.5958 60.0208 47.1239 60.5709 48.2852 61.7933C50.4855 64.177 50.5466 67.9054 48.2852 70.228Z" fill="white"/>
<path d="M77.0119 33.0666C73.9559 30.0106 69.983 28.4825 66.0102 28.4825C62.0373 28.4825 58.0645 30.0106 55.0084 33.0666C48.8964 39.1787 48.9575 49.0191 55.0084 55.0701C58.0645 58.1261 62.0373 59.6541 66.0102 59.6541C69.983 59.6541 73.9559 58.1261 77.0119 55.0701L88.0137 44.0683L77.0119 33.0666ZM70.2275 48.2857C67.9049 50.6083 64.1154 50.6083 61.7928 48.2857C60.6315 47.1244 60.0203 45.5964 60.0203 44.0683C60.0203 42.5403 60.5704 41.0123 61.7928 39.851C64.1154 37.5284 67.7827 37.5284 70.1053 39.7899L70.1664 39.851L70.2275 39.9121L74.3226 44.0072L70.2275 48.2857Z" fill="white"/>
<path d="M33.0052 33.0666C29.9492 30.0106 25.9763 28.4825 22.0035 28.4825C18.0306 28.4825 14.0578 30.0106 11.0017 33.0666L0 44.0683L11.0017 55.0701C14.0578 58.1261 18.0306 59.6541 22.0035 59.6541C25.9763 59.6541 29.9492 58.1261 33.0052 55.0701C39.0562 49.0191 39.0562 39.1176 33.0052 33.0666ZM27.9322 44.0683C27.9322 45.5964 27.3821 47.1244 26.1597 48.2857C23.8371 50.6083 20.0476 50.6083 17.725 48.2857L13.5077 44.0683L17.6028 39.9732L17.6639 39.9121L17.725 39.851C20.0476 37.5895 23.776 37.6507 26.0375 39.9121C27.321 41.0123 27.9322 42.5403 27.9322 44.0683Z" fill="white"/>
<path d="M55.0084 11.0017L44.0067 0L33.005 11.0017C29.9489 14.0578 28.4209 18.0306 28.4209 22.0035C28.4209 25.9763 29.9489 29.9492 33.005 33.0052C39.117 39.1173 48.9575 39.1173 55.0084 33.0052C58.0645 29.9492 59.5925 25.9763 59.5925 22.0035C59.5925 18.0306 58.0645 14.0578 55.0084 11.0017ZM48.224 26.2208C47.0627 27.3821 45.5347 27.9933 44.0067 27.9933C42.4787 27.9933 40.9507 27.4432 39.7894 26.2208C37.4668 23.8982 37.4668 20.1087 39.7894 17.7862L44.0067 13.5688L48.1018 17.6639L48.1629 17.725L48.224 17.7862C50.5466 20.231 50.4855 23.9593 48.224 26.2208Z" fill="white"/>
<path d="M16.0136 77.9903C14.3634 77.9903 12.8965 77.318 11.7963 76.2178C10.6961 75.1176 10.0238 73.6508 10.0849 72.0005C10.0849 68.7 12.7742 66.0718 16.0136 66.0718H21.9423V72.0005C21.9423 75.3621 19.3141 77.9903 16.0136 77.9903Z" fill="white"/>
<path d="M21.9424 22.0646H16.0137C12.7132 22.0646 10.085 19.3753 10.085 16.1359C10.085 12.8353 12.7743 10.2072 16.0137 10.2072C19.3142 10.2072 21.9424 12.8965 21.9424 16.1359V22.0646Z" fill="white"/>
<path d="M76.1568 76.2789C74.262 78.1737 71.3283 78.6015 68.9445 77.1958C67.0498 76.0956 66.0107 74.1397 66.0107 72.1227C66.0107 72.0616 66.0107 71.9394 66.0107 71.8783V66.0718H71.8783C71.9395 66.0718 72.0617 66.0718 72.1228 66.0718C73.1008 66.0718 74.0787 66.3774 74.9344 66.8663C77.7459 68.5166 78.7239 72.1839 77.0736 74.9954C76.8291 75.4844 76.5235 75.9122 76.1568 76.2789Z" fill="white"/>
<path d="M72.1223 22.0037C72.0611 22.0037 72.0611 22.0037 72 22.0037C71.9389 22.0037 71.9389 22.0037 71.8778 22.0037H66.0713V16.075C66.0713 12.7744 68.7606 10.1462 72 10.1462C73.6503 10.1462 75.1172 10.8186 76.2173 11.8576C77.3175 12.9578 77.9287 14.4247 77.9287 16.075C77.9287 19.3144 75.3005 21.9425 72.1223 22.0037Z" fill="white"/>
</svg>
