<svg width="48" height="58" viewBox="0 0 48 58" fill="none" xmlns="http://www.w3.org/2000/svg">
<path d="M2.98982 21.5735C-1.82411 29.9386 1.23392 42.6245 6.5608 50.3189C9.22424 54.1661 11.9074 57.6187 15.5968 57.6187C15.6757 57.6187 15.7349 57.6187 15.8138 57.6187C17.55 57.5595 18.7929 57.0071 20.0161 56.4942C21.3774 55.922 22.7782 55.3104 24.9879 55.3104C27.0792 55.3104 28.4208 55.8825 29.7229 56.4547C31.0053 57.0071 32.3074 57.5793 34.2606 57.5398C38.4235 57.4609 40.9685 53.7321 43.2177 50.457C45.5654 47.0241 46.7492 43.6899 47.1438 42.4272L47.1635 42.368C47.2424 42.151 47.124 41.8945 46.907 41.7959C46.907 41.7959 46.8873 41.7762 46.8676 41.7762C46.1376 41.4802 39.7256 38.6392 39.6467 30.8659C39.5875 24.5526 44.4606 21.2183 45.4471 20.6265L45.4865 20.6067C45.5852 20.5475 45.6641 20.4292 45.6838 20.3108C45.7035 20.1924 45.6838 20.0543 45.6049 19.9557C42.2312 15.0234 37.0819 14.2934 35.0103 14.1947C34.7144 14.1553 34.3987 14.1553 34.083 14.1553C31.6366 14.1553 29.3086 15.0826 27.4343 15.8125C26.1322 16.3255 25.0273 16.7595 24.2382 16.7595C23.3701 16.7595 22.2455 16.3058 20.9434 15.7928C19.2072 15.1023 17.2146 14.3131 15.1233 14.3131C15.0641 14.3131 15.0246 14.3131 14.9852 14.3131C10.1318 14.392 5.53488 17.1738 2.98982 21.5735Z" fill="white"/>
<path d="M35.0102 0.621094C32.0706 0.739469 28.539 2.55455 26.428 5.0207C24.6326 7.09227 22.8767 10.5646 23.3502 14.0567C23.37 14.2737 23.5673 14.4513 23.7843 14.471C23.9816 14.4907 24.1789 14.4907 24.3959 14.4907C27.2764 14.4907 30.3738 12.8927 32.5046 10.3279C34.734 7.62496 35.8586 4.13289 35.5232 1.0354C35.4837 0.798652 35.2667 0.621094 35.0102 0.621094Z" fill="white"/>
</svg>
