<svg width="176" height="59" viewBox="0 0 176 59" fill="none" xmlns="http://www.w3.org/2000/svg">
<path d="M4.90479 1.27686H10.4882C11.9481 1.27686 13.2502 1.5728 14.3945 2.18441C15.5388 2.79601 16.4069 3.62464 17.0383 4.69002C17.6696 5.75539 17.9853 6.9786 17.9853 8.32018C17.9853 9.6815 17.6696 10.885 17.0383 11.9504C16.4069 13.0157 15.5191 13.8641 14.3945 14.456C13.2502 15.0676 11.9481 15.3635 10.4882 15.3635H4.90479V1.27686ZM10.4092 14.4757C11.7114 14.4757 12.8557 14.2192 13.8618 13.7063C14.8483 13.1933 15.6177 12.4633 16.1702 11.536C16.7029 10.6088 16.9791 9.5434 16.9791 8.35964C16.9791 7.15616 16.7029 6.11052 16.1702 5.18325C15.6375 4.25598 14.868 3.52599 13.8618 3.01304C12.8754 2.50008 11.7114 2.24359 10.4092 2.24359H5.93071V14.4954H10.4092V14.4757Z" fill="white"/>
<path d="M22.6612 14.7912C21.8523 14.3374 21.2407 13.7061 20.7672 12.8775C20.3134 12.0686 20.0767 11.1413 20.0767 10.1154C20.0767 9.08945 20.3134 8.18191 20.7672 7.35328C21.221 6.54438 21.8523 5.91305 22.6612 5.43955C23.4701 4.98577 24.3579 4.74902 25.3444 4.74902C26.3308 4.74902 27.2384 4.98577 28.0275 5.43955C28.8364 5.89332 29.448 6.52465 29.9215 7.35328C30.3753 8.16218 30.6121 9.08945 30.6121 10.1154C30.6121 11.1413 30.3753 12.0488 29.9215 12.8775C29.4678 13.6864 28.8364 14.3177 28.0275 14.7912C27.2186 15.245 26.3308 15.4817 25.3444 15.4817C24.3579 15.4817 23.4701 15.245 22.6612 14.7912ZM27.5343 14.002C28.1656 13.6272 28.6786 13.0945 29.0534 12.4237C29.4283 11.7529 29.6059 10.9835 29.6059 10.1154C29.6059 9.24728 29.4283 8.49757 29.0534 7.80705C28.6786 7.13626 28.1854 6.60357 27.5343 6.22871C26.903 5.85386 26.173 5.65656 25.3641 5.65656C24.5552 5.65656 23.8252 5.85386 23.1939 6.22871C22.5625 6.60357 22.0496 7.13626 21.6747 7.80705C21.2999 8.47784 21.1223 9.24728 21.1223 10.1154C21.1223 10.9835 21.2999 11.7332 21.6747 12.4237C22.0496 13.0945 22.5428 13.6272 23.1939 14.002C23.8252 14.3769 24.5552 14.5742 25.3641 14.5742C26.173 14.5742 26.8832 14.3769 27.5343 14.002Z" fill="white"/>
<path d="M48.4866 4.86768L44.5013 15.4031H43.5543L40.0031 6.26846L36.4321 15.4031H35.5048L31.5195 4.86768H32.4863L35.9981 14.2588L39.5888 4.86768H40.4569L44.0279 14.239L47.5791 4.86768H48.4866Z" fill="white"/>
<path d="M59.1008 5.93278C59.8702 6.70221 60.2451 7.80705 60.2451 9.24728V15.4028H59.2389V9.3262C59.2389 8.14245 58.943 7.2349 58.3511 6.6233C57.7592 6.01169 56.9109 5.69602 55.8455 5.69602C54.6026 5.69602 53.6358 6.07087 52.9256 6.80085C52.2153 7.53083 51.8602 8.53703 51.8602 9.77997V15.3831H50.854V4.84767H51.8207V7.11653C52.1759 6.38655 52.7283 5.79467 53.4385 5.38036C54.1488 4.96605 55.0169 4.74902 55.9836 4.74902C57.2857 4.78848 58.3314 5.16334 59.1008 5.93278Z" fill="white"/>
<path d="M64.3882 0.428223H65.3944V15.383H64.3882V0.428223Z" fill="white"/>
<path d="M71.0767 14.7912C70.2678 14.3374 69.6562 13.7061 69.1827 12.8775C68.7289 12.0686 68.4922 11.1413 68.4922 10.1154C68.4922 9.08945 68.7289 8.18191 69.1827 7.35328C69.6365 6.54438 70.2678 5.91305 71.0767 5.43955C71.8856 4.98577 72.7734 4.74902 73.7599 4.74902C74.7463 4.74902 75.6539 4.98577 76.4431 5.43955C77.252 5.89332 77.8636 6.52465 78.3371 7.35328C78.7908 8.16218 79.0276 9.08945 79.0276 10.1154C79.0276 11.1413 78.7908 12.0488 78.3371 12.8775C77.8833 13.6864 77.252 14.3177 76.4431 14.7912C75.6342 15.245 74.7463 15.4817 73.7599 15.4817C72.7734 15.4817 71.8856 15.245 71.0767 14.7912ZM75.9498 14.002C76.5812 13.6272 77.0941 13.0945 77.469 12.4237C77.8438 11.7529 78.0214 10.9835 78.0214 10.1154C78.0214 9.24728 77.8438 8.49757 77.469 7.80705C77.0941 7.13626 76.6009 6.60357 75.9498 6.22871C75.3185 5.85386 74.5885 5.65656 73.7796 5.65656C72.9707 5.65656 72.2407 5.85386 71.6094 6.22871C70.9781 6.60357 70.4651 7.13626 70.0902 7.80705C69.7154 8.47784 69.5378 9.24728 69.5378 10.1154C69.5378 10.9835 69.7154 11.7332 70.0902 12.4237C70.4651 13.0945 70.9583 13.6272 71.6094 14.002C72.2407 14.3769 72.9707 14.5742 73.7796 14.5742C74.5885 14.5742 75.2988 14.3769 75.9498 14.002Z" fill="white"/>
<path d="M88.6747 5.79525C89.3653 6.46604 89.7204 7.43278 89.7204 8.7349V15.4034H88.7537V13.5291C88.4183 14.1407 87.925 14.6339 87.274 14.9693C86.6229 15.3047 85.8535 15.4823 84.9459 15.4823C83.7819 15.4823 82.8546 15.2061 82.1641 14.6537C81.4933 14.1012 81.1382 13.3713 81.1382 12.4835C81.1382 11.6154 81.4538 10.9051 82.0852 10.3527C82.7165 9.80027 83.703 9.5438 85.084 9.5438H88.6945V8.69544C88.6945 7.70898 88.438 6.95928 87.9053 6.46604C87.3726 5.95309 86.6032 5.6966 85.5773 5.6966C84.8867 5.6966 84.2159 5.81497 83.5649 6.05172C82.9335 6.28847 82.3811 6.62388 81.9471 7.01846L81.4341 6.28848C81.9668 5.81498 82.5982 5.45986 83.3281 5.18365C84.0581 4.92717 84.8473 4.78906 85.6562 4.78906C86.978 4.78906 87.9842 5.12445 88.6747 5.79525ZM87.3332 14.0421C87.9448 13.6475 88.3985 13.0556 88.7142 12.2862V10.3132H85.1235C84.0976 10.3132 83.3479 10.5105 82.8744 10.8854C82.4009 11.2602 82.1838 11.7732 82.1838 12.444C82.1838 13.1345 82.4403 13.6672 82.9533 14.0618C83.4662 14.4564 84.1765 14.6537 85.1038 14.6537C85.9718 14.6537 86.7216 14.4564 87.3332 14.0421Z" fill="white"/>
<path d="M103.255 0.428416V15.3832H102.268V12.8973C101.854 13.7259 101.262 14.3572 100.513 14.7913C99.7629 15.2253 98.9145 15.4621 97.9478 15.4621C96.9613 15.4621 96.0735 15.2253 95.2843 14.7716C94.4952 14.3178 93.8638 13.6864 93.4101 12.8776C92.9563 12.0687 92.7393 11.1414 92.7393 10.1155C92.7393 9.08954 92.9563 8.16226 93.4101 7.33364C93.8638 6.52474 94.4754 5.89341 95.2843 5.43964C96.0735 4.98587 96.9613 4.76884 97.9478 4.76884C98.8948 4.76884 99.7234 4.98587 100.473 5.43964C101.223 5.87368 101.815 6.50501 102.229 7.29418V0.408691H103.255V0.428416ZM100.177 14.0021C100.809 13.6273 101.321 13.0946 101.696 12.4238C102.071 11.753 102.249 10.9835 102.249 10.1155C102.249 9.24738 102.071 8.49767 101.696 7.80714C101.321 7.13635 100.828 6.60366 100.177 6.22881C99.5458 5.85395 98.8159 5.65665 98.007 5.65665C97.1981 5.65665 96.4681 5.85395 95.8367 6.22881C95.2054 6.60366 94.6924 7.13635 94.3176 7.80714C93.9427 8.47794 93.7652 9.24738 93.7652 10.1155C93.7652 10.9835 93.9427 11.7332 94.3176 12.4238C94.6924 13.0946 95.1857 13.6273 95.8367 14.0021C96.4681 14.377 97.1981 14.5743 98.007 14.5743C98.8159 14.5743 99.5458 14.377 100.177 14.0021Z" fill="white"/>
<path d="M114.106 14.7912C113.297 14.3374 112.686 13.7061 112.212 12.8775C111.758 12.0686 111.521 11.1413 111.521 10.1154C111.521 9.08945 111.758 8.18191 112.212 7.35328C112.666 6.54438 113.297 5.91305 114.106 5.43955C114.915 4.98577 115.803 4.74902 116.789 4.74902C117.776 4.74902 118.683 4.98577 119.472 5.43955C120.281 5.89332 120.893 6.52465 121.366 7.35328C121.82 8.16218 122.057 9.08945 122.057 10.1154C122.057 11.1413 121.82 12.0488 121.366 12.8775C120.913 13.6864 120.281 14.3177 119.472 14.7912C118.663 15.245 117.776 15.4817 116.789 15.4817C115.803 15.4817 114.915 15.245 114.106 14.7912ZM118.979 14.002C119.61 13.6272 120.123 13.0945 120.498 12.4237C120.873 11.7529 121.051 10.9835 121.051 10.1154C121.051 9.24728 120.873 8.49757 120.498 7.80705C120.123 7.13626 119.63 6.60357 118.979 6.22871C118.348 5.85386 117.618 5.65656 116.809 5.65656C116 5.65656 115.27 5.85386 114.639 6.22871C114.007 6.60357 113.494 7.13626 113.12 7.80705C112.745 8.47784 112.567 9.24728 112.567 10.1154C112.567 10.9835 112.745 11.7332 113.12 12.4237C113.494 13.0945 113.988 13.6272 114.639 14.002C115.27 14.3769 116 14.5742 116.809 14.5742C117.618 14.5742 118.328 14.3769 118.979 14.002Z" fill="white"/>
<path d="M133.46 5.93278C134.23 6.70221 134.604 7.80705 134.604 9.24728V15.4028H133.598V9.3262C133.598 8.14245 133.302 7.2349 132.71 6.6233C132.119 6.01169 131.27 5.69602 130.205 5.69602C128.962 5.69602 127.995 6.07087 127.285 6.80085C126.575 7.53083 126.22 8.53703 126.22 9.77997V15.3831H125.213V4.84767H126.18V7.11653C126.535 6.38655 127.088 5.79467 127.798 5.38036C128.508 4.96605 129.376 4.74902 130.343 4.74902C131.645 4.78848 132.691 5.16334 133.46 5.93278Z" fill="white"/>
<path d="M149.165 14.7325C148.908 14.9692 148.592 15.1665 148.198 15.2849C147.823 15.4033 147.409 15.4822 146.994 15.4822C146.087 15.4822 145.377 15.2257 144.883 14.7325C144.39 14.2195 144.134 13.529 144.134 12.6215V5.73598H142.2V4.86789H144.134V2.55957H145.14V4.86789H148.494V5.73598H145.14V12.5031C145.14 13.1936 145.298 13.7066 145.633 14.0617C145.968 14.4168 146.442 14.5944 147.093 14.5944C147.744 14.5944 148.297 14.3971 148.731 14.0025L149.165 14.7325Z" fill="white"/>
<path d="M160.233 5.93267C161.002 6.70211 161.377 7.80695 161.377 9.24718V15.4027H160.371V9.3261C160.371 8.14235 160.075 7.2348 159.483 6.6232C158.891 6.01159 158.043 5.69592 156.977 5.69592C155.734 5.69592 154.768 6.07077 154.057 6.80075C153.347 7.53073 152.992 8.53693 152.992 9.77987V15.383H151.986V0.428223H152.992V7.05724C153.347 6.32726 153.9 5.77484 154.61 5.38026C155.32 4.98568 156.168 4.78838 157.135 4.78838C158.437 4.78838 159.483 5.16324 160.233 5.93267Z" fill="white"/>
<path d="M174.458 10.3718H165.402C165.422 11.2005 165.639 11.9304 166.033 12.5618C166.428 13.1931 166.96 13.6863 167.611 14.0415C168.282 14.3966 169.032 14.5742 169.861 14.5742C170.551 14.5742 171.182 14.4558 171.774 14.1993C172.366 13.9428 172.84 13.5877 173.234 13.0945L173.826 13.7653C173.372 14.3177 172.8 14.732 172.11 15.0279C171.419 15.3239 170.669 15.462 169.861 15.462C168.815 15.462 167.868 15.2252 167.059 14.7715C166.23 14.3177 165.599 13.6864 165.126 12.8775C164.652 12.0686 164.435 11.1413 164.435 10.1154C164.435 9.08945 164.652 8.18191 165.086 7.35328C165.52 6.54438 166.132 5.91305 166.881 5.43955C167.651 4.98577 168.499 4.74902 169.466 4.74902C170.413 4.74902 171.281 4.96604 172.031 5.41981C172.781 5.87358 173.392 6.50492 173.826 7.31382C174.26 8.12272 174.477 9.03025 174.477 10.0562L174.458 10.3718ZM167.454 6.16953C166.862 6.50492 166.388 6.95869 166.033 7.5703C165.678 8.16217 165.481 8.85269 165.422 9.6024H173.491C173.451 8.85269 173.254 8.1819 172.879 7.59002C172.524 6.99815 172.031 6.54438 171.439 6.18925C170.847 5.85386 170.176 5.6763 169.446 5.6763C168.716 5.6763 168.046 5.83413 167.454 6.16953Z" fill="white"/>
<path d="M19.8397 46.5953H7.78512L5.39788 52.1786H0.78125L11.6323 28.0498H16.0517L26.9422 52.1786H22.2466L19.8397 46.5953ZM18.36 43.0835L13.8025 32.5481L9.28454 43.0835H18.36Z" fill="white"/>
<path d="M44.5999 34.738C46.0204 35.5271 47.1252 36.6122 47.9341 38.0525C48.743 39.473 49.1376 41.1105 49.1376 42.9848C49.1376 44.8393 48.743 46.4966 47.9341 47.9368C47.1252 49.377 46.0204 50.4819 44.5999 51.271C43.1794 52.0602 41.5813 52.4351 39.7859 52.4351C37.3001 52.4351 35.3469 51.6064 33.8869 49.9492V58.8668H29.5859V33.7712H33.6896V36.1782C34.3999 35.3101 35.2877 34.659 36.3333 34.2053C37.379 33.7712 38.5233 33.5542 39.8057 33.5542C41.5813 33.5739 43.1794 33.9685 44.5999 34.738ZM43.2188 47.1476C44.2447 46.0822 44.7577 44.7012 44.7577 42.9848C44.7577 41.2683 44.2447 39.8675 43.2188 38.8219C42.1929 37.7565 40.8908 37.2436 39.3124 37.2436C38.2865 37.2436 37.3395 37.4803 36.5306 37.9538C35.702 38.4273 35.0509 39.0981 34.5577 39.9662C34.0842 40.8343 33.8277 41.8405 33.8277 43.0045C33.8277 44.1488 34.0645 45.155 34.5577 46.0428C35.0312 46.9109 35.702 47.5817 36.5306 48.0552C37.3592 48.5287 38.2865 48.7654 39.3124 48.7654C40.8908 48.7457 42.1929 48.213 43.2188 47.1476Z" fill="white"/>
<path d="M68.2351 34.738C69.6556 35.5271 70.7605 36.6122 71.5694 38.0525C72.3782 39.473 72.7728 41.1105 72.7728 42.9848C72.7728 44.8393 72.3782 46.4966 71.5694 47.9368C70.7605 49.377 69.6556 50.4819 68.2351 51.271C66.8146 52.0602 65.2165 52.4351 63.4212 52.4351C60.9353 52.4351 58.9821 51.6064 57.5222 49.9492V58.8668H53.2212V33.7712H57.3249V36.1782C58.0351 35.3101 58.9229 34.659 59.9686 34.2053C61.0142 33.7712 62.1585 33.5542 63.4409 33.5542C65.2165 33.5739 66.8343 33.9685 68.2351 34.738ZM66.8541 47.1476C67.88 46.0822 68.393 44.7012 68.393 42.9848C68.393 41.2683 67.88 39.8675 66.8541 38.8219C65.8282 37.7565 64.526 37.2436 62.9477 37.2436C61.9218 37.2436 60.9748 37.4803 60.1659 37.9538C59.3372 38.4273 58.6862 39.0981 58.193 39.9662C57.7195 40.8343 57.463 41.8405 57.463 43.0045C57.463 44.1488 57.6997 45.155 58.193 46.0428C58.6665 46.9109 59.3372 47.5817 60.1659 48.0552C60.9945 48.5287 61.9218 48.7654 62.9477 48.7654C64.526 48.7457 65.8479 48.213 66.8541 47.1476Z" fill="white"/>
<path d="M88.8719 51.7241C87.1358 51.1914 85.7745 50.5009 84.7485 49.6131L86.3071 46.1407C87.2936 46.9299 88.4971 47.5612 89.9373 48.0545C91.3776 48.5477 92.8178 48.8042 94.258 48.8042C96.0534 48.8042 97.395 48.5082 98.263 47.9361C99.1509 47.3639 99.5849 46.5945 99.5849 45.6672C99.5849 44.9767 99.3284 44.4046 98.8352 43.9705C98.342 43.5168 97.7106 43.1814 96.9609 42.9249C96.2112 42.6684 95.1656 42.3922 93.8634 42.0568C92.0286 41.6228 90.5292 41.1887 89.4046 40.7547C88.2603 40.3206 87.2936 39.6301 86.4847 38.7028C85.6758 37.7756 85.2615 36.5129 85.2615 34.9346C85.2615 33.593 85.6166 32.3895 86.3466 31.3044C87.0766 30.2193 88.1617 29.3512 89.6217 28.7001C91.0816 28.0491 92.8572 27.7334 94.988 27.7334C96.4677 27.7334 97.9079 27.911 99.3284 28.2858C100.749 28.6607 101.972 29.1736 103.018 29.8642L101.597 33.3365C100.532 32.7249 99.4468 32.2514 98.2828 31.916C97.1385 31.6003 96.0139 31.4425 94.9485 31.4425C93.1729 31.4425 91.8708 31.7384 91.0027 32.3303C90.1346 32.9222 89.7203 33.7113 89.7203 34.7175C89.7203 35.4081 89.957 35.9605 90.47 36.4142C90.9632 36.8483 91.5946 37.2034 92.3443 37.4402C93.094 37.6966 94.1396 37.9729 95.4418 38.3082C97.2371 38.7226 98.6971 39.1566 99.8611 39.5906C101.005 40.0444 101.992 40.7152 102.801 41.6425C103.61 42.5698 104.024 43.793 104.024 45.3713C104.024 46.7129 103.669 47.9164 102.939 48.9818C102.209 50.0669 101.124 50.9152 99.6441 51.5663C98.1644 52.2173 96.3888 52.533 94.2778 52.533C92.4035 52.533 90.6081 52.2568 88.8719 51.7241Z" fill="white"/>
<path d="M119.117 51.1916C118.604 51.606 117.992 51.9216 117.282 52.1189C116.552 52.3162 115.803 52.4346 114.994 52.4346C112.981 52.4346 111.403 51.9019 110.298 50.8563C109.193 49.7909 108.641 48.252 108.641 46.2396V37.3812H105.603V33.9089H108.641V29.7065H112.942V33.9089H117.874V37.3615H112.942V46.1212C112.942 47.0091 113.159 47.6996 113.593 48.1731C114.027 48.6466 114.658 48.8833 115.487 48.8833C116.454 48.8833 117.262 48.6268 117.894 48.1336L119.117 51.1916Z" fill="white"/>
<path d="M125.292 51.2114C123.793 50.4025 122.629 49.278 121.8 47.8575C120.952 46.4172 120.538 44.7994 120.538 42.9844C120.538 41.1693 120.952 39.5515 121.8 38.131C122.629 36.7105 123.813 35.5859 125.292 34.7967C126.792 33.9878 128.469 33.5933 130.323 33.5933C132.198 33.5933 133.894 33.9878 135.394 34.7967C136.893 35.6056 138.057 36.7105 138.886 38.131C139.714 39.5515 140.148 41.1693 140.148 42.9844C140.148 44.7994 139.734 46.4172 138.886 47.8575C138.037 49.2977 136.873 50.4223 135.394 51.2114C133.894 52.0203 132.217 52.4149 130.323 52.4149C128.449 52.4149 126.772 52.0203 125.292 51.2114ZM134.249 47.1472C135.275 46.0818 135.808 44.7008 135.808 42.9844C135.808 41.2679 135.295 39.8671 134.249 38.8215C133.223 37.7561 131.902 37.2432 130.323 37.2432C128.745 37.2432 127.443 37.7759 126.417 38.8215C125.391 39.8869 124.878 41.2679 124.878 42.9844C124.878 44.7008 125.391 46.1016 126.417 47.1472C127.443 48.2126 128.745 48.7256 130.323 48.7256C131.902 48.7453 133.223 48.2126 134.249 47.1472Z" fill="white"/>
<path d="M154.925 33.5737V37.6774C154.55 37.6182 154.215 37.5788 153.919 37.5788C152.242 37.5788 150.94 38.072 149.993 39.0387C149.046 40.0252 148.572 41.426 148.572 43.2608V52.1784H144.271V33.771H148.375V36.4739C149.618 34.5405 151.808 33.5737 154.925 33.5737Z" fill="white"/>
<path d="M175.641 44.3654H161.199C161.456 45.7267 162.107 46.7921 163.172 47.5813C164.238 48.3704 165.559 48.765 167.158 48.765C169.17 48.765 170.847 48.0942 172.149 46.7724L174.457 49.4161C173.629 50.4025 172.583 51.1522 171.32 51.6652C170.058 52.1782 168.637 52.4149 167.039 52.4149C165.027 52.4149 163.231 52.0203 161.693 51.2114C160.154 50.4025 158.97 49.278 158.122 47.8575C157.273 46.4172 156.859 44.7994 156.859 42.9844C156.859 41.189 157.273 39.5712 158.082 38.1507C158.891 36.7105 160.035 35.5859 161.476 34.7967C162.916 33.9878 164.553 33.5933 166.368 33.5933C168.164 33.5933 169.762 33.9878 171.182 34.777C172.603 35.5662 173.708 36.6907 174.497 38.1112C175.286 39.5515 175.681 41.2087 175.681 43.083C175.7 43.3789 175.681 43.813 175.641 44.3654ZM162.896 38.2493C161.949 39.0582 161.357 40.1434 161.16 41.5047H171.597C171.419 40.1631 170.847 39.0977 169.9 38.2691C168.953 37.4404 167.789 37.0261 166.388 37.0261C165.027 37.0261 163.863 37.4207 162.896 38.2493Z" fill="white"/>
</svg>
