<svg width="91" height="91" viewBox="0 0 91 91" fill="none" xmlns="http://www.w3.org/2000/svg">
<path d="M8.86988 31.021C8.80112 30.3331 8.97302 29.4046 8.59485 28.9919C8.25107 28.6479 7.28847 28.8887 6.6009 28.8887C5.91333 28.8887 5.22576 28.8887 4.43505 28.8887C4.43505 29.267 4.43505 29.6109 4.43505 29.9204C4.43505 30.2643 4.43505 30.6083 4.43505 31.021C2.95677 31.021 1.51287 31.021 0.000216588 31.021C0.000216588 30.2987 0.000216588 29.6109 0.000216588 28.8543C0.687787 28.8543 1.34098 28.8543 2.13169 28.8543C2.13169 28.0977 2.13169 27.4098 2.13169 26.6188C2.92239 26.6188 3.57559 26.6188 4.36629 26.6188C4.36629 25.8622 4.36629 25.14 4.36629 24.3834C5.157 24.3834 5.81019 24.3834 6.56652 24.3834C6.56652 23.6268 6.56652 22.9389 6.56652 22.1823C7.32285 22.1823 8.01042 22.1823 8.73237 22.1823C8.73237 21.4257 8.73237 20.7723 8.73237 20.0157C7.28847 20.0157 5.87895 20.0157 4.40067 20.0157C4.40067 19.2247 4.40067 18.5024 4.40067 17.7458C6.6009 17.7458 8.76674 17.7458 11.0014 17.7458C11.0014 19.9125 11.0014 22.0792 11.0014 24.2802C11.7577 24.2802 12.4109 24.2802 13.2016 24.2802C13.2016 23.5924 13.2016 22.9046 13.2016 22.1479C13.9579 22.1479 14.6111 22.1479 15.333 22.1479C15.333 21.4257 15.333 20.7723 15.333 20.0157C14.6455 20.0157 13.9579 20.0157 13.236 20.0157C13.236 19.2247 13.236 18.5368 13.236 17.7458C13.9579 17.7458 14.6455 17.7458 15.4706 17.7458C15.4706 18.4337 15.4706 19.1215 15.4706 19.8437C16.2269 19.8437 16.8801 19.8437 17.602 19.8437C17.602 16.9204 17.602 14.0315 17.602 11.0395C19.1147 11.0395 20.5242 11.0395 22.0025 11.0395C22.0025 10.2829 22.0025 9.66381 22.0025 8.9072C21.3149 8.9072 20.6273 8.9072 19.8366 8.9072C19.8366 8.11619 19.8366 7.46275 19.8366 6.70614C19.0803 6.70614 18.4271 6.70614 17.6708 6.70614C17.6708 4.4363 17.6708 2.26963 17.6708 0.0341797C19.1147 0.0341797 20.5586 0.0341797 22.1056 0.0341797C22.1056 2.20085 22.1056 4.36751 22.1056 6.56857C23.5839 6.56857 24.959 6.56857 26.4373 6.56857C26.4373 4.4019 26.4373 2.26963 26.4373 0.0341797C27.228 0.0341797 27.9156 0.0341797 28.7751 0.0341797C28.7751 1.10032 28.7751 2.20085 28.7751 3.30138C28.7751 4.4019 28.7751 4.4019 29.9095 4.4019C30.2533 4.4019 30.5627 4.4019 31.0097 4.4019C31.0097 4.98656 31.0097 5.50243 31.0097 6.01831C30.9753 6.4654 31.1472 6.63735 31.5941 6.63735C32.1098 6.60296 32.6255 6.63735 33.2099 6.63735C33.2099 7.39397 33.2099 8.04741 33.2099 8.80402C33.9662 8.80402 34.6538 8.80402 35.3414 8.80402C35.3414 7.35958 35.3414 5.98392 35.3414 4.50508C34.6538 4.50508 33.9662 4.50508 33.1755 4.50508C33.1755 3.67968 33.1755 2.95746 33.1755 2.23524L33.2099 2.20085C35.4101 2.20085 37.576 2.20085 39.9137 2.20085C39.9137 2.99185 39.9137 3.71407 39.9137 4.47069C39.1918 4.47069 38.4698 4.47069 37.6791 4.47069C37.6791 5.98391 37.6791 7.35958 37.6791 8.8728C38.1604 8.8728 38.6073 8.83841 39.0542 8.8728C39.6387 8.94159 39.8449 8.70085 39.8449 8.0818C39.8106 6.87809 39.8793 5.64 39.8793 4.4363C42.0796 4.4363 44.2798 4.4363 46.5488 4.4363C46.5488 5.91513 46.5488 7.35958 46.5488 8.83841C47.3051 8.83841 47.9927 8.83841 48.749 8.83841C48.749 10.3516 48.749 11.7617 48.749 13.2061C49.4709 13.2061 50.1241 13.2061 50.8805 13.2061C50.8805 11.7617 50.8805 10.3516 50.8805 8.9072C51.6712 8.9072 52.3931 8.9072 53.1838 8.9072C53.1838 9.59503 53.1838 10.2829 53.1838 11.0051C53.9058 11.0051 54.559 11.0051 55.3153 11.0051C55.3153 10.3172 55.3153 9.66381 55.3153 8.8728C56.106 8.8728 56.7936 8.8728 57.5155 8.8728C57.5155 8.11619 57.5155 7.46275 57.5155 6.74053C56.0716 6.74053 54.6621 6.74053 53.1838 6.74053C53.1838 5.98392 53.1838 5.26169 53.1838 4.47069C53.837 4.47069 54.5246 4.47069 55.3153 4.47069C55.3153 2.95746 55.3153 1.51302 55.3153 0.0341797C56.8623 0.0341797 58.3062 0.0341797 59.8533 0.0341797C59.8533 0.756402 59.8533 1.40984 59.8533 2.16646C60.5752 2.16646 61.2284 2.16646 61.9847 2.16646C61.9847 1.47862 61.9847 0.790793 61.9847 0.0341797C65.7664 0.0341797 69.4105 0.0341797 73.1921 0.0341797C73.1921 5.91513 73.1921 11.7617 73.1921 17.7114C75.4267 17.7114 77.5926 17.7114 79.8272 17.7114C79.8272 18.468 79.8272 19.1215 79.8272 19.9125C80.5835 19.9125 81.3055 19.9125 82.0274 19.9125C82.0274 20.7379 82.0274 21.4257 82.0274 22.2511C81.3399 22.2511 80.6523 22.2511 79.896 22.2511C79.896 23.0077 79.896 23.6612 79.896 24.3834C81.3399 24.3834 82.7494 24.3834 84.262 24.3834C84.262 25.14 84.262 25.8622 84.262 26.6188C86.4966 26.6188 88.6281 26.6188 90.8627 26.6188C90.8627 28.1321 90.8627 29.6109 90.8627 31.0897C89.3844 31.0897 87.9405 31.0897 86.3935 31.0897C86.3935 30.3331 86.3935 29.6797 86.3935 28.9575C84.9152 28.9575 83.5401 28.9575 82.0618 28.9575C82.0618 29.6797 82.0618 30.3331 82.0618 31.1241C79.8272 31.1241 77.6613 31.1241 75.4611 31.1241C75.4611 31.8807 75.4611 32.5342 75.4611 33.2908C76.8706 33.2908 78.3145 33.2908 79.8272 33.2908C79.8272 34.804 79.8272 36.2485 79.8272 37.7273C81.3399 37.7273 82.715 37.7273 84.1245 37.7273C84.1245 37.0395 84.1245 36.386 84.1245 35.6294C83.4369 35.6294 82.7838 35.6294 82.0274 35.6294C82.0274 34.8384 82.0274 34.1506 82.0274 33.394C82.7494 33.394 83.4713 33.394 84.262 33.394C84.262 34.1162 84.262 34.7696 84.262 35.5262C85.0184 35.5262 85.7059 35.5262 86.4279 35.5262C86.4279 36.3172 86.4279 37.0051 86.4279 37.7961C85.7403 37.7961 85.0527 37.7961 84.3308 37.7961C84.3308 39.9971 84.3308 42.1294 84.3308 44.3305C84.984 44.3305 85.6372 44.3305 86.3935 44.3305C86.3935 43.6426 86.3935 42.9548 86.3935 42.2326C87.1842 42.2326 87.9062 42.2326 88.6969 42.2326C88.6969 43.677 88.6969 45.1215 88.6969 46.6003C89.4532 46.6003 90.1064 46.6003 90.8283 46.6003C90.8283 47.3913 90.8283 48.1135 90.8283 48.8702C89.3844 48.8702 87.9405 48.8702 86.4279 48.8702C86.4279 48.1823 86.4279 47.4945 86.4279 46.7035C85.6715 46.7035 84.9496 46.7035 84.1933 46.7035C84.1933 45.9125 84.1933 45.259 84.1933 44.5024C82.715 44.5024 81.2711 44.5024 79.7928 44.5024C79.7928 42.9892 79.7928 41.5792 79.7928 40.1003C78.3145 40.1003 76.905 40.1003 75.4267 40.1003C75.4267 40.8225 75.4267 41.5104 75.4267 42.2326L75.358 42.3014C73.9141 42.3014 72.5046 42.3014 70.9575 42.3014C70.9575 43.0236 70.9575 43.7114 70.9575 44.468C68.6885 44.468 66.5227 44.468 64.2881 44.468C64.2881 46.7035 64.2881 48.8702 64.2881 51.1056C63.5318 51.1056 62.8442 51.1056 62.0879 51.1056C62.0879 52.6188 62.0879 54.0289 62.0879 55.5421C61.3315 55.5421 60.644 55.5421 59.922 55.5421C59.922 56.2987 59.922 56.9866 59.922 57.6744C62.8098 57.6744 65.6976 57.6744 68.6198 57.6744C68.6198 56.2299 68.6198 54.8543 68.6198 53.4098C67.9322 53.4098 67.2446 53.4098 66.4883 53.4098C66.4883 54.1321 66.4883 54.8199 66.4883 55.5077C65.6976 55.5077 65.01 55.5077 64.2537 55.5077C64.2537 54.7511 64.2537 54.0633 64.2537 53.2723C64.9757 53.2723 65.6289 53.2723 66.4196 53.2723C66.4196 51.7934 66.4196 50.349 66.4196 48.8358C67.2103 48.8358 67.8978 48.8358 68.6542 48.8358C68.6542 48.0792 68.6542 47.4257 68.6542 46.7035C69.4449 46.7035 70.1668 46.7035 70.9232 46.7035C70.9232 47.3913 70.9232 48.0448 70.9232 48.767C71.6451 48.767 72.2983 48.767 73.089 48.767C73.089 48.1135 73.089 47.4257 73.089 46.6691C74.636 46.6691 76.0799 46.6691 77.5926 46.6691C77.5926 47.3569 77.5926 48.0448 77.5926 48.767C78.3145 48.767 78.9677 48.767 79.6897 48.767C79.6897 48.1135 79.6897 47.4257 79.6897 46.7035C80.5148 46.7035 81.2367 46.7035 82.0274 46.7035C82.0274 47.3913 82.0274 48.0792 82.0274 48.8358C82.7838 48.8358 83.4713 48.8358 84.2277 48.8358C84.2277 50.349 84.2277 51.759 84.2277 53.2379C85.7059 53.2379 87.0811 53.2379 88.5937 53.2379C88.5937 52.5844 88.5937 51.8622 88.5937 51.14C89.4188 51.14 90.1064 51.14 90.8627 51.14C90.8627 51.8622 90.8627 52.55 90.8627 53.3754C90.1751 53.3754 89.5219 53.3754 88.7656 53.3754C88.7656 54.0977 88.7656 54.7511 88.7656 55.5077C89.4188 55.5077 90.1064 55.5077 90.8627 55.5077C90.8627 56.3331 90.8627 57.021 90.8627 57.812C89.3844 57.812 87.9405 57.812 86.3935 57.812C86.3935 57.0897 86.3935 56.4363 86.3935 55.7141C85.6715 55.7141 85.0184 55.7141 84.2964 55.7141C84.2964 56.4019 84.2964 57.0553 84.2964 57.8463C83.5057 57.8463 82.8181 57.8463 82.0962 57.8463C82.0962 58.603 82.0962 59.2564 82.0962 59.9786C82.7838 59.9786 83.4713 59.9786 84.2277 59.9786C84.2277 60.7352 84.2277 61.4575 84.2277 62.1797C84.984 62.1797 85.6028 62.1797 86.3247 62.1797C86.3247 61.4919 86.3247 60.8384 86.3247 60.0818C87.1154 60.0818 87.8374 60.0818 88.6281 60.0818C88.6281 60.7696 88.6281 61.4919 88.6281 62.2829C87.9062 62.2829 87.253 62.2829 86.531 62.2829C86.531 63.0395 86.531 63.7273 86.531 64.4495C87.9749 64.4495 89.3501 64.4495 90.8283 64.4495C90.8283 65.2061 90.8283 65.894 90.8283 66.685C90.1751 66.685 89.5219 66.685 88.7656 66.685C88.7656 68.9204 88.7656 71.0871 88.7656 73.3225C89.4532 73.3225 90.1408 73.3225 90.8627 73.3225C90.8627 74.1135 90.8627 74.8358 90.8627 75.558C90.1064 75.558 89.4188 75.558 88.6281 75.558C88.6281 74.8358 88.6281 74.1823 88.6281 73.4257C87.9062 73.4257 87.2873 73.4257 86.4966 73.4257C86.4966 74.0791 86.4966 74.8014 86.4966 75.558C84.984 75.558 83.5401 75.558 82.0962 75.558C82.0962 76.3146 82.0962 76.968 82.0962 77.7247C82.7838 77.7247 83.4713 77.7247 84.2277 77.7247C84.2277 78.4813 84.2277 79.1691 84.2277 79.9257C85.7403 79.9257 87.1498 79.9257 88.6625 79.9257C88.6625 80.6823 88.6625 81.3702 88.6625 82.1268C89.4188 82.1268 90.1064 82.1268 90.8283 82.1268C90.8283 82.9522 90.8283 83.6744 90.8283 84.4654C90.1408 84.4654 89.4876 84.4654 88.6969 84.4654C88.6969 85.9442 88.6969 87.3887 88.6969 88.9019C87.9062 88.9019 87.2186 88.9019 86.4623 88.9019C86.4623 89.6585 86.4623 90.3463 86.4623 91.0686C82.715 91.0686 79.0365 91.0686 75.2548 91.0686C75.2548 89.5897 75.2548 88.1797 75.2548 86.7352C74.4985 86.7352 73.8453 86.7352 73.1234 86.7352C73.1234 87.4231 73.1234 88.1109 73.1234 88.9019C72.3327 88.9019 71.6451 88.9019 70.8888 88.9019C70.8888 89.6929 70.8888 90.3463 70.8888 91.0686C70.0981 91.0686 69.4105 91.0686 68.6198 91.0686C68.6198 90.3463 68.6198 89.6585 68.6198 88.9707C67.8978 88.9707 67.2446 88.9707 66.4883 88.9707C66.4883 89.6585 66.4883 90.3463 66.4883 91.0686C64.9413 91.0686 63.4974 91.0686 61.9847 91.0686C61.9847 89.6241 61.9847 88.2141 61.9847 86.7696C60.5065 86.7696 59.1313 86.7696 57.6187 86.7696C57.6187 88.1797 57.6187 89.5897 57.6187 91.0686C56.7936 91.0686 56.0716 91.0686 55.2809 91.0686C55.2809 89.6585 55.2809 88.2485 55.2809 86.7696C53.837 86.7696 52.4619 86.7696 50.9836 86.7696C50.9836 87.3887 50.9836 88.0765 50.9836 88.7987C51.6712 88.7987 52.3244 88.7987 53.0807 88.7987C53.0807 89.5897 53.0807 90.2776 53.0807 91.0686C51.6368 91.0686 50.1585 91.0686 48.6115 91.0686C48.6115 89.6241 48.6115 88.2141 48.6115 86.7696C45.6893 86.7696 42.8015 86.7696 39.8449 86.7696C39.8449 87.3887 39.8449 88.0765 39.8449 88.7987C40.5325 88.7987 41.2201 88.7987 41.942 88.7987C41.942 89.5897 41.942 90.2776 41.942 91.0342C41.2545 91.0342 40.5669 91.0342 39.7762 91.0342C39.7762 90.3807 39.7762 89.6929 39.7762 88.9363C38.9855 88.9019 38.2979 88.8675 37.5416 88.8331C37.5416 86.5977 37.5416 84.431 37.5416 82.1612C38.2635 82.1612 38.9511 82.1612 39.6731 82.1612C39.6731 80.6479 39.6731 79.2723 39.6731 77.7934C38.9511 77.7934 38.2979 77.7934 37.5416 77.7934C37.5416 77.0368 37.5416 76.3834 37.5416 75.6268C36.7853 75.6268 36.1321 75.6268 35.3757 75.6268C35.3757 79.2723 35.3757 82.9178 35.3757 86.6321C34.6194 86.6321 33.9318 86.6321 33.1755 86.6321C33.1755 87.3887 33.1755 88.0765 33.1755 88.8675C32.3848 88.8675 31.6972 88.8675 30.9065 88.8675C30.9065 89.6585 30.9065 90.3464 30.9065 91.0342C30.1158 91.0342 29.3939 91.0342 28.6719 91.0342C28.6719 89.5553 28.6719 88.1453 28.6719 86.5977C29.3595 86.5977 30.0814 86.5977 30.8378 86.5977C30.8378 85.0844 30.8378 83.64 30.8378 82.1612C31.5941 82.1612 32.2817 82.1612 33.0036 82.1612C33.0036 81.4389 33.0036 80.7855 33.0036 80.0633C31.6285 80.0633 30.219 80.0633 28.7063 80.0633C28.7063 81.4733 28.7063 82.8834 28.7063 84.3966C27.95 84.3966 27.2968 84.3966 26.5061 84.3966C26.5061 86.6321 26.5061 88.7987 26.5061 90.9998C25.681 90.9998 24.959 90.9998 24.1683 90.9998C24.1683 90.312 24.1683 89.6585 24.1683 88.9019C23.412 88.9019 22.7244 88.9019 21.9681 88.9019C21.9681 88.1109 21.9681 87.4575 21.9681 86.7008C20.4555 86.7008 19.0459 86.7008 17.5677 86.7008C17.5677 84.431 17.5677 82.2299 17.5677 79.9945C18.2896 79.9945 19.0116 79.9945 19.8366 79.9945C19.8366 80.6823 19.8366 81.3702 19.8366 82.1268C20.593 82.1268 21.2805 82.1268 22.0369 82.1268C22.0369 82.8834 22.0369 83.5712 22.0369 84.2934C22.7588 84.2934 23.412 84.2934 24.134 84.2934C24.134 82.9178 24.134 81.5077 24.134 79.9601C24.9247 79.9601 25.6122 79.9601 26.4029 79.9601C26.4029 78.4469 26.4029 77.0024 26.4029 75.5236C27.1593 75.5236 27.8468 75.5236 28.6032 75.5236C28.6032 74.767 28.6032 74.1135 28.6032 73.3225C29.3595 73.3225 30.0814 73.3225 30.8034 73.3225C30.8034 72.5659 30.8034 71.9125 30.8034 71.1903C29.4282 71.1903 28.0187 71.1903 26.5061 71.1903C26.5061 71.8781 26.5061 72.5315 26.5061 73.3225C24.9934 73.3225 23.5839 73.3225 22.0712 73.3225C22.0712 74.1135 22.0712 74.8014 22.0712 75.5236C20.5242 75.5236 19.0803 75.5236 17.5677 75.5236C17.5677 74.0448 17.5677 72.6003 17.5677 71.0527C19.0459 71.0527 20.4555 71.0527 21.8993 71.0527C21.8993 70.2961 21.8993 69.677 21.8993 68.9204C19.0116 68.9204 16.0894 68.9204 13.1328 68.9204C13.1328 68.1294 13.1328 67.4416 13.1328 66.6162C14.5767 66.6162 15.9862 66.6162 17.4301 66.6162C17.4301 65.8596 17.4301 65.1717 17.4301 64.4151C15.9862 64.4151 14.5423 64.4151 13.0641 64.4151C13.0641 63.6585 13.0641 62.9707 13.0641 62.2485C12.3077 62.2485 11.6889 62.2485 10.9326 62.2485C10.9326 62.9707 10.9326 63.6241 10.9326 64.3807C9.41994 64.3807 7.97604 64.3807 6.46338 64.3807C6.46338 63.6585 6.46338 62.9363 6.46338 62.1797C7.15095 62.1797 7.83852 62.1797 8.56047 62.1797C8.56047 60.7352 8.56047 59.3252 8.56047 57.8807C7.8729 57.8807 7.21971 57.8807 6.46338 57.8807C6.46338 58.5342 6.46338 59.222 6.46338 60.013C5.67268 60.013 4.98511 60.013 4.22878 60.013C4.22878 60.7696 4.22878 61.4231 4.22878 62.2141C3.47245 62.2141 2.78488 62.2141 1.99417 62.2141C1.99417 65.9627 1.99417 69.6083 1.99417 73.2881C1.23784 73.2881 0.550273 73.2881 -0.206055 73.2881C-0.206055 69.6426 -0.206055 65.9628 -0.206055 62.1797C0.447138 62.1797 1.16909 62.1797 1.92542 62.1797C1.92542 60.6665 1.92542 59.2564 1.92542 57.7432C3.40369 57.7432 4.84759 57.7432 6.36025 57.7432C6.36025 56.2299 6.36025 54.8199 6.36025 53.3067C7.15095 53.3067 7.83852 53.3067 8.56047 53.3067C8.56047 52.55 8.56047 51.8966 8.56047 51.1744C7.0822 51.1744 5.67268 51.1744 4.22878 51.1744C4.22878 50.3834 4.22878 49.6612 4.22878 48.8702C4.91635 48.8702 5.60392 48.8702 6.39463 48.8702C6.39463 46.6347 6.39463 44.468 6.39463 42.2326C6.97906 42.2326 7.46036 42.1982 7.94166 42.2326C8.45734 42.267 8.66361 42.095 8.62923 41.5448C8.59485 41.0633 8.62923 40.5818 8.62923 39.9971C9.38556 39.9971 10.0731 39.9971 10.8295 39.9971C10.8295 39.2405 10.8295 38.5527 10.8295 37.7961C11.5858 37.7961 12.2734 37.7961 12.9953 37.7961C12.9953 37.0395 12.9953 36.3516 12.9953 35.595C12.2734 35.595 11.5858 35.595 10.8295 35.595C10.8295 34.0818 10.8295 32.6717 10.8295 31.1241C10.0731 31.1241 9.38556 31.1241 8.69799 31.1241L8.86988 31.021ZM35.5133 71.0183C35.5133 71.7061 35.5133 72.4284 35.5133 73.1162C37.9541 73.3569 37.851 73.5289 37.576 71.0527C36.8884 71.0527 36.1664 71.0527 35.5133 71.0183C35.4789 70.2961 35.5133 69.5395 35.5133 68.7829C36.2008 68.7829 36.9228 68.7829 37.6103 68.7829C37.6103 67.2352 37.6103 65.8252 37.6103 64.3464C36.854 64.3464 36.1664 64.3464 35.4789 64.3464C35.4789 62.9019 35.4789 61.4575 35.4789 60.013C34.6538 60.013 34.0006 60.013 33.3474 60.013C33.3474 61.4575 33.3474 62.8675 33.3474 64.312C34.1037 64.312 34.8257 64.312 35.5133 64.312C35.5133 65.7908 35.5133 67.304 35.5133 68.7829C34.7569 68.7829 33.9662 68.7829 33.2099 68.7829C33.2099 68.095 33.2099 67.3728 33.2099 66.5474C32.4536 66.5474 31.7316 66.5474 30.9753 66.5474C30.9753 65.7564 30.9753 65.103 30.9753 64.312C30.219 64.312 29.497 64.312 28.8438 64.312C28.8438 63.4866 28.8438 62.7987 28.8438 62.0077C29.6001 62.0077 30.2877 62.0077 31.0097 62.0077C31.0097 61.2167 31.0097 60.4945 31.0097 59.7723C31.7316 59.7723 32.4536 59.7723 33.2786 59.7723C33.2786 58.259 33.2786 56.849 33.2786 55.3702C34.035 55.3702 34.7225 55.3702 35.4101 55.3702C35.4101 54.6479 35.4101 53.9945 35.4101 53.2379C34.6538 53.2379 33.9662 53.2379 33.313 53.2379C33.313 51.6903 33.313 50.2458 33.313 48.6982C34.035 48.6982 34.7225 48.6982 35.4101 48.6982C35.4101 46.4627 35.4101 44.3305 35.4101 42.1982C32.4192 42.1982 29.497 42.1982 26.5405 42.1982C26.5405 41.476 26.5405 40.7194 26.5405 39.9627C24.3402 39.9627 22.2088 39.9627 19.9741 39.9627C19.9741 40.7194 19.9741 41.4072 19.9741 42.095C17.7052 42.095 15.5393 42.095 13.236 42.095C13.236 41.3728 13.236 40.685 13.236 39.9284C12.4796 39.9284 11.8264 39.9284 11.1732 39.9284C11.1732 41.3728 11.1732 42.7829 11.1732 44.2273C14.8517 44.2273 18.4615 44.2273 22.14 44.2273C22.14 43.5051 22.14 42.8172 22.14 42.1294C23.687 42.1294 25.1309 42.1294 26.5748 42.1294C26.6092 42.8172 26.6436 43.5395 26.7123 44.3305C27.4687 44.3305 28.1219 44.3305 28.8782 44.3305C28.8782 45.0871 28.8782 45.7405 28.8782 46.4284C29.6345 46.4284 30.2877 46.4284 31.044 46.4284C31.044 45.7061 31.044 45.0527 31.044 44.3305C31.8347 44.3305 32.5223 44.3305 33.2443 44.3305C33.2443 45.0871 33.2443 45.7749 33.2443 46.6003C32.5223 46.6003 31.8004 46.6003 31.044 46.6003C31.044 48.1135 31.044 49.5236 31.044 51.0368C30.2877 51.0368 29.6001 51.0368 28.9126 51.0368C28.9126 51.759 28.9126 52.4125 28.9126 53.1347C29.6345 53.1347 30.3221 53.1347 31.044 53.1347C31.044 55.4045 31.044 57.6056 31.044 59.7723C30.3221 59.8067 29.6001 59.8411 28.7751 59.8755C28.7751 57.6056 28.7751 55.4389 28.7751 53.2723C28.0531 53.2723 27.3999 53.2723 26.678 53.2723C26.6436 53.9945 26.6092 54.6823 26.5748 55.4733C25.8185 55.4733 25.1309 55.4733 24.4777 55.4733C24.4777 56.2299 24.4777 56.849 24.4777 57.6056C25.1997 57.6056 25.8873 57.6056 26.678 57.6056C26.678 60.5977 26.678 63.521 26.678 66.5474C27.4687 66.5474 28.1219 66.5474 28.8782 66.5474C28.8782 67.304 28.8782 67.9919 28.8782 68.7141C30.3908 68.7141 31.8004 68.7141 33.2443 68.7141C33.2443 69.1956 33.313 69.677 33.2786 70.1585C33.2443 70.7432 33.4162 70.9839 34.035 70.9495C34.5507 70.9839 35.032 71.0183 35.5133 71.0183ZM35.5133 33.2564C35.5133 33.9786 35.5133 34.7008 35.5133 35.5262C36.3727 35.5262 37.0603 35.5262 37.7479 35.5262C37.7479 36.9707 37.7479 38.4151 37.7479 39.9627C38.5386 39.9627 39.2261 39.9627 39.9137 39.9627C39.9137 40.7538 39.9137 41.4416 39.9137 42.2326C39.1918 42.2326 38.4698 42.2326 37.7822 42.2326C37.7822 42.9892 37.7822 43.6083 37.7822 44.3993C38.5042 44.3993 39.2261 44.3993 39.9825 44.3993C39.9825 45.1903 39.9825 45.8781 39.9825 46.6003C40.7388 46.6003 41.4264 46.6003 42.1139 46.6003C42.1139 47.3913 42.1139 48.0792 42.1139 48.8358C41.3576 48.8358 40.67 48.8358 39.8449 48.8358C39.8449 48.0792 39.8449 47.3913 39.8449 46.7379C39.0542 46.7379 38.4011 46.7379 37.6447 46.7379C37.6447 47.4945 37.6447 48.1479 37.6447 48.9045C36.8884 48.9045 36.2008 48.9045 35.5133 48.9045C35.5133 49.6268 35.5133 50.2802 35.5133 50.968C38.4354 50.968 41.3232 50.968 44.2798 50.968C44.2798 50.2458 44.2798 49.558 44.2798 48.8702C45.1049 48.8702 45.8268 48.8702 46.6175 48.8702C46.6175 50.349 46.6175 51.759 46.6175 53.1691C48.0958 53.1691 49.4709 53.1691 50.8461 53.1691C50.8461 49.4892 50.8461 45.8781 50.8461 42.1982C50.1241 42.1982 49.4366 42.1982 48.749 42.1982C48.749 41.4072 48.749 40.7194 48.749 39.9284C49.4709 39.9284 50.1585 39.9284 50.9148 39.9284C50.9148 39.1717 50.9148 38.4839 50.9148 37.7273C51.6712 37.7273 52.3587 37.7273 53.0463 37.7273C53.0463 36.9707 53.0463 36.3172 53.0463 35.5606C52.3244 35.5606 51.6368 35.5606 50.9148 35.5606C50.8805 34.7696 50.8461 34.0818 50.8117 33.2908C50.0554 33.2908 49.3678 33.2908 48.7146 33.2908C48.7146 32.4998 48.7146 31.8463 48.7146 31.0553C49.4366 31.0553 50.1585 31.0553 50.8117 31.0553C50.8117 29.5421 50.8117 28.1665 50.8117 26.722C50.1241 26.722 49.4709 26.722 48.749 26.722C48.749 27.4442 48.749 28.1321 48.749 28.8543C47.9583 28.8543 47.2707 28.8543 46.48 28.8543C46.48 27.3755 46.48 25.931 46.48 24.349C47.2363 24.349 47.9239 24.349 48.7146 24.349C48.7146 23.558 48.7146 22.8702 48.7146 22.1135C50.2273 22.1135 51.6368 22.1135 53.0463 22.1135C53.0463 21.3913 53.0463 20.7379 53.0463 19.9813C52.29 19.9813 51.6024 19.9813 50.8461 19.9813C50.8461 18.468 50.8461 17.0236 50.8461 15.5448C50.0898 15.5448 49.4022 15.5448 48.6802 15.5448C48.6802 14.7881 48.6802 14.1003 48.6802 13.4125C47.9239 13.4125 47.2707 13.4125 46.5144 13.4125C46.5144 15.6479 46.5144 17.7802 46.5144 20.0501C44.2798 20.0501 42.1139 20.0501 39.9137 20.0501C39.9137 21.5289 39.9137 22.9046 39.9137 24.3834C41.392 24.3834 42.8359 24.3834 44.2454 24.3834C44.2454 25.1744 44.2454 25.8966 44.2454 26.6876C43.5235 26.6876 42.8359 26.6876 42.1483 26.6876C42.1483 27.4442 42.1483 28.0977 42.1483 28.8543C42.9046 28.8543 43.5922 28.8543 44.3485 28.8543C44.3485 29.6109 44.3485 30.2987 44.3485 31.0897C45.1049 31.0897 45.7924 31.0897 46.48 31.0897C46.48 31.8807 46.48 32.5342 46.48 33.3252C45.0017 33.3252 43.5578 33.3252 42.1483 33.3252C42.1483 34.1162 42.1483 34.7696 42.1483 35.5262C42.9046 35.5262 43.5578 35.5262 44.3142 35.5262C44.3142 36.2829 44.3142 36.9363 44.3142 37.7273C45.0705 37.7273 45.7924 37.7273 46.4456 37.7273C46.4456 38.5527 46.4456 39.2405 46.4456 39.894C44.933 39.894 43.4891 39.894 41.9764 39.894C41.9764 38.4151 41.9764 37.0051 41.9764 35.5262C40.4638 35.5262 39.0199 35.5262 37.6103 35.5262C37.576 34.8384 37.8166 33.8411 37.4384 33.4971C37.129 33.1532 36.2008 33.3252 35.5133 33.2564C35.4789 31.812 35.4789 30.3331 35.4789 28.8887C36.304 28.8887 37.0259 28.8887 37.7822 28.8887C37.7822 29.6109 37.7822 30.2987 37.7822 31.021C39.2605 31.021 40.6357 31.021 42.1483 31.021C42.1483 30.4707 42.1139 29.9892 42.1483 29.4733C42.1827 29.0262 41.9764 28.8543 41.5295 28.8887C41.0138 28.9231 40.5325 28.8887 39.9137 28.8887C39.9137 27.3755 39.9137 25.9654 39.9137 24.521C39.1574 24.521 38.4698 24.521 37.7135 24.521C37.7135 25.2776 37.7135 25.931 37.7135 26.5844C36.9228 26.5844 36.2352 26.5844 35.4445 26.5844C35.4445 25.1056 35.4445 23.7299 35.4445 22.2167C34.6882 22.2167 34.0006 22.2167 33.313 22.2167C33.313 21.3913 33.313 20.7035 33.313 19.9813C34.0694 19.9813 34.7569 19.9813 35.5476 19.9813C35.5476 20.7035 35.5476 21.3913 35.5476 22.0792C36.304 22.0792 36.9571 22.0792 37.7135 22.0792C37.7135 21.3569 37.7135 20.6691 37.7135 19.9125C38.4698 19.9125 39.1574 19.9125 39.8793 19.9125C39.8793 19.1903 39.8793 18.5368 39.8793 17.8146C37.6791 17.8146 35.5133 17.8146 33.2443 17.8146C33.2443 17.0236 33.2443 16.3358 33.2443 15.6479C32.4536 15.6479 31.8004 15.6479 31.0784 15.6479C31.0784 17.849 31.0784 19.9813 31.0784 22.1823C29.5658 22.1823 28.1219 22.1823 26.5748 22.1823C26.5748 20.7035 26.5748 19.259 26.5748 17.849C25.8185 17.849 25.1653 17.849 24.5121 17.849C24.5121 20.0501 24.5121 22.1479 24.5121 24.3834C25.2341 24.3834 25.9216 24.3834 26.678 24.3834C26.678 25.14 26.678 25.8278 26.678 26.6188C27.4687 26.6188 28.1562 26.6188 28.9126 26.6188C28.9126 28.1321 28.9126 29.5765 28.9126 31.0553C30.4252 31.0553 31.8347 31.0553 33.313 31.0553C33.313 31.8463 33.313 32.5686 33.313 33.2564C32.763 33.2564 32.1785 33.2564 31.6285 33.3252C31.4566 33.3596 31.1472 33.5659 31.1472 33.7379C31.0784 34.2881 31.1128 34.8384 31.1128 35.4231C31.9035 35.4231 32.5567 35.4231 33.2786 35.4231C33.2786 34.6665 33.2786 33.9442 33.2786 33.2564C34.0006 33.2564 34.7569 33.2564 35.5133 33.2564ZM62.0879 64.3464C60.644 64.3464 59.2001 64.3464 57.6874 64.3464C57.6874 62.8331 57.6874 61.3887 57.6874 59.8411C58.4437 59.8411 59.1313 59.8411 59.8189 59.8411C59.8189 59.0844 59.8189 58.431 59.8189 57.6744C59.0626 57.6744 58.375 57.6744 57.6187 57.6744C57.6187 56.8834 57.6187 56.2299 57.6187 55.4733C56.8623 55.4733 56.1748 55.4733 55.5216 55.4733C55.5216 54.6823 55.5216 53.9601 55.5216 53.1347C56.9998 53.1347 58.4094 53.1347 59.8533 53.1347C59.8533 52.4125 59.8533 51.759 59.8533 51.0368C58.375 51.0368 56.9655 51.0368 55.4528 51.0368C55.4528 49.5236 55.4528 48.0792 55.4528 46.6691C54.6965 46.6691 54.0433 46.6691 53.3213 46.6691C53.3213 48.8702 53.3213 51.0368 53.3213 53.2723C52.565 53.2723 51.8774 53.2723 51.1899 53.2723C51.1899 54.7511 51.1899 56.1612 51.1899 57.64C51.9462 57.64 52.5994 57.64 53.3557 57.64C53.3557 58.3966 53.3557 59.0844 53.3557 59.8067C54.112 59.8067 54.7652 59.8067 55.5216 59.8067C55.5216 60.5977 55.5216 61.2855 55.5216 62.0765C54.7996 62.0765 54.1464 62.0765 53.4245 62.0765C53.4245 63.5897 53.4245 64.9998 53.4245 66.513C55.6247 66.513 57.7906 66.513 59.9908 66.513C59.9908 68.0262 59.9908 69.4707 59.9908 70.9839C59.2688 70.9839 58.5813 70.9839 57.8593 70.9839C57.8593 71.7405 57.8593 72.394 57.8593 73.185C58.5813 73.185 59.2688 73.185 60.0252 73.185C60.0252 73.804 59.9908 74.3199 60.0595 74.8014C60.0939 75.0077 60.3346 75.3172 60.4721 75.3516C61.0221 75.4204 61.5722 75.386 62.2254 75.386C62.2254 74.5606 62.2254 73.9072 62.2254 73.1506C62.9817 73.1506 63.6693 73.1506 64.4256 73.1506C64.4256 72.394 64.4256 71.6717 64.4256 71.0183C65.2507 71.0183 65.9383 71.0183 66.6258 71.0183C66.6258 73.2538 66.6258 75.4204 66.6258 77.6903C64.4256 77.6903 62.2598 77.6903 60.0595 77.6903C60.0595 78.4125 60.0595 79.0659 60.0595 79.8225C60.7815 79.8225 61.4691 79.8225 62.2254 79.8225C62.2254 80.5792 62.2254 81.267 62.2254 82.0236C62.9817 82.0236 63.6693 82.0236 64.4256 82.0236C64.4256 84.259 64.4256 86.4257 64.4256 88.6268C65.1819 88.6268 65.8695 88.6268 66.6258 88.6268C66.6258 86.4257 66.6258 84.259 66.6258 81.9892C68.1385 81.9892 69.548 81.9892 70.9919 81.9892C70.9919 81.2326 70.9919 80.6135 70.9919 79.8569C70.2356 79.8569 69.548 79.8569 68.8604 79.8569C68.8604 77.5871 68.8604 75.4204 68.8604 73.185C69.6168 73.1506 70.3043 73.1162 71.095 73.0818C71.095 71.5686 71.095 70.1585 71.095 68.6453C71.8514 68.6453 72.5389 68.6453 73.2265 68.6453C73.2265 67.1665 73.2265 65.7908 73.2265 64.3464C71.7482 64.3464 70.3731 64.3464 68.8604 64.3464C68.8604 65.8252 68.8604 67.2352 68.8604 68.6797C67.3134 68.6797 65.8695 68.6797 64.3568 68.6797C64.3568 67.8887 64.3568 67.2008 64.3568 66.4786C65.0788 66.4786 65.8008 66.4786 66.5227 66.4786C66.5227 65.6876 66.5227 65.0342 66.5227 64.3464C65.8008 64.3464 65.1476 64.3464 64.3568 64.3464C64.3568 65.103 64.3568 65.7908 64.3568 66.513C63.6349 66.513 62.913 66.513 62.0879 66.513C62.0535 65.7908 62.0535 65.0686 62.0879 64.3464C62.7754 64.312 63.5318 64.312 64.3568 64.312C64.3568 63.521 64.3568 62.8331 64.3568 62.0765C65.8695 62.0765 67.279 62.0765 68.7229 62.0765C68.7229 61.3543 68.7229 60.7008 68.7229 60.013C65.8008 60.013 62.913 60.013 59.9908 60.013C59.9908 60.7352 59.9908 61.3887 59.9908 62.1453C60.7471 62.1453 61.4003 62.1453 62.0535 62.1453C62.0879 62.9363 62.0879 63.6585 62.0879 64.3464ZM62.0879 11.177C62.0879 8.94159 62.0879 6.74053 62.0879 4.50508C60.6096 4.50508 59.2345 4.50508 57.7906 4.50508C57.7906 5.2273 57.7906 5.88074 57.7906 6.63735C58.5125 6.63735 59.2001 6.63735 59.8876 6.63735C59.8876 7.42836 59.8876 8.15058 59.8876 8.9072C59.1657 8.9072 58.4781 8.9072 57.8249 8.9072C57.8249 10.386 57.8249 11.7961 57.8249 13.2061C58.5469 13.2061 59.2001 13.2061 59.922 13.2061C59.922 12.4839 59.922 11.7961 59.922 11.0395C60.7127 11.0739 61.4003 11.1083 62.0879 11.177C62.1566 11.8305 62.191 12.5183 62.2254 13.2749C62.9817 13.2749 63.6349 13.2749 64.3568 13.2749C64.3568 14.0659 64.3568 14.7881 64.3568 15.5792C63.6349 15.5792 62.9817 15.5792 62.2598 15.5792C62.2598 17.058 62.2598 18.468 62.2598 19.8781C62.9817 19.8781 63.6349 19.8781 64.3912 19.8781C64.3912 19.1559 64.3912 18.4337 64.3912 17.7458C65.1819 17.7458 65.8695 17.7458 66.5571 17.7458C66.5571 18.5024 66.5571 19.2247 66.5571 20.0501C65.8351 20.0501 65.1476 20.0501 64.3912 20.0501C64.3912 20.8067 64.3912 21.4945 64.3912 22.2511C63.6349 22.2511 62.9473 22.2511 62.2598 22.2511C62.2598 23.0077 62.2598 23.6268 62.2598 24.349C62.9817 24.349 63.6693 24.349 64.3912 24.349C64.3912 25.14 64.3912 25.8278 64.3912 26.5501L64.3225 26.6188C63.6349 26.6188 62.913 26.6188 62.1222 26.6188C62.1222 25.8622 62.1222 25.1744 62.1222 24.521C61.3659 24.521 60.7127 24.521 59.922 24.521C59.922 25.9998 59.922 27.4098 59.922 28.8199C59.7845 28.8543 59.647 28.8887 59.5095 28.8887C57.653 28.9575 57.653 28.9575 57.8249 30.849C57.8249 30.8834 57.8593 30.9522 57.8937 30.9866C58.5469 30.9866 59.2344 30.9866 59.8876 30.9866C59.8876 30.1956 59.8876 29.5077 59.8876 28.7855C60.644 28.7855 61.4003 28.7855 62.2254 28.7855C62.2254 29.6453 62.2254 30.3331 62.2254 31.0897C62.9817 31.0897 63.6693 31.0897 64.3568 31.0897C64.3568 31.8807 64.3568 32.5686 64.3568 33.3596C62.1566 33.3596 59.9908 33.3596 57.8249 33.3596C57.8249 34.8728 57.8249 36.2485 57.8249 37.6929C58.5125 37.6929 59.1657 37.6929 59.922 37.6929C59.922 36.9707 59.922 36.2829 59.922 35.595C60.7471 35.595 61.4347 35.595 62.2254 35.595C62.2254 36.3172 62.2254 37.0051 62.2254 37.6929C62.9817 37.6929 63.6349 37.6929 64.3912 37.6929C64.3912 36.9363 64.3912 36.2829 64.3912 35.595C65.1819 35.595 65.8695 35.595 66.5915 35.595C66.5915 37.1083 66.5915 38.5183 66.5915 40.0659C65.8351 40.0659 65.1819 40.0659 64.4256 40.0659C64.4256 40.6162 64.46 41.0633 64.4256 41.5104C64.3568 42.095 64.6319 42.2326 65.1819 42.2326C66.3852 42.1982 67.5884 42.1982 68.7917 42.1982C69.5136 42.1982 70.27 42.1982 71.095 42.1982C71.095 41.4072 71.095 40.7538 71.095 40.0659L71.1294 40.0315C72.5733 40.0315 74.0172 40.0315 75.5643 40.0315C75.5643 39.1717 75.5643 38.5183 75.5643 37.8305C76.2518 37.8305 76.9394 37.8305 77.6613 37.8305C77.6613 37.0395 77.6613 36.3516 77.6613 35.6638C76.9394 35.6638 76.2862 35.6638 75.5986 35.6638C75.5986 36.4204 75.5986 37.1426 75.5986 37.8649C74.8767 37.8649 74.1204 37.8649 73.364 37.8649C73.364 37.0395 73.364 36.3516 73.364 35.5606C74.086 35.5606 74.7736 35.5606 75.4611 35.5606C75.4611 34.804 75.4611 34.1506 75.4611 33.3596C74.7392 33.3596 74.0516 33.3596 73.3297 33.3596C73.3297 31.812 73.3297 30.4019 73.3297 28.8543C76.2862 28.8543 79.2084 28.8543 82.0962 28.8543C82.0962 28.0977 82.0962 27.4786 82.0962 26.722C81.3742 26.722 80.6867 26.722 79.9303 26.722C79.9303 25.9654 79.9303 25.2776 79.9303 24.5553C79.174 24.5553 78.5552 24.5553 77.7989 24.5553C77.7989 25.2776 77.7989 25.931 77.7989 26.6532C76.9738 26.6532 76.2862 26.6532 75.4955 26.6532C75.4955 24.4522 75.4955 22.3199 75.4955 20.1532C74.7392 20.1532 74.086 20.1532 73.3297 20.1532C73.3297 22.3887 73.3297 24.521 73.3297 26.7564C72.5389 26.7564 71.8857 26.7564 71.1294 26.7564C71.1294 28.2696 71.1294 29.6797 71.1294 31.0897C70.3387 31.0897 69.6512 31.0897 68.9636 31.0897C68.9636 28.8543 68.9636 26.6532 68.9636 24.3834C69.7199 24.3834 70.3731 24.3834 71.0607 24.3834C71.0607 23.6612 71.0607 23.0077 71.0607 22.2855C70.3387 22.2855 69.6511 22.2855 68.8948 22.2855C68.8948 20.0501 68.8948 17.8834 68.8948 15.6135C68.1041 15.6135 67.4165 15.6135 66.7634 15.6135C66.7634 14.0659 66.7634 12.6215 66.7634 11.0739C67.5197 11.0739 68.1729 11.0739 68.8604 11.0739C68.8604 10.3516 68.8604 9.6982 68.8604 8.94159C68.1041 8.94159 67.4165 8.94159 66.6602 8.94159C66.6602 8.15058 66.6602 7.49714 66.6602 6.77492C65.9039 6.77492 65.2507 6.77492 64.4944 6.77492C64.4944 8.25376 64.4944 9.66381 64.4944 11.1083C63.5661 11.1083 62.8098 11.1426 62.0879 11.177ZM11.1732 53.2379C12.6859 53.2379 14.0954 53.2379 15.5393 53.2379C15.5393 54.0289 15.5393 54.7167 15.5393 55.5421C14.8174 55.5421 14.0954 55.5421 13.4078 55.5421C13.4078 56.2987 13.4078 56.9522 13.4078 57.7088C14.1642 57.7088 14.8517 57.7088 15.6081 57.7088C15.6081 58.4998 15.6081 59.1532 15.6081 59.8755C16.33 59.8755 16.9832 59.8755 17.7052 59.8755C17.7052 59.1532 17.7052 58.431 17.7052 57.7432C18.5303 57.7432 19.2178 57.7432 20.0429 57.7432C20.0429 58.4998 20.0429 59.1876 20.0429 59.9442C20.8336 59.9442 21.4868 59.9442 22.2431 59.9442C22.2431 60.7008 22.2431 61.3887 22.2431 62.0765C22.9995 62.0765 23.6527 62.0765 24.3058 62.0765C24.3058 60.6321 24.3058 59.222 24.3058 57.7432C23.5839 57.7432 22.8963 57.7432 22.1056 57.7432C22.1056 56.9866 22.1056 56.2643 22.1056 55.5077C21.3149 55.5077 20.6273 55.5077 19.9741 55.5077C19.9741 54.7167 19.9741 54.0289 19.9741 53.2035C20.7305 53.2035 21.418 53.2035 22.0712 53.2035C22.0712 52.4469 22.0712 51.7934 22.0712 51.1056C21.3493 51.1056 20.6617 51.1056 19.871 51.1056C19.871 50.349 19.871 49.6268 19.871 48.9733C19.1147 48.9733 18.4615 48.9733 17.7739 48.9733C17.7739 49.6956 17.7739 50.3834 17.7739 51.1744C15.5049 51.1744 13.3391 51.1744 11.1732 51.1744C11.1732 51.8622 11.1732 52.4813 11.1732 53.2379ZM42.1483 62.1453C42.1483 63.6585 42.1483 65.103 42.1483 66.6506C41.392 66.6506 40.7044 66.6506 40.0168 66.6506C40.0168 67.4072 40.0168 68.0606 40.0168 68.7485C41.4607 68.7485 42.8359 68.7485 44.3485 68.7485C44.3485 67.2696 44.3485 65.8596 44.3485 64.312C45.1392 64.312 45.8268 64.312 46.48 64.312C46.48 63.5553 46.48 62.9019 46.48 62.1109C45.7237 62.1109 45.0705 62.1109 44.3142 62.1109C44.3142 60.5977 44.3142 59.222 44.3142 57.812C43.5578 57.812 42.9046 57.812 42.1483 57.812C42.1483 58.5686 42.1483 59.222 42.1483 59.9786C40.6357 59.9786 39.2261 59.9786 37.7822 59.9786C37.7822 61.4575 37.7822 62.8675 37.7822 64.312C38.5042 64.312 39.123 64.312 39.9137 64.312C39.9137 63.5897 39.9137 62.8675 39.9137 62.1453C40.7044 62.1453 41.392 62.1453 42.1483 62.1453ZM79.8616 66.513C79.8616 65.7564 79.8616 65.0686 79.8616 64.312C80.6523 64.312 81.3399 64.312 81.993 64.312C81.993 63.5897 81.993 62.9363 81.993 62.1797C81.2711 62.1797 80.5835 62.1797 79.8272 62.1797C79.8272 61.4231 79.8272 60.7352 79.8272 60.0474C77.5926 60.0474 75.4267 60.0474 73.2953 60.0474C73.2953 61.5262 73.2953 62.9019 73.2953 64.3807C74.7736 64.3807 76.2175 64.3807 77.7301 64.3807C77.7301 65.1717 77.7301 65.8252 77.7301 66.513C78.4864 66.513 79.1052 66.513 79.8616 66.513ZM73.2953 73.3225C73.2953 75.5236 73.2953 77.6559 73.2953 79.8225C75.4955 79.8225 77.627 79.8225 79.7584 79.8225C79.7584 77.6215 79.7584 75.4892 79.7584 73.3225C77.627 73.3225 75.4955 73.3225 73.2953 73.3225ZM73.2953 51.0024C74.0516 51.0024 74.7392 51.0024 75.4267 51.0024C75.4267 51.8278 75.4267 52.5157 75.4267 53.3411C73.9485 53.3411 72.5046 53.3411 71.095 53.3411C71.095 54.8543 71.095 56.2299 71.095 57.6056C71.817 57.6056 72.4702 57.6056 73.2265 57.6056C73.2265 56.8834 73.2265 56.1956 73.2265 55.4045C74.7392 55.4045 76.1487 55.4045 77.6613 55.4045C77.6613 54.6479 77.6613 53.9601 77.6613 53.2035C78.4177 53.2035 79.1052 53.2035 79.7928 53.2035C79.7928 52.4813 79.7928 51.8278 79.7928 51.0712C79.0709 51.0712 78.3833 51.0712 77.6957 51.0712C77.6613 50.2802 77.627 49.5924 77.5926 48.9045C76.1143 48.9045 74.7048 48.9045 73.2953 48.9045C73.2953 49.6268 73.2953 50.2802 73.2953 51.0024ZM24.5121 44.468C24.5121 47.4257 24.5121 50.2802 24.5121 53.1691C25.2341 53.1691 25.8529 53.1691 26.6092 53.1691C26.6092 52.4469 26.6092 51.7247 26.6092 50.968C27.3999 50.968 28.0531 50.968 28.7751 50.968C28.7751 49.4892 28.7751 48.1135 28.7751 46.6347C28.0187 46.6347 27.3312 46.6347 26.5748 46.6347C26.5748 45.8437 26.5748 45.1903 26.5748 44.468C25.8529 44.468 25.1997 44.468 24.5121 44.468ZM48.7834 55.6109C48.027 55.6109 47.3738 55.6109 46.7207 55.6109C46.7207 57.0553 46.7207 58.4654 46.7207 59.9442C47.477 59.9442 48.1646 59.9442 48.9209 59.9442C48.9209 61.4575 48.9209 62.8675 48.9209 64.312C49.6428 64.312 50.296 64.312 51.018 64.312C51.018 63.5553 51.018 62.8675 51.018 62.1109C51.8087 62.1109 52.4619 62.1109 53.1494 62.1109C53.1494 61.3887 53.1494 60.7008 53.1494 59.9442C52.4275 59.9442 51.7399 59.9442 50.9836 59.9442C50.9836 59.1876 50.9836 58.4998 50.9836 57.7432C50.2273 57.7432 49.5397 57.7432 48.7834 57.7432C48.7834 56.9522 48.7834 56.2987 48.7834 55.6109ZM46.6175 82.1612C45.8956 82.1612 45.1736 82.1612 44.4861 82.1612C44.4861 82.9522 44.4861 83.5712 44.4861 84.259C45.93 84.259 47.3051 84.259 48.7146 84.259C48.7146 81.3358 48.7146 78.4469 48.7146 75.558C47.9927 75.558 47.3395 75.558 46.6175 75.558C46.6175 76.3146 46.6175 77.0024 46.6175 77.759C45.8612 77.759 45.1736 77.759 44.5204 77.759C44.5204 78.4813 44.5204 79.1691 44.5204 79.8913C45.2768 79.8913 45.93 79.8913 46.6519 79.8913C46.6175 80.6823 46.6175 81.3358 46.6175 82.1612ZM31.0097 8.94159C28.8094 8.94159 26.6436 8.94159 24.5121 8.94159C24.5121 9.66381 24.5121 10.2829 24.5121 11.0395C25.9904 11.0395 27.3655 11.0395 28.8782 11.0395C28.8782 12.5527 28.8782 13.9628 28.8782 15.4072C29.6345 15.4072 30.3221 15.4072 31.0097 15.4072C31.0097 13.2405 31.0097 11.1426 31.0097 8.94159ZM11.2076 26.6876C11.2076 28.1665 11.2076 29.5765 11.2076 30.9522C14.1298 30.9522 17.0176 30.9522 19.871 30.9522C19.871 30.2299 19.871 29.5765 19.871 28.7855C17.6364 28.7855 15.5049 28.7855 13.3391 28.7855C13.3047 28.0289 13.2703 27.3411 13.236 26.6532C12.4796 26.6876 11.8264 26.6876 11.2076 26.6876ZM33.3474 11.177C33.3474 12.6215 33.3474 13.9971 33.3474 15.4416C34.0694 15.4416 34.7225 15.4416 35.4789 15.4416C35.4789 14.7194 35.4789 14.0315 35.4789 13.3437C36.2696 13.3437 36.9915 13.3437 37.7479 13.3437C37.7479 14.0659 37.7479 14.7538 37.7479 15.4416C38.5042 15.4416 39.1574 15.4416 39.8449 15.4416C39.8449 13.9971 39.8449 12.5871 39.8449 11.2114C37.6791 11.177 35.5476 11.177 33.3474 11.177ZM55.4528 17.6426C56.9998 17.6426 58.4094 17.6426 59.8533 17.6426C59.8533 16.9204 59.8533 16.267 59.8533 15.5448C59.1313 15.5448 58.4094 15.5448 57.6187 15.5448C57.6187 14.7538 57.6187 14.0659 57.6187 13.4125C56.8623 13.4125 56.2435 13.4125 55.5216 13.4125C55.5216 14.1347 55.5216 14.8225 55.5216 15.6135C54.7652 15.6135 54.0433 15.6135 53.3901 15.6135C53.3901 17.0924 53.3901 18.5024 53.3901 19.8781C54.112 19.8781 54.7309 19.8781 55.4528 19.8781C55.4528 19.1215 55.4528 18.468 55.4528 17.6426ZM53.3557 84.259C56.3123 84.259 59.1657 84.259 62.0879 84.259C62.0879 83.5712 62.0879 82.9178 62.0879 82.1612C60.6096 82.1612 59.1657 82.1612 57.653 82.1612C57.653 81.3702 57.653 80.6823 57.653 79.9945C56.8967 79.9945 56.2779 79.9945 55.5559 79.9945C55.5559 80.7167 55.5559 81.4045 55.5559 82.1956C54.7996 82.1956 54.0777 82.1956 53.3901 82.1956C53.3557 82.9522 53.3557 83.5712 53.3557 84.259ZM28.8094 35.5606C28.0531 35.5606 27.4343 35.5606 26.7123 35.5606C26.7123 37.0051 26.7123 38.4151 26.7123 39.8252C28.9126 39.8252 31.0784 39.8252 33.2099 39.8252C33.2099 39.103 33.2099 38.4495 33.2099 37.6929C31.7316 37.6929 30.2877 37.6929 28.8094 37.6929C28.8094 36.9363 28.8094 36.3172 28.8094 35.5606ZM37.7822 53.3754C37.7822 54.8199 37.7822 56.1956 37.7822 57.6056C39.2261 57.6056 40.6357 57.6056 42.0796 57.6056C42.0796 56.1612 42.0796 54.7855 42.0796 53.3754C40.67 53.3754 39.2605 53.3754 37.7822 53.3754ZM22.0712 22.1135C22.0712 20.6003 22.0712 19.2247 22.0712 17.8146C21.3493 17.8146 20.7305 17.8146 19.9741 17.8146C19.9741 18.5712 19.9741 19.259 19.9741 20.0157C19.1834 20.0157 18.5303 20.0157 17.8427 20.0157C17.8427 21.4945 17.8427 22.8702 17.8427 24.2458C18.5646 24.2458 19.2178 24.2458 19.9398 24.2458C19.9398 23.4892 19.9398 22.8358 19.9398 22.0792C20.6961 22.1135 21.3837 22.1135 22.0712 22.1135ZM44.2798 75.386C44.2798 73.9072 44.2798 72.4971 44.2798 71.1215C43.5578 71.1215 42.8703 71.1215 42.1483 71.1215C42.1483 71.8781 42.1483 72.5315 42.1483 73.3225C41.392 73.3225 40.7044 73.3225 39.9825 73.3225C39.9825 74.0791 39.9825 74.6982 39.9825 75.4204C41.4264 75.386 42.8015 75.386 44.2798 75.386ZM86.4279 70.9495C86.4279 69.5051 86.4279 68.095 86.4279 66.6506C84.984 66.6506 83.6088 66.6506 82.1993 66.6506C82.1993 67.3728 82.1993 68.0606 82.1993 68.7829C82.9213 68.7829 83.6088 68.7829 84.3652 68.7829C84.3652 69.5395 84.3652 70.2273 84.3652 70.9151C85.1215 70.9495 85.7747 70.9495 86.4279 70.9495ZM22.2775 64.4495C22.2775 65.9284 22.2775 67.304 22.2775 68.7485C23.7214 68.7485 25.1309 68.7485 26.5061 68.7485C26.5061 68.0262 26.5061 67.3384 26.5061 66.6162C25.7497 66.6162 25.0966 66.6162 24.3402 66.6162C24.3402 65.8596 24.3402 65.2061 24.3402 64.4839C23.6183 64.4495 22.9995 64.4495 22.2775 64.4495ZM17.6364 35.5606C16.9488 35.5606 16.2956 35.5606 15.5393 35.5606C15.5393 36.2829 15.5393 37.0051 15.5393 37.7617C14.7486 37.7617 14.0954 37.7617 13.3735 37.7617C13.3735 38.5183 13.3735 39.1717 13.3735 39.8596C14.8174 39.8596 16.1925 39.8596 17.602 39.8596C17.6364 38.4151 17.6364 37.0051 17.6364 35.5606ZM57.6187 42.2326C56.1748 42.2326 54.7996 42.2326 53.3901 42.2326C53.3901 42.9548 53.3901 43.6082 53.3901 44.3649C54.112 44.3649 54.7996 44.3649 55.5559 44.3649C55.5559 45.1215 55.5559 45.8093 55.5559 46.4971C56.3123 46.4971 56.9311 46.4971 57.6187 46.4971C57.6187 45.0871 57.6187 43.7114 57.6187 42.2326ZM51.1211 75.5236C51.1211 77.0024 51.1211 78.3781 51.1211 79.7881C51.8431 79.7881 52.4963 79.7881 53.2526 79.7881C53.2526 79.0315 53.2526 78.3781 53.2526 77.6215C54.0089 77.6215 54.6965 77.6215 55.3497 77.6215C55.3497 76.8649 55.3497 76.2114 55.3497 75.5236C53.9402 75.5236 52.565 75.5236 51.1211 75.5236ZM50.9148 75.386C50.9148 73.1506 50.9148 71.0183 50.9148 68.886C50.1929 68.886 49.5741 68.886 48.9209 68.886C48.9209 71.0871 48.9209 73.2194 48.9209 75.386C49.5741 75.386 50.2273 75.386 50.9148 75.386ZM62.0191 22.1479C62.0191 21.4257 62.0191 20.7379 62.0191 20.0844C59.8189 20.0844 57.6874 20.0844 55.5559 20.0844C55.5559 20.8067 55.5559 21.4257 55.5559 22.0792C55.7278 22.1135 55.831 22.1135 55.9341 22.1135C57.9624 22.1479 59.9564 22.1479 62.0191 22.1479ZM57.6187 26.5501C57.6187 25.7934 57.6187 25.1744 57.6187 24.4178C56.8623 24.4178 56.1748 24.4178 55.4184 24.4178C55.4184 23.6268 55.4184 22.9733 55.4184 22.3199C54.6965 22.3199 54.0433 22.3199 53.3901 22.3199C53.3901 23.7643 53.3901 25.14 53.3901 26.5844C54.7996 26.5501 56.1748 26.5501 57.6187 26.5501ZM84.4339 86.5289C84.4339 87.3543 84.4339 88.0077 84.4339 88.6955C85.1559 88.6955 85.8091 88.6955 86.4623 88.6955C86.4623 87.2511 86.4623 85.8411 86.4623 84.4654C85.0184 84.4654 83.6432 84.4654 82.2337 84.4654C82.2337 85.1876 82.2337 85.8067 82.2337 86.5289C82.9556 86.5289 83.6088 86.5289 84.4339 86.5289ZM20.0773 24.4866C20.0773 25.2088 20.0773 25.8966 20.0773 26.6188C20.7992 26.6188 21.4868 26.6188 22.2431 26.6188C22.2431 27.3755 22.2431 28.0633 22.2431 28.7511C22.9995 28.7511 23.6527 28.7511 24.3058 28.7511C24.3058 27.3067 24.3058 25.8966 24.3058 24.4866C22.8963 24.4866 21.5212 24.4866 20.0773 24.4866ZM66.4883 4.36751C66.4883 3.6109 66.4883 2.99185 66.4883 2.30402C65.0444 2.30402 63.6349 2.30402 62.2254 2.30402C62.2254 3.02624 62.2254 3.67968 62.2254 4.36751C63.6693 4.36751 65.0444 4.36751 66.4883 4.36751ZM68.8604 2.26963C68.8604 3.74847 68.8604 5.12413 68.8604 6.63735C69.4449 6.63735 70.0293 6.67175 70.5794 6.60296C70.7169 6.60296 70.9575 6.32783 70.9919 6.19026C71.0263 4.88339 71.0263 3.6109 71.0263 2.26963C70.2356 2.26963 69.5824 2.26963 68.8604 2.26963ZM17.8427 35.4231C19.2866 35.4231 20.6617 35.4231 22.0712 35.4231C22.0712 34.7008 22.0712 34.0474 22.0712 33.3252C20.6273 33.3252 19.2522 33.3252 17.8427 33.3252C17.8427 34.0474 17.8427 34.7008 17.8427 35.4231ZM53.3901 68.8516C53.3901 69.6083 53.3901 70.2617 53.3901 70.9495C54.834 70.9495 56.2435 70.9495 57.5843 70.9495C57.5843 70.2273 57.5843 69.5395 57.5843 68.8516C56.1748 68.8516 54.7996 68.8516 53.3901 68.8516ZM68.8948 11.1426C68.8948 12.6215 68.8948 13.9971 68.8948 15.3728C69.6168 15.3728 70.3043 15.3728 70.9575 15.3728C70.9575 13.894 70.9575 12.5183 70.9575 11.1426C70.2356 11.1426 69.5824 11.1426 68.8948 11.1426ZM70.9232 53.1691C70.9232 51.6903 70.9232 50.3146 70.9232 48.9389C70.2012 48.9389 69.5136 48.9389 68.8604 48.9389C68.8604 50.3834 68.8604 51.7934 68.8604 53.1691C69.5824 53.1691 70.2356 53.1691 70.9232 53.1691ZM57.6187 37.7961C56.1404 37.7961 54.7652 37.7961 53.3901 37.7961C53.3901 38.5183 53.3901 39.1717 53.3901 39.8596C54.834 39.8596 56.2091 39.8596 57.6187 39.8596C57.6187 39.1717 57.6187 38.5183 57.6187 37.7961ZM26.5405 31.1241C25.0966 31.1241 23.7214 31.1241 22.2775 31.1241C22.2775 31.8463 22.2775 32.4998 22.2775 33.1876C23.7214 33.1876 25.0966 33.1876 26.5405 33.1876C26.5405 32.5342 26.5405 31.8807 26.5405 31.1241ZM8.97302 53.3411C8.97302 54.7855 8.97302 56.1956 8.97302 57.6056C9.69497 57.6056 10.3138 57.6056 11.0014 57.6056C11.0014 56.1612 11.0014 54.7511 11.0014 53.3411C10.2794 53.3411 9.62621 53.3411 8.97302 53.3411ZM84.2277 55.4045C84.2277 54.6823 84.2277 54.0289 84.2277 53.3754C82.7838 53.3754 81.3742 53.3754 79.9991 53.3754C79.9991 54.0977 79.9991 54.7511 79.9991 55.4045C81.443 55.4045 82.7838 55.4045 84.2277 55.4045ZM17.6364 26.5501C17.6364 25.8278 17.6364 25.1744 17.6364 24.521C16.1925 24.521 14.783 24.521 13.3735 24.521C13.3735 25.2432 13.3735 25.8622 13.3735 26.5501C14.8174 26.5501 16.1925 26.5501 17.6364 26.5501ZM17.6364 48.7326C17.6364 48.0448 17.6364 47.3569 17.6364 46.7035C16.1925 46.7035 14.8174 46.7035 13.4078 46.7035C13.4078 47.4257 13.4078 48.0448 13.4078 48.7326C14.8174 48.7326 16.1925 48.7326 17.6364 48.7326ZM62.0535 39.894C62.0535 39.1374 62.0535 38.4839 62.0535 37.7617C61.3659 37.7617 60.7127 37.7617 60.0252 37.7617C60.0252 38.4839 60.0252 39.1717 60.0252 39.894C60.7127 39.894 61.3659 39.894 62.0535 39.894ZM62.0535 15.4416C62.0535 14.7194 62.0535 14.0659 62.0535 13.4125C61.3315 13.4125 60.6783 13.4125 59.9908 13.4125C59.9908 14.1003 59.9908 14.7538 59.9908 15.4416C60.7127 15.4416 61.3315 15.4416 62.0535 15.4416ZM44.4517 11.0051C45.1392 11.0051 45.7924 11.0051 46.48 11.0051C46.48 10.2829 46.48 9.62942 46.48 8.94159C45.7581 8.94159 45.1049 8.94159 44.4517 8.94159C44.4517 9.59503 44.4517 10.2485 44.4517 11.0051ZM15.4018 35.4575C15.4018 34.7352 15.4018 34.0474 15.4018 33.3596C14.6799 33.3596 14.061 33.3596 13.4078 33.3596C13.4078 34.0818 13.4078 34.7352 13.4078 35.4575C14.0954 35.4575 14.7142 35.4575 15.4018 35.4575ZM51.1555 66.6506C51.1555 67.3728 51.1555 68.0262 51.1555 68.7485C51.8431 68.7485 52.4963 68.7485 53.1838 68.7485C53.1838 68.0262 53.1838 67.3728 53.1838 66.6506C52.4619 66.6506 51.8431 66.6506 51.1555 66.6506ZM42.2514 15.3728C42.9734 15.3728 43.661 15.3728 44.2798 15.3728C44.2798 14.6506 44.2798 13.9971 44.2798 13.3781C43.5578 13.3781 42.9046 13.3781 42.2514 13.3781C42.2514 14.0659 42.2514 14.7194 42.2514 15.3728ZM71.095 17.8146C71.095 18.5712 71.095 19.1903 71.095 19.8093C71.817 19.8093 72.4702 19.8093 73.1578 19.8093C73.1578 19.0871 73.1578 18.468 73.1578 17.8146C72.4358 17.8146 71.7826 17.8146 71.095 17.8146ZM15.4362 60.013C14.7142 60.013 14.061 60.013 13.4078 60.013C13.4078 60.7352 13.4078 61.3887 13.4078 62.0765C14.0954 62.0765 14.7486 62.0765 15.4362 62.0765C15.4362 61.3887 15.4362 60.7352 15.4362 60.013ZM68.8604 59.8067C69.6168 59.8067 70.3043 59.8067 70.9575 59.8067C70.9575 59.0844 70.9575 58.4654 70.9575 57.812C70.2356 57.812 69.5824 57.812 68.8604 57.812C68.8604 58.4998 68.8604 59.1532 68.8604 59.8067ZM35.582 57.7776C35.582 58.5342 35.582 59.1532 35.582 59.8067C36.304 59.8067 36.9915 59.8067 37.6447 59.8067C37.6447 59.0844 37.6447 58.4654 37.6447 57.7776C36.9228 57.7776 36.304 57.7776 35.582 57.7776ZM70.9575 88.6955C70.9575 87.9733 70.9575 87.3199 70.9575 86.6665C70.2356 86.6665 69.5824 86.6665 68.8948 86.6665C68.8948 87.3887 68.8948 88.0077 68.8948 88.6955C69.5824 88.6955 70.2356 88.6955 70.9575 88.6955ZM55.5559 33.222C56.2779 33.222 56.9311 33.222 57.5843 33.222C57.5843 32.4998 57.5843 31.8463 57.5843 31.1585C56.8967 31.1585 56.2435 31.1585 55.5559 31.1585C55.5559 31.8463 55.5559 32.4998 55.5559 33.222ZM75.5299 82.2299C75.5299 82.9522 75.5299 83.5712 75.5299 84.259C76.2174 84.259 76.905 84.259 77.5926 84.259C77.5926 83.5712 77.5926 82.9178 77.5926 82.2299C76.905 82.2299 76.2518 82.2299 75.5299 82.2299ZM40.0168 82.2299C40.0168 82.9866 40.0168 83.6056 40.0168 84.259C40.7388 84.259 41.3576 84.259 42.0452 84.259C42.0452 83.5712 42.0452 82.8834 42.0452 82.2299C41.3576 82.2299 40.7044 82.2299 40.0168 82.2299ZM51.1555 39.9971C51.1555 40.7194 51.1555 41.4072 51.1555 42.095C51.8431 42.095 52.4963 42.095 53.1494 42.095C53.1494 41.3728 53.1494 40.7194 53.1494 39.9971C52.4619 39.9971 51.8431 39.9971 51.1555 39.9971ZM82.1993 71.0871C82.1993 71.8093 82.1993 72.4628 82.1993 73.185C82.8869 73.185 83.5401 73.185 84.2277 73.185C84.2277 72.4628 84.2277 71.8093 84.2277 71.0871C83.5401 71.0871 82.8869 71.0871 82.1993 71.0871ZM57.5843 75.4204C57.5843 74.6638 57.5843 74.0104 57.5843 73.3569C56.8623 73.3569 56.2435 73.3569 55.5903 73.3569C55.5903 74.0792 55.5903 74.7326 55.5903 75.4204C56.2779 75.4204 56.8967 75.4204 57.5843 75.4204ZM11.0014 50.968C11.0014 50.2458 11.0014 49.5924 11.0014 48.9389C10.2794 48.9389 9.62621 48.9389 8.97302 48.9389C8.97302 49.6612 8.97302 50.2802 8.97302 50.968C9.62621 50.968 10.245 50.968 11.0014 50.968ZM57.8249 40.0315C57.8249 40.7538 57.8249 41.4072 57.8249 42.095C58.5469 42.095 59.2001 42.095 59.8189 42.095C59.8189 41.3728 59.8189 40.685 59.8189 40.0315C59.0969 40.0315 58.4781 40.0315 57.8249 40.0315ZM59.9908 46.6691C59.9908 47.3913 59.9908 48.0448 59.9908 48.6982C60.7127 48.6982 61.3659 48.6982 62.0535 48.6982C62.0535 47.976 62.0535 47.3569 62.0535 46.6691C61.3659 46.6691 60.7127 46.6691 59.9908 46.6691ZM53.1494 33.222C53.1494 32.4654 53.1494 31.812 53.1494 31.1585C52.4275 31.1585 51.8087 31.1585 51.1899 31.1585C51.1899 31.8807 51.1899 32.5686 51.1899 33.222C51.8774 33.222 52.4963 33.222 53.1494 33.222ZM20.0429 48.7326C20.7649 48.7326 21.418 48.7326 22.0712 48.7326C22.0712 48.0104 22.0712 47.3569 22.0712 46.7379C21.3493 46.7379 20.6961 46.7379 20.0429 46.7379C20.0429 47.3913 20.0429 48.0104 20.0429 48.7326ZM53.1494 13.4125C52.4275 13.4125 51.7743 13.4125 51.1211 13.4125C51.1211 14.1347 51.1211 14.7538 51.1211 15.4072C51.8087 15.4072 52.4619 15.4072 53.1494 15.4072C53.1494 14.7194 53.1494 14.0659 53.1494 13.4125ZM20.0773 13.3781C20.0773 14.1003 20.0773 14.7538 20.0773 15.4416C20.7649 15.4416 21.418 15.4416 22.1056 15.4416C22.1056 14.7194 22.1056 14.0659 22.1056 13.3781C21.3837 13.3781 20.7649 13.3781 20.0773 13.3781ZM84.2277 82.058C84.2277 81.3014 84.2277 80.6823 84.2277 80.0289C83.5401 80.0289 82.8869 80.0289 82.2337 80.0289C82.2337 80.7511 82.2337 81.4045 82.2337 82.058C82.9213 82.058 83.5401 82.058 84.2277 82.058ZM24.4777 15.4072C25.1997 15.4072 25.8873 15.4072 26.5405 15.4072C26.5405 14.685 26.5405 14.0659 26.5405 13.4125C25.8185 13.4125 25.1653 13.4125 24.4777 13.4125C24.4777 14.0659 24.4777 14.685 24.4777 15.4072ZM82.0274 48.9389C81.3055 48.9389 80.6523 48.9389 79.9991 48.9389C79.9991 49.6612 79.9991 50.2802 79.9991 50.9337C80.6867 50.9337 81.3399 50.9337 82.0274 50.9337C82.0274 50.2458 82.0274 49.6268 82.0274 48.9389ZM79.9647 84.259C80.6867 84.259 81.3399 84.259 82.0274 84.259C82.0274 83.5712 82.0274 82.9178 82.0274 82.2643C81.3055 82.2643 80.6523 82.2643 79.9647 82.2643C79.9647 82.9178 79.9647 83.5368 79.9647 84.259ZM88.6625 84.259C88.6625 83.5024 88.6625 82.8834 88.6625 82.2299C87.9405 82.2299 87.3217 82.2299 86.6341 82.2299C86.6341 82.9178 86.6341 83.5712 86.6341 84.259C87.3561 84.259 87.9749 84.259 88.6625 84.259ZM46.5144 55.4045C46.5144 54.6823 46.5144 54.0289 46.5144 53.3754C45.7924 53.3754 45.1392 53.3754 44.4861 53.3754C44.4861 54.0977 44.4861 54.7167 44.4861 55.4045C45.1392 55.4045 45.7924 55.4045 46.5144 55.4045ZM13.2016 59.8411C13.2016 59.1188 13.2016 58.4998 13.2016 57.812C12.4796 57.812 11.8264 57.812 11.1389 57.812C11.1389 58.5342 11.1389 59.1532 11.1389 59.8411C11.8608 59.8411 12.4796 59.8411 13.2016 59.8411ZM24.3402 15.6135C23.6183 15.6135 22.9651 15.6135 22.2775 15.6135C22.2775 16.3014 22.2775 16.9548 22.2775 17.6083C22.9995 17.6083 23.6527 17.6083 24.3402 17.6083C24.3402 16.9204 24.3402 16.3014 24.3402 15.6135ZM79.8272 86.6665C79.0709 86.6665 78.4521 86.6665 77.7989 86.6665C77.7989 87.3887 77.7989 88.0421 77.7989 88.6955C78.5208 88.6955 79.1396 88.6955 79.8272 88.6955C79.8272 88.0077 79.8272 87.3543 79.8272 86.6665Z" fill="white"/>
<path d="M15.4363 0C15.4363 5.15873 15.4363 10.2487 15.4363 15.4074C10.2795 15.4074 5.19145 15.4074 0.034668 15.4074C0.034668 10.2831 0.034668 5.15873 0.034668 0C5.15707 0 10.2795 0 15.4363 0ZM13.236 2.23545C9.52315 2.23545 5.87902 2.23545 2.23489 2.23545C2.23489 5.91534 2.23489 9.52645 2.23489 13.172C5.9134 13.172 9.55752 13.172 13.236 13.172C13.236 9.52645 13.236 5.91534 13.236 2.23545Z" fill="white"/>
<path d="M90.8972 15.4418C85.7404 15.4418 80.6524 15.4418 75.4956 15.4418C75.4956 10.2831 75.4956 5.15873 75.4956 0C80.618 0 85.7404 0 90.8972 0C90.8972 5.12434 90.8972 10.2487 90.8972 15.4418ZM77.6958 13.2063C81.3743 13.2063 85.0185 13.2063 88.6626 13.2063C88.6626 9.52646 88.6626 5.91534 88.6626 2.23545C84.9841 2.23545 81.34 2.23545 77.6958 2.23545C77.6958 5.91534 77.6958 9.52646 77.6958 13.2063Z" fill="white"/>
<path d="M0 90.8969C0 85.7382 0 80.6483 0 75.5239C5.1224 75.5239 10.2448 75.5239 15.4016 75.5239C15.4016 80.6139 15.4016 85.7382 15.4016 90.8969C10.3136 90.8969 5.19116 90.8969 0 90.8969ZM13.2014 77.725C9.52286 77.725 5.87873 77.725 2.23461 77.725C2.23461 81.4049 2.23461 85.016 2.23461 88.6959C5.91311 88.6959 9.55723 88.6959 13.2014 88.6959C13.2014 85.016 13.2014 81.4049 13.2014 77.725Z" fill="white"/>
<path d="M84.3306 22.1826C84.3306 20.6694 84.3306 19.2249 84.3306 17.7461C86.5652 17.7461 88.731 17.7461 91 17.7461C91 19.2249 91 20.6694 91 22.1826C88.7654 22.1826 86.5996 22.1826 84.3306 22.1826Z" fill="white"/>
<path d="M2.23506 35.4921C3.64458 35.4921 5.0541 35.4921 6.60114 35.4921C6.60114 34.0133 6.60114 32.5688 6.60114 30.9868C7.42622 30.9868 8.14817 30.9868 8.9045 30.9868L8.93888 31.0212C8.93888 33.2223 8.93888 35.3889 8.93888 37.6932C6.66989 37.6932 4.43529 37.6932 2.23506 37.6932L2.20068 37.6588C2.20068 36.9709 2.20068 36.2487 2.23506 35.4921Z" fill="white"/>
<path d="M2.23489 53.2379C3.0256 53.2379 3.67879 53.2379 4.40074 53.2379C4.40074 54.0289 4.40074 54.7168 4.40074 55.4734C3.67879 55.4734 2.95684 55.4734 2.20052 55.4734C2.20052 54.7856 2.20052 54.1321 2.20052 53.3755C1.44419 53.3411 0.756617 53.3067 0.034668 53.2723C0.034668 51.0369 0.034668 48.8702 0.034668 46.6348C0.756617 46.6348 1.44419 46.6348 2.23489 46.6348C2.23489 48.8014 2.23489 50.9681 2.23489 53.2379Z" fill="white"/>
<path d="M91 39.9284C90.2437 39.9284 89.5218 39.9284 88.7998 39.9284C88.7998 37.7273 88.7998 35.5606 88.7998 33.3252C89.5218 33.3252 90.2437 33.3252 91 33.3252C91 35.5263 91 37.7273 91 39.9284Z" fill="white"/>
<path d="M51.0179 6.63735C50.2959 6.63735 49.6084 6.63735 48.8521 6.63735C48.8521 4.4363 48.8521 2.26963 48.8521 0.0341797C49.5396 0.0341797 50.2616 0.0341797 51.0179 0.0341797C51.0179 2.16645 51.0179 4.36751 51.0179 6.63735Z" fill="white"/>
<path d="M2.20023 37.7275C2.20023 38.4154 2.20023 39.1032 2.20023 39.8598C2.95655 39.8598 3.60975 39.8598 4.36607 39.8598C4.36607 40.6508 4.36607 41.3387 4.36607 42.1297C2.95655 42.1297 1.51266 42.1297 0 42.1297C0 40.7196 0 39.2752 0 37.7275C0.721949 37.7275 1.47828 37.7275 2.20023 37.7275Z" fill="white"/>
<path d="M42.1826 2.16667C42.1826 1.41005 42.1826 0.722222 42.1826 0C43.6609 0 45.1048 0 46.5831 0C46.5831 0.722222 46.5831 1.41005 46.5831 2.16667C45.1392 2.16667 43.6953 2.16667 42.1826 2.16667Z" fill="white"/>
<path d="M15.5391 71.0527C15.5391 71.8437 15.5391 72.4972 15.5391 73.2194C14.8171 73.2194 14.0952 73.2194 13.3389 73.2194C13.3389 72.4972 13.3389 71.8093 13.3389 71.0527C14.0608 71.0527 14.7828 71.0527 15.5391 71.0527Z" fill="white"/>
<path d="M75.53 42.1641C76.2519 42.1641 76.9395 42.1641 77.6958 42.1641C77.6958 42.9207 77.6958 43.6429 77.6958 44.3651C76.9395 44.3651 76.2519 44.3651 75.4956 44.3651C75.4956 43.6085 75.4956 42.9207 75.4956 42.1985L75.53 42.1641Z" fill="white"/>
<path d="M11.1043 71.0874C11.1043 71.8096 11.1043 72.4975 11.1043 73.2197C10.3824 73.2197 9.6948 73.2197 8.93848 73.2197C8.93848 72.5318 8.93848 71.844 8.93848 71.0874C9.59167 71.0874 10.3136 71.0874 11.1043 71.0874Z" fill="white"/>
<path d="M4.50391 71.0527C5.26023 71.0527 5.9478 71.0527 6.63538 71.0527C6.63538 71.8093 6.63538 72.4972 6.63538 73.2194C5.91343 73.2194 5.19148 73.2194 4.50391 73.2194C4.50391 72.4628 4.50391 71.7406 4.50391 71.0527Z" fill="white"/>
<path d="M2.20052 35.5263C1.47857 35.5263 0.790996 35.5263 0.034668 35.5263C0.034668 34.7696 0.034668 34.0818 0.034668 33.3252C0.722239 33.3252 1.40981 33.3252 2.23489 33.3252C2.23489 34.0474 2.23489 34.7696 2.20052 35.5263C2.23489 35.4919 2.20052 35.5263 2.20052 35.5263Z" fill="white"/>
<path d="M33.2786 2.20106C32.5567 2.20106 31.8691 2.20106 31.1128 2.20106C31.1128 1.44444 31.1128 0.756614 31.1128 0C31.8004 0 32.4879 0 33.313 0C33.2786 0.722222 33.2786 1.44444 33.2786 2.20106C33.2786 2.16667 33.2786 2.20106 33.2786 2.20106Z" fill="white"/>
<path d="M4.46924 66.6162C5.22557 66.6162 5.91314 66.6162 6.63509 66.6162C6.63509 67.3384 6.63509 68.0607 6.63509 68.7829C5.91314 68.7829 5.22557 68.7829 4.46924 68.7829C4.46924 68.0607 4.46924 67.3728 4.46924 66.6162Z" fill="white"/>
<path d="M64.357 26.5503C65.0789 26.5503 65.7665 26.5503 66.5572 26.5503C66.5572 27.3413 66.5572 28.0291 66.5572 28.7857C65.8696 28.7857 65.1821 28.7857 64.3226 28.7857C64.3226 28.0635 64.3226 27.3413 64.3226 26.6191C64.2882 26.6191 64.357 26.5503 64.357 26.5503Z" fill="white"/>
<path d="M71.0262 39.9628C70.3043 39.9628 69.6167 39.9628 68.8604 39.9628C68.8604 39.2062 68.8604 38.5183 68.8604 37.7617C69.5479 37.7617 70.2355 37.7617 71.095 37.7617C71.095 38.4839 71.095 39.2062 71.095 39.9284C71.0606 39.9284 71.0262 39.9628 71.0262 39.9628Z" fill="white"/>
<path d="M31.0786 28.7856C31.0786 28.0634 31.0786 27.3755 31.0786 26.6533C31.8006 26.6533 32.4881 26.6533 33.2445 26.6533C33.2445 27.3412 33.2445 28.029 33.2445 28.7856C32.5569 28.7856 31.8693 28.7856 31.0786 28.7856Z" fill="white"/>
<path d="M75.4956 75.4893C76.2176 75.4893 76.9051 75.4893 77.6614 75.4893C77.6614 76.2115 77.6614 76.9337 77.6614 77.6559C76.9739 77.6559 76.2519 77.6559 75.4956 77.6559C75.4956 77.0025 75.4956 76.2803 75.4956 75.4893Z" fill="white"/>
<path d="M11.0012 11.0051C8.80093 11.0051 6.63509 11.0051 4.46924 11.0051C4.46924 8.80404 4.46924 6.67176 4.46924 4.4707C6.63509 4.4707 8.76656 4.4707 11.0012 4.4707C11.0012 6.60298 11.0012 8.76964 11.0012 11.0051Z" fill="white"/>
<path d="M86.4277 11.0051C84.2619 11.0051 82.1304 11.0051 79.9302 11.0051C79.9302 8.83843 79.9302 6.67176 79.9302 4.4707C82.0616 4.4707 84.2275 4.4707 86.4277 4.4707C86.4277 6.60298 86.4277 8.76964 86.4277 11.0051Z" fill="white"/>
<path d="M11.0358 79.9258C11.0358 82.0924 11.0358 84.2247 11.0358 86.4258C8.86998 86.4258 6.70413 86.4258 4.50391 86.4258C4.50391 84.2935 4.50391 82.1268 4.50391 79.9258C6.601 79.9258 8.76684 79.9258 11.0358 79.9258Z" fill="white"/>
</svg>
