<svg width="215" height="94" viewBox="0 0 215 94" fill="none" xmlns="http://www.w3.org/2000/svg">
<path d="M104.439 10.3799C102.335 10.3799 100.614 12.1099 100.614 14.2245C100.614 16.339 102.335 18.069 104.439 18.069C106.543 18.069 108.265 16.339 108.265 14.2245C108.265 12.1099 106.543 10.3799 104.439 10.3799Z" fill="url(#paint0_linear_674_489)"/>
<path d="M93.7277 0C92.1975 0 91.0498 1.15337 91.0498 2.69121C91.0498 4.22904 92.1975 5.38241 93.7277 5.38241C95.258 5.38241 96.4057 4.22904 96.4057 2.69121C96.4057 1.15337 95.258 0 93.7277 0Z" fill="url(#paint1_linear_674_489)"/>
<path d="M89.137 63.8204L95.6405 54.7856V31.5259V30.1803V23.6445H78.8078V24.6057V29.2192V31.5259H86.6503V54.7856L58.1494 94.0004H95.6405V86.119H72.8781L89.137 63.8204Z" fill="url(#paint2_linear_674_489)"/>
<path d="M122.037 31.5259H130.071V29.2192V24.6057V23.6445H113.239V30.1803V31.5259V54.7856L119.742 63.8204L127.202 74.0085H113.239V81.8899H132.749L141.739 94.0004H150.538L122.037 54.7856V31.5259Z" fill="url(#paint3_linear_674_489)"/>
<path d="M8.41637 62.667H41.6993V54.7856H8.41637V31.5259H42.2731V23.6445H0V94.0004H43.0383V86.119H8.41637V62.667Z" fill="url(#paint4_linear_674_489)"/>
<path d="M207.731 56.1304C209.07 55.1693 210.409 54.2081 211.557 52.8625C212.705 51.5169 213.47 50.1713 214.044 48.6335C214.617 47.0957 215 45.1734 215 43.2511V42.0977C215 39.4065 214.617 37.0997 213.661 34.793C212.705 32.4862 211.366 30.564 209.644 29.0261C207.923 27.4883 205.627 26.1427 203.141 25.1815C200.654 24.2204 197.593 23.8359 194.342 23.8359H166.032V31.7173H171.962V86.3104H166.032V94.1918H194.342C197.593 94.1918 200.654 93.8073 203.141 92.8462C205.627 91.885 207.923 90.5394 209.644 89.0016C211.366 87.2715 212.705 85.3492 213.661 83.2347C214.617 80.928 215 78.6212 215 75.93V74.7766C215 70.9321 213.852 67.6642 211.557 65.1652C209.262 62.474 206.584 60.7439 203.141 59.7828V58.6294C204.862 57.6683 206.392 56.8993 207.731 56.1304ZM203.523 65.7419C205.818 67.8564 206.966 70.7398 206.966 74.3922V74.9689C206.966 78.429 205.818 81.1202 203.332 83.2347C200.845 85.157 197.593 86.1182 193.768 86.1182H180.569V62.6662H194.15C197.976 62.6662 201.036 63.6274 203.523 65.7419ZM193.959 54.7848H180.378V31.5251H193.576C197.593 31.5251 200.654 32.4862 203.141 34.4085C205.627 36.3308 206.775 39.022 206.775 42.4822V43.0588C206.775 46.7112 205.627 49.5946 203.332 51.5169C201.036 53.8237 197.976 54.7848 193.959 54.7848Z" fill="url(#paint5_linear_674_489)"/>
<defs>
<linearGradient id="paint0_linear_674_489" x1="-0.0169807" y1="14.222" x2="213.964" y2="14.222" gradientUnits="userSpaceOnUse">
<stop stop-color="#FF9838"/>
<stop offset="1" stop-color="#FF66DD"/>
</linearGradient>
<linearGradient id="paint1_linear_674_489" x1="-0.0169902" y1="2.70774" x2="213.965" y2="2.70774" gradientUnits="userSpaceOnUse">
<stop stop-color="#FF9838"/>
<stop offset="1" stop-color="#FF66DD"/>
</linearGradient>
<linearGradient id="paint2_linear_674_489" x1="-0.0169204" y1="58.8444" x2="213.965" y2="58.8444" gradientUnits="userSpaceOnUse">
<stop stop-color="#FF9838"/>
<stop offset="1" stop-color="#FF66DD"/>
</linearGradient>
<linearGradient id="paint3_linear_674_489" x1="-0.0167708" y1="58.843" x2="213.965" y2="58.843" gradientUnits="userSpaceOnUse">
<stop stop-color="#FF9838"/>
<stop offset="1" stop-color="#FF66DD"/>
</linearGradient>
<linearGradient id="paint4_linear_674_489" x1="0" y1="58.8463" x2="213.981" y2="58.8463" gradientUnits="userSpaceOnUse">
<stop stop-color="#FF9838"/>
<stop offset="1" stop-color="#FF66DD"/>
</linearGradient>
<linearGradient id="paint5_linear_674_489" x1="-0.0169061" y1="58.8455" x2="213.965" y2="58.8455" gradientUnits="userSpaceOnUse">
<stop stop-color="#FF9838"/>
<stop offset="1" stop-color="#FF66DD"/>
</linearGradient>
</defs>
</svg>
