<svg width="297" height="73" viewBox="0 0 297 73" fill="none" xmlns="http://www.w3.org/2000/svg">
<path d="M41.5409 70.856L62.3118 58.8446L83.083 46.7613L62.3118 34.7492L41.5409 46.7613L20.7714 34.749L0 46.7613L20.7714 58.8446L41.5409 70.856Z" fill="white"/>
<path d="M41.5409 70.856L62.3118 58.8446L83.083 46.7613L62.3118 34.7492L41.5409 46.7613L20.7714 34.749L0 46.7613L20.7714 58.8446L41.5409 70.856Z" fill="white"/>
<path d="M41.541 38.2508L62.3119 26.239L83.0831 14.1552L62.3119 2.14395L41.541 14.1554L20.7715 2.14395L6.4107e-05 14.1554L20.7715 26.2393L41.541 38.2508Z" fill="white"/>
<path d="M41.541 38.2508L62.3119 26.239L83.0831 14.1552L62.3119 2.14395L41.541 14.1554L20.7715 2.14395L6.4107e-05 14.1554L20.7715 26.2393L41.541 38.2508Z" fill="white"/>
<path d="M130.066 26.3876V28.13H111.792V1.59237H129.498V3.33627H113.722V13.8002H127.835V15.5063H113.722V26.3871L130.066 26.3876ZM136.498 0H138.389V28.13H136.498V0ZM153.031 8.18938C155.477 8.18938 157.356 8.8149 158.668 10.0659C159.98 11.317 160.636 13.1553 160.636 15.5808V28.13H158.82V24.6024C158.191 25.7631 157.229 26.7076 156.058 27.3132C154.709 27.9895 153.215 28.3216 151.707 28.28C149.513 28.28 147.779 27.7618 146.505 26.7254C145.889 26.2407 145.396 25.618 145.064 24.9075C144.732 24.1969 144.571 23.4182 144.593 22.634C144.569 21.8778 144.714 21.1258 145.019 20.4335C145.323 19.7411 145.779 19.1262 146.352 18.6339C147.527 17.6114 149.4 17.1002 151.972 17.1002H158.744V15.5103C158.744 13.665 158.246 12.2623 157.25 11.3021C156.253 10.3418 154.797 9.86157 152.88 9.86124C151.594 9.85599 150.318 10.0867 149.115 10.5419C147.994 10.9504 146.961 11.5679 146.069 12.3618L145.124 10.995C146.162 10.0784 147.371 9.37617 148.68 8.92868C150.077 8.43412 151.549 8.18404 153.031 8.18938ZM151.972 26.7289C153.447 26.7746 154.903 26.3786 156.152 25.5916C157.337 24.7877 158.242 23.6351 158.744 22.2931V18.5773H152.01C150.067 18.5773 148.661 18.9312 147.791 19.639C147.361 19.9896 147.019 20.4363 146.792 20.9433C146.566 21.4503 146.461 22.0034 146.486 22.5584C146.463 23.1455 146.582 23.7294 146.832 24.2607C147.082 24.792 147.457 25.255 147.924 25.6105C148.882 26.3561 150.231 26.7289 151.972 26.7289ZM173.424 28.2835C171.881 28.2909 170.348 28.0476 168.884 27.5631C167.649 27.1951 166.502 26.5763 165.516 25.7452L166.386 24.2288C167.317 24.9799 168.375 25.5577 169.51 25.9349C170.791 26.3913 172.142 26.6222 173.502 26.6176C175.494 26.6176 176.963 26.289 177.909 25.6319C178.36 25.3371 178.727 24.9312 178.975 24.4532C179.224 23.9751 179.345 23.441 179.328 22.9022C179.347 22.5372 179.288 22.1723 179.154 21.8322C179.02 21.4921 178.815 21.1847 178.553 20.9308C178.006 20.4339 177.352 20.0705 176.642 19.869C175.885 19.6415 174.839 19.4014 173.502 19.1486C172.22 18.9397 170.955 18.6356 169.718 18.2389C168.779 17.9232 167.933 17.3766 167.259 16.649C166.54 15.8092 166.174 14.7229 166.238 13.6183C166.23 12.8618 166.402 12.1143 166.741 11.4382C167.08 10.7622 167.576 10.1772 168.186 9.73206C169.485 8.70858 171.333 8.19683 173.729 8.19683C174.996 8.19761 176.257 8.37622 177.474 8.72746C178.558 9.01021 179.582 9.48524 180.499 10.13L179.629 11.6464C178.79 11.0498 177.856 10.601 176.867 10.3193C175.834 10.0162 174.764 9.86296 173.689 9.86422C171.847 9.86422 170.46 10.2054 169.527 10.8877C169.089 11.1833 168.732 11.5836 168.487 12.0524C168.243 12.5212 168.119 13.0437 168.127 13.5726C168.105 13.9538 168.164 14.3353 168.301 14.6916C168.438 15.048 168.649 15.3709 168.92 15.639C169.479 16.1482 170.145 16.5241 170.869 16.7385C171.638 16.9786 172.716 17.2376 174.103 17.5155C175.365 17.7261 176.61 18.0237 177.83 18.4064C178.748 18.7047 179.575 19.2333 180.233 19.9421C180.925 20.7513 181.277 21.7976 181.216 22.8615C181.233 23.6377 181.055 24.4056 180.698 25.0946C180.341 25.7837 179.816 26.3716 179.173 26.8044C177.812 27.7901 175.895 28.283 173.424 28.283V28.2835ZM196.313 26.8809C195.798 27.3572 195.185 27.7135 194.516 27.9243C193.79 28.1655 193.03 28.2872 192.265 28.2845C190.55 28.2845 189.226 27.8105 188.293 26.8625C187.36 25.9146 186.893 24.594 186.893 22.9008V9.97104H183.261V8.34092H186.893V4.01843H188.785V8.34092H195.066V9.97104H188.784V22.71C188.709 23.7711 189.041 24.8209 189.711 25.6458C190.071 25.9984 190.502 26.2702 190.975 26.4434C191.448 26.6166 191.952 26.6872 192.454 26.6504C193.579 26.691 194.676 26.2974 195.519 25.5509L196.313 26.8809ZM208.572 28.2835C206.804 28.309 205.061 27.8642 203.521 26.9947C202.035 26.1501 200.81 24.9102 199.983 23.412C199.112 21.8287 198.669 20.0448 198.697 18.2369C198.669 16.4288 199.112 14.6445 199.983 13.0609C200.81 11.5627 202.034 10.3228 203.52 9.47818C205.07 8.63248 206.807 8.18939 208.571 8.18939C210.336 8.18939 212.072 8.63248 213.622 9.47818C215.108 10.3228 216.332 11.5627 217.159 13.0609C218.031 14.6442 218.474 16.4281 218.446 18.2359C218.474 20.0434 218.031 21.827 217.159 23.41C216.332 24.9082 215.108 26.1481 213.622 26.9927C212.082 27.8628 210.339 28.308 208.571 28.283L208.572 28.2835ZM208.572 26.5774C209.998 26.5998 211.403 26.2328 212.637 25.5156C213.835 24.8083 214.816 23.7855 215.475 22.5584C216.184 21.2304 216.543 19.7422 216.516 18.2359C216.543 16.7296 216.184 15.2415 215.475 13.9135C214.817 12.6868 213.836 11.6642 212.639 10.9568C211.396 10.2607 209.996 9.89522 208.572 9.89522C207.148 9.89522 205.748 10.2607 204.505 10.9568C203.307 11.6641 202.325 12.6869 201.667 13.9139C200.957 15.242 200.599 16.7301 200.626 18.2364C200.599 19.7427 200.957 21.2309 201.667 22.5589C202.325 23.786 203.307 24.8088 204.505 25.5161C205.739 26.2331 207.145 26.5998 208.571 26.5769L208.572 26.5774ZM229.305 28.2835C227.762 28.2909 226.229 28.0476 224.765 27.5631C223.529 27.1945 222.383 26.575 221.397 25.7432L222.267 24.2268C223.198 24.9779 224.256 25.5557 225.391 25.933C226.672 26.3893 228.023 26.6203 229.382 26.6156C231.375 26.6156 232.844 26.287 233.79 25.6299C234.241 25.3351 234.608 24.9292 234.856 24.4512C235.105 23.9731 235.226 23.439 235.209 22.9003C235.228 22.5346 235.169 22.1691 235.035 21.8285C234.901 21.4878 234.696 21.18 234.433 20.9258C233.886 20.4289 233.232 20.0655 232.522 19.8641C231.765 19.6365 230.718 19.3964 229.381 19.1437C228.1 18.9347 226.835 18.6307 225.598 18.234C224.659 17.9182 223.813 17.3716 223.139 16.6441C222.42 15.8042 222.054 14.7179 222.117 13.6134C222.109 12.8568 222.282 12.1093 222.621 11.4332C222.96 10.7572 223.455 10.1722 224.066 9.72709C225.365 8.70361 227.213 8.19186 229.609 8.19186C230.876 8.19264 232.137 8.37125 233.354 8.72249C234.438 9.00525 235.462 9.48028 236.379 10.1251L235.509 11.6414C234.67 11.0442 233.736 10.5947 232.747 10.3124C231.715 10.0093 230.645 9.856 229.569 9.85727C227.727 9.85727 226.34 10.1984 225.407 10.8808C224.968 11.177 224.611 11.5784 224.366 12.0485C224.122 12.5187 223.998 13.0426 224.007 13.5726C223.985 13.9538 224.045 14.3353 224.181 14.6916C224.318 15.048 224.529 15.3709 224.801 15.639C225.359 16.1482 226.025 16.5241 226.749 16.7385C227.518 16.9786 228.597 17.2376 229.984 17.5155C231.245 17.7261 232.49 18.0237 233.71 18.4064C234.629 18.7047 235.456 19.2334 236.113 19.9421C236.805 20.7513 237.158 21.7976 237.097 22.8615C237.113 23.6377 236.935 24.4056 236.578 25.0946C236.221 25.7837 235.697 26.3716 235.053 26.8044C233.693 27.7901 231.776 28.283 229.305 28.283V28.2835Z" fill="white"/>
<path d="M131.011 69.4702V72.7688H111.792V46.2296H130.484V49.5282H115.575V57.6793H128.855V60.9018H115.575V69.4702H131.011ZM142.096 72.9978C140.497 73.0035 138.904 72.7801 137.367 72.3345C136.085 72.0038 134.878 71.4304 133.811 70.6453L135.324 67.7636C136.305 68.4425 137.392 68.9548 138.54 69.28C139.779 69.6559 141.066 69.8475 142.361 69.8488C145.539 69.8488 147.128 68.939 147.128 67.1192C147.139 66.8454 147.087 66.5727 146.975 66.3227C146.863 66.0726 146.695 65.852 146.483 65.6784C146.011 65.3034 145.462 65.038 144.875 64.9013C144.232 64.7357 143.318 64.5525 142.133 64.3518C140.795 64.1612 139.473 63.8697 138.179 63.4799C137.174 63.1609 136.269 62.5861 135.551 61.8115C134.773 60.8959 134.38 59.7134 134.454 58.513C134.437 57.651 134.635 56.7984 135.032 56.0333C135.429 55.2682 136.011 54.6151 136.724 54.1338C138.238 53.0348 140.268 52.4853 142.817 52.4853C144.169 52.4871 145.515 52.6526 146.827 52.9782C147.99 53.2354 149.102 53.6838 150.119 54.3053L148.568 57.1869C146.835 56.1 144.822 55.5472 142.779 55.597C141.241 55.597 140.067 55.8498 139.259 56.3552C138.895 56.5493 138.59 56.8386 138.377 57.1924C138.164 57.5461 138.05 57.9512 138.048 58.3644C138.035 58.6586 138.089 58.9519 138.208 59.2215C138.326 59.4911 138.504 59.7298 138.729 59.919C139.223 60.3181 139.799 60.603 140.415 60.7532C141.084 60.9301 142.023 61.1323 143.234 61.3599C144.558 61.5705 145.866 61.8681 147.151 62.2507C148.128 62.5547 149.009 63.1103 149.705 63.8619C150.456 64.7462 150.835 65.8877 150.764 67.0467C150.781 67.9096 150.576 68.7624 150.168 69.5227C149.761 70.2831 149.165 70.9253 148.437 71.3876C146.884 72.4601 144.77 72.9963 142.097 72.9963L142.096 72.9978ZM161.051 72.9978C159.452 73.0035 157.859 72.7801 156.322 72.3345C155.04 72.0038 153.833 71.4304 152.766 70.6453L154.279 67.7636C155.26 68.4425 156.347 68.9548 157.495 69.28C158.734 69.6559 160.021 69.8475 161.316 69.8488C164.494 69.8488 166.083 68.939 166.083 67.1192C166.094 66.8454 166.042 66.5727 165.93 66.3227C165.818 66.0726 165.65 65.852 165.438 65.6784C164.966 65.3034 164.417 65.038 163.83 64.9013C163.187 64.7357 162.273 64.5525 161.088 64.3518C159.75 64.1612 158.428 63.8697 157.134 63.4799C156.129 63.1609 155.224 62.5861 154.506 61.8115C153.728 60.8959 153.335 59.7134 153.409 58.513C153.392 57.651 153.59 56.7984 153.987 56.0333C154.384 55.2682 154.966 54.6151 155.679 54.1338C157.193 53.0345 159.223 52.4848 161.771 52.4848C163.123 52.4866 164.469 52.6521 165.781 52.9777C166.944 53.2349 168.057 53.6833 169.073 54.3048L167.522 57.1864C165.789 56.0995 163.777 55.5467 161.733 55.5965C160.195 55.5965 159.021 55.8493 158.213 56.3547C157.849 56.5488 157.544 56.8381 157.331 57.1919C157.118 57.5457 157.004 57.9507 157.002 58.3639C156.989 58.6581 157.044 58.9514 157.162 59.221C157.28 59.4906 157.458 59.7293 157.684 59.9185C158.177 60.3176 158.753 60.6025 159.369 60.7527C160.038 60.9296 160.977 61.1318 162.188 61.3594C163.512 61.57 164.82 61.8676 166.105 62.2502C167.082 62.5542 167.963 63.1098 168.659 63.8614C169.41 64.7457 169.789 65.8872 169.718 67.0462C169.735 67.9091 169.53 68.7619 169.123 69.5222C168.715 70.2826 168.119 70.9248 167.391 71.387C165.838 72.4599 163.725 72.9963 161.051 72.9963V72.9978ZM192.378 62.837C192.372 63.2045 192.347 63.5716 192.302 63.9365H176.036C176.123 64.7663 176.373 65.5705 176.773 66.3027C177.172 67.0348 177.712 67.6803 178.362 68.2018C179.768 69.3036 181.516 69.8741 183.3 69.8131C184.383 69.8557 185.462 69.6606 186.462 69.2415C187.462 68.8223 188.358 68.1892 189.088 67.3865L191.093 69.737C190.175 70.8062 189.013 71.6384 187.707 72.1636C186.269 72.7364 184.733 73.0198 183.186 72.9978C181.227 73.0356 179.291 72.5861 177.548 71.6896C175.956 70.8626 174.635 69.5921 173.746 68.0309C172.837 66.412 172.374 64.5804 172.403 62.7232C172.375 60.8829 172.824 59.067 173.705 57.4522C174.54 55.9211 175.785 54.654 177.299 53.7935C178.876 52.9085 180.657 52.4572 182.464 52.4853C184.259 52.4539 186.029 52.9056 187.59 53.7935C189.084 54.657 190.304 55.9252 191.111 57.4522C191.978 59.1114 192.414 60.9628 192.378 62.8355V62.837ZM182.466 55.5563C180.86 55.5063 179.296 56.0753 178.096 57.1462C176.912 58.2289 176.176 59.7169 176.034 61.3166H188.897C188.746 59.7248 188.011 58.2456 186.835 57.1651C185.641 56.0835 184.075 55.507 182.466 55.5563ZM208.117 52.4853C210.664 52.4853 212.689 53.2246 214.19 54.7032C215.691 56.1818 216.441 58.3492 216.441 61.2053V72.7688H212.808V61.6222C212.808 59.6759 212.342 58.2099 211.409 57.2242C210.476 56.2385 209.139 55.7456 207.398 55.7456C205.431 55.7456 203.88 56.3206 202.744 57.4706C201.609 58.6206 201.042 60.2698 201.042 62.4181V72.7683H197.41V52.6751H200.89V55.7058C201.643 54.6522 202.67 53.826 203.86 53.3175C205.205 52.7428 206.655 52.4592 208.117 52.4853ZM234.45 71.5937C233.873 72.0742 233.203 72.4295 232.482 72.6371C231.698 72.8776 230.881 72.9991 230.061 72.9973C228.044 72.9973 226.481 72.4539 225.369 71.3672C224.258 70.2804 223.703 68.726 223.705 66.7038V55.6701H220.299V52.6751H223.705V48.2771H227.337V52.6751H233.088V55.6701H227.337V66.5508C227.276 67.4588 227.568 68.3551 228.15 69.0529C228.455 69.3547 228.819 69.5885 229.221 69.7388C229.622 69.8891 230.05 69.9525 230.477 69.9249C231.505 69.9526 232.509 69.617 233.315 68.9769L234.45 71.5937ZM238.838 52.6751H242.471V72.7692H238.838V52.6751ZM240.655 48.8082C240.331 48.8182 240.008 48.7629 239.706 48.6457C239.404 48.5284 239.128 48.3515 238.895 48.1256C238.669 47.9117 238.49 47.6528 238.37 47.3655C238.249 47.0782 238.19 46.7688 238.195 46.4572C238.191 46.1426 238.25 45.8304 238.371 45.5398C238.491 45.2493 238.67 44.9866 238.895 44.768C239.125 44.5369 239.4 44.3555 239.703 44.2348C240.005 44.1142 240.329 44.0569 240.655 44.0664C241.305 44.0454 241.938 44.2839 242.414 44.7297C242.64 44.9391 242.82 45.1944 242.941 45.4787C243.062 45.763 243.12 46.0698 243.114 46.3787C243.121 46.6989 243.062 47.0172 242.942 47.3139C242.822 47.6105 242.642 47.8793 242.414 48.1037C242.184 48.3352 241.909 48.5171 241.607 48.6382C241.304 48.7593 240.98 48.817 240.655 48.8077V48.8082ZM256.696 52.4848C259.471 52.4848 261.596 53.1673 263.071 54.5323C264.547 55.8973 265.284 57.932 265.284 60.6365V72.7688H261.842V70.1147C261.21 71.0716 260.308 71.8175 259.25 72.2565C257.985 72.7768 256.626 73.0286 255.258 72.9958C253.013 72.9958 251.216 72.4524 249.867 71.3657C249.242 70.8466 248.737 70.1973 248.387 69.4628C248.038 68.7284 247.852 67.9265 247.843 67.1129C247.834 66.2992 248.002 65.4934 248.335 64.7514C248.668 64.0094 249.159 63.349 249.772 62.8161C251.059 61.7419 253.102 61.2048 255.901 61.2048H261.653V60.4844C261.653 58.9174 261.199 57.7169 260.291 56.8829C259.383 56.0488 258.046 55.6318 256.28 55.6318C255.095 55.6318 253.919 55.8304 252.8 56.2196C251.753 56.5626 250.778 57.096 249.924 57.7931L248.411 55.0634C249.513 54.1937 250.772 53.5437 252.118 53.1486C253.603 52.6996 255.145 52.476 256.696 52.4853L256.696 52.4848ZM255.864 70.1902C257.125 70.2233 258.37 69.9014 259.458 69.2611C260.46 68.6505 261.231 67.7245 261.652 66.6278V63.8222H256.053C252.975 63.8222 251.437 64.8584 251.437 66.9309C251.42 67.3951 251.519 67.8562 251.724 68.2729C251.928 68.6896 252.233 69.0491 252.61 69.3192C253.573 69.9523 254.714 70.2579 255.864 70.1907V70.1902ZM272.019 44.6368H275.651V72.7683H272.019V44.6368ZM288.325 72.9958C286.725 73.0015 285.133 72.7781 283.596 72.3325C282.314 72.0018 281.107 71.4284 280.04 70.6433L281.553 67.7616C282.534 68.4406 283.621 68.9529 284.769 69.278C286.008 69.6539 287.295 69.8456 288.59 69.8468C291.768 69.8468 293.357 68.937 293.357 67.1172C293.368 66.8434 293.316 66.5707 293.204 66.3207C293.092 66.0706 292.924 65.8501 292.712 65.6764C292.24 65.3014 291.691 65.036 291.104 64.8993C290.461 64.7337 289.547 64.5506 288.362 64.3498C287.024 64.1592 285.702 63.8677 284.408 63.4779C283.403 63.1589 282.497 62.5841 281.78 61.8095C281.002 60.8939 280.609 59.7114 280.683 58.511C280.666 57.649 280.864 56.7965 281.261 56.0314C281.657 55.2663 282.239 54.6132 282.953 54.1319C284.466 53.0325 286.497 52.4829 289.044 52.4829C290.396 52.4847 291.743 52.6501 293.055 52.9757C294.218 53.2329 295.33 53.6814 296.347 54.3028L294.795 57.1844C293.063 56.0976 291.05 55.5447 289.007 55.5946C287.468 55.5946 286.295 55.8473 285.486 56.3527C285.122 56.5468 284.818 56.8361 284.604 57.1899C284.391 57.5437 284.278 57.9487 284.276 58.3619C284.262 58.6561 284.317 58.9494 284.435 59.219C284.553 59.4886 284.732 59.7273 284.957 59.9165C285.451 60.3156 286.026 60.6005 286.643 60.7507C287.311 60.9276 288.251 61.1298 289.461 61.3574C290.785 61.568 292.093 61.8656 293.378 62.2482C294.355 62.5522 295.236 63.1078 295.932 63.8595C296.683 64.7437 297.063 65.8852 296.992 67.0442C297.009 67.9071 296.803 68.7599 296.396 69.5202C295.988 70.2806 295.392 70.9229 294.665 71.3851C293.112 72.4592 290.999 72.9963 288.325 72.9963L288.325 72.9958Z" fill="white"/>
</svg>
