<svg width="418" height="73" viewBox="0 0 418 73" fill="none" xmlns="http://www.w3.org/2000/svg">
<path d="M41.7126 16.2046H28.3105V2.7802C28.3105 1.27095 29.5794 0 31.0861 0H41.7126C42.5056 0 43.14 0.317737 43.6951 0.794342C43.7744 0.873776 43.8537 0.95321 43.8537 0.95321C43.933 1.03264 44.0123 1.19151 44.0916 1.27095C44.1709 1.42981 44.2502 1.50925 44.2502 1.66812C44.2502 1.74755 44.3295 1.82699 44.3295 1.90642C44.3295 2.06529 44.4088 2.14472 44.4088 2.30359C44.4088 2.46246 44.4088 2.62133 44.4088 2.70076V13.5038C44.4088 15.0131 43.2193 16.2046 41.7126 16.2046Z" fill="white"/>
<path d="M41.7126 44.5625H28.3105V28.3579H41.7126C43.2193 28.3579 44.4088 29.5494 44.4881 30.9792V31.0587V41.7823C44.4881 43.371 43.2986 44.5625 41.7126 44.5625Z" fill="white"/>
<path d="M41.7126 73H31.0861C29.5794 73 28.3105 71.729 28.3105 70.2198V56.7954H41.7126C43.2193 56.7954 44.4881 58.0664 44.4881 59.5756V70.2198C44.4881 71.729 43.2986 73 41.7126 73Z" fill="white"/>
<path d="M16.1776 2.7802V70.2198C16.1776 71.7291 14.9087 73 13.402 73H2.77556C1.26883 73 0 71.7291 0 70.2198V2.7802C0 1.27095 1.26883 0 2.77556 0H13.402C14.9087 0 16.1776 1.27095 16.1776 2.7802Z" fill="white"/>
<path d="M41.7126 73H31.0861C29.5794 73 28.3105 71.729 28.3105 70.2198V56.7954H41.7126C43.2193 56.7954 44.4881 58.0664 44.4881 59.5756V70.2198C44.4881 71.729 43.2986 73 41.7126 73Z" fill="white"/>
<path d="M16.1776 56.7158V70.1402C16.1776 71.6494 14.9087 72.9204 13.402 72.9204H2.77556C1.26883 72.9204 0 71.6494 0 70.1402V56.7158H16.1776Z" fill="white"/>
<path d="M44.5676 31.1381V41.7823C44.5676 43.2915 43.2988 44.5625 41.7921 44.5625H0V28.3579H41.7921C43.2988 28.3579 44.4883 29.5494 44.5676 30.9792V31.0587C44.5676 31.1381 44.5676 31.1381 44.5676 31.1381Z" fill="white"/>
<path d="M41.7126 16.2046H28.3105V2.7802C28.3105 1.27095 29.5794 0 31.0861 0H41.7126C42.5056 0 43.14 0.317737 43.6951 0.794342C43.7744 0.873776 43.8537 0.95321 43.8537 0.95321C43.933 1.03264 44.0123 1.19151 44.0916 1.27095C44.1709 1.42981 44.2502 1.50925 44.2502 1.66812C44.2502 1.74755 44.3295 1.82699 44.3295 1.90642C44.3295 2.06529 44.4088 2.14472 44.4088 2.30359C44.4088 2.46246 44.4088 2.62133 44.4088 2.70076V13.3449C44.4088 13.4244 44.4088 13.4244 44.4088 13.5038C44.4088 15.0131 43.2193 16.2046 41.7126 16.2046Z" fill="white"/>
<path d="M16.1776 2.7802V16.2046H0V2.7802C0 1.27095 1.26883 0 2.77556 0H13.402C14.9087 0 16.1776 1.27095 16.1776 2.7802Z" fill="white"/>
<path d="M83.2671 53.3796V19.6201H103.806V23.989H87.9459V34.3949H102.3V38.7637H87.9459V49.0902H103.806V53.4591H83.2671V53.3796Z" fill="white"/>
<path d="M135.368 28.755C134.972 26.2925 132.91 22.9563 128.231 22.9563C124.425 22.9563 121.728 25.4187 121.728 28.5961C121.728 31.0585 123.235 32.8855 126.09 33.521L131.165 34.6331C136.796 35.904 139.888 39.3991 139.888 44.0857C139.888 49.3284 135.448 54.0945 128.231 54.0945C120.063 54.0945 116.256 48.8518 115.622 44.0063L120.063 42.5765C120.38 46.3099 123.076 49.805 128.152 49.805C132.831 49.805 135.13 47.3426 135.13 44.4035C135.13 41.941 133.465 39.8757 130.055 39.1608L125.218 38.1282C120.38 37.0955 116.97 33.9182 116.97 28.9138C116.97 23.5917 121.887 18.8257 128.072 18.8257C135.685 18.8257 138.699 23.5123 139.492 27.2457L135.368 28.755Z" fill="white"/>
<path d="M170.737 28.755C170.34 26.2925 168.279 22.9563 163.6 22.9563C159.793 22.9563 157.097 25.4187 157.097 28.5961C157.097 31.0585 158.604 32.8855 161.459 33.521L166.534 34.6331C172.164 35.904 175.257 39.3991 175.257 44.0857C175.257 49.3284 170.816 54.0945 163.6 54.0945C155.432 54.0945 151.625 48.8518 150.991 44.0063L155.432 42.5765C155.749 46.3099 158.445 49.805 163.52 49.805C168.199 49.805 170.499 47.3426 170.499 44.4035C170.499 41.941 168.834 39.8757 165.424 39.1608L160.586 38.1282C155.749 37.0955 152.339 33.9182 152.339 28.9138C152.339 23.5917 157.256 18.8257 163.441 18.8257C171.054 18.8257 174.068 23.5123 174.861 27.2457L170.737 28.755Z" fill="white"/>
<path d="M188.739 53.3796V19.6201H209.278V23.989H193.418V34.3949H207.771V38.7637H193.418V49.0902H209.278V53.4591H188.739V53.3796Z" fill="white"/>
<path d="M246.391 53.3796L228.151 25.816V53.3796H223.473V19.6201H229.738L246.629 45.5157V19.6201H251.308V53.3796H246.391Z" fill="white"/>
<path d="M279.063 23.9094V53.3795H274.384V23.9094H263.124V19.5405H290.324V23.9094H279.063Z" fill="white"/>
<path d="M302.299 53.3796V19.6201H307.057V53.3796H302.299Z" fill="white"/>
<path d="M342.425 43.927H327.517L323.948 53.3796H318.952L332.354 19.6201H337.747L351.149 53.3796H346.073L342.425 43.927ZM329.182 39.6375H340.76L334.892 24.4656L329.182 39.6375Z" fill="white"/>
<path d="M363.044 53.3796V19.6201H367.723V49.0108H383.662V53.3796H363.044Z" fill="white"/>
<path d="M413.559 28.755C413.163 26.2925 411.101 22.9563 406.422 22.9563C402.615 22.9563 399.919 25.4187 399.919 28.5961C399.919 31.0585 401.426 32.8855 404.281 33.521L409.356 34.6331C414.987 35.904 418.079 39.3991 418.079 44.0857C418.079 49.3284 413.638 54.0945 406.422 54.0945C398.254 54.0945 394.447 48.8518 393.813 44.0063L398.254 42.5765C398.571 46.3099 401.267 49.805 406.343 49.805C411.022 49.805 413.321 47.3426 413.321 44.4035C413.321 41.941 411.656 39.8757 408.246 39.1608L403.409 38.1282C398.571 37.0955 395.161 33.9182 395.161 28.9138C395.161 23.5917 400.078 18.8257 406.263 18.8257C413.876 18.8257 416.89 23.5123 417.683 27.2457L413.559 28.755Z" fill="white"/>
</svg>
