<svg width="657" height="657" viewBox="-79 0 657 657" fill="none" xmlns="http://www.w3.org/2000/svg">
<path d="M249.5 657C68.4194 657 -79 509.783 -79 328.5C-79 147.217 68.4194 0 249.5 0C430.581 0 578 147.419 578 328.5C578 509.581 430.783 657 249.5 657ZM249.5 18.25C78.3555 18.25 -60.75 157.356 -60.75 328.5C-60.75 499.644 78.3555 638.75 249.5 638.75C420.644 638.75 559.75 499.644 559.75 328.5C559.75 157.356 420.644 18.25 249.5 18.25Z" fill="url(#paint0_linear_229_142)"/>
<path d="M384.347 255.906L249.5 333.975L181.772 294.839L114.653 255.906L182.583 216.769L249.703 255.5L316.619 216.769L384.347 255.906Z" fill="url(#paint1_linear_229_142)"/>
<path d="M384.347 362.364L317.431 401.094L249.5 440.231L114.653 362.364L182.583 323.228L249.703 361.958L316.619 323.228L384.347 362.364Z" fill="url(#paint2_linear_229_142)"/>
<defs>
<linearGradient id="paint0_linear_229_142" x1="249.5" y1="0" x2="249.5" y2="657" gradientUnits="userSpaceOnUse">
<stop stop-color="#D3D3D3"/>
<stop offset="1"/>
</linearGradient>
<linearGradient id="paint1_linear_229_142" x1="249.5" y1="0" x2="249.5" y2="657" gradientUnits="userSpaceOnUse">
<stop stop-color="#D3D3D3"/>
<stop offset="1"/>
</linearGradient>
<linearGradient id="paint2_linear_229_142" x1="249.5" y1="0" x2="249.5" y2="657" gradientUnits="userSpaceOnUse">
<stop stop-color="#D3D3D3"/>
<stop offset="1"/>
</linearGradient>
</defs>
</svg>
