<svg width="402.04" height="657" viewBox="-79 0 402.04 657" fill="none" xmlns="http://www.w3.org/2000/svg">
<path d="M298.164 511.001H177.213V631.951C177.213 645.549 188.664 657 202.262 657H298.164C311.762 657 323.213 645.549 323.213 631.951V536.05C322.497 522.452 311.762 511.001 298.164 511.001Z" fill="url(#paint0_linear_674_515)"/>
<path d="M322.499 279.832C321.783 266.234 311.048 255.499 297.45 255.499H66.9995V145.999V25.0489C66.9995 11.4509 55.5485 0 41.9505 0H-53.9511C-67.5491 0 -79 11.4509 -79 25.0489V145.999V255.499V401.499V510.998V631.949C-79 645.547 -67.5491 656.997 -53.9511 656.997H41.9505C55.5485 656.997 66.9995 645.547 66.9995 631.949V510.998V401.499H297.45C307.469 401.499 316.057 395.773 319.636 387.185C319.636 386.469 320.351 386.469 320.351 385.753C321.783 382.891 322.499 379.312 322.499 375.734V279.832C323.214 279.832 323.214 279.832 322.499 279.832Z" fill="url(#paint1_linear_674_515)"/>
<path d="M322.497 121.663C322.497 120.948 322.497 120.948 322.497 120.232V25.0461C322.497 23.6147 322.497 22.1834 322.497 21.4677C322.497 20.0363 321.781 19.3206 321.781 17.8893C321.781 17.1736 321.066 16.4579 321.066 15.7422C320.35 14.3109 319.634 13.5952 319.634 12.1638C318.919 11.4481 318.203 10.0168 317.487 9.30107C316.772 8.58539 316.056 7.86973 316.056 7.86973C311.762 3.57562 305.321 0.712891 298.164 0.712891H202.262C188.664 0.712891 177.213 12.1638 177.213 25.7618V146.712H298.164C311.046 145.997 322.497 135.261 322.497 121.663Z" fill="url(#paint2_linear_674_515)"/>
<defs>
<linearGradient id="paint0_linear_674_515" x1="-85.6191" y1="584.044" x2="315.418" y2="584.044" gradientUnits="userSpaceOnUse">
<stop stop-color="#FF82FF"/>
<stop offset="1" stop-color="#5D37C0"/>
</linearGradient>
<linearGradient id="paint1_linear_674_515" x1="-85.6179" y1="328.376" x2="315.42" y2="328.376" gradientUnits="userSpaceOnUse">
<stop stop-color="#FF82FF"/>
<stop offset="1" stop-color="#5D37C0"/>
</linearGradient>
<linearGradient id="paint2_linear_674_515" x1="-85.6193" y1="72.7078" x2="315.418" y2="72.7078" gradientUnits="userSpaceOnUse">
<stop stop-color="#FF82FF"/>
<stop offset="1" stop-color="#5D37C0"/>
</linearGradient>
</defs>
</svg>
