<svg width="650" height="442" viewBox="-79 0 650 442" fill="none" xmlns="http://www.w3.org/2000/svg">
<path d="M522.503 262.314C522.503 285.347 526.601 307.379 535.002 325.896C523.571 321.892 512.596 316.546 502.316 309.93L491.864 303.204L481.679 310.327C465.589 321.578 446.426 327.605 426.791 327.59H426.784H426.777H204.2C178.69 327.557 154.234 317.408 136.197 299.369C118.161 281.332 108.015 256.878 107.983 231.371V114.738C108.012 89.2301 118.156 64.775 136.192 46.7373C154.227 28.6997 178.681 18.5523 204.188 18.5207H426.764C452.269 18.5562 476.718 28.7051 494.75 46.7419C512.785 64.7813 522.928 89.2381 522.954 114.747V231.383C522.954 234.297 522.826 237.202 522.576 240.028L522.503 240.844V241.664V262.314Z" stroke="url(#paint0_linear_237_259)" stroke-width="37.0414"/>
<path d="M355.997 350.319C356.034 373.969 360.402 396.57 369.347 415.333C357.318 411.307 345.769 405.814 334.97 398.938L324.559 392.309L314.434 399.365C298.328 410.589 279.165 416.596 259.535 416.575L259.511 416.575L259.487 416.575L36.9217 416.91H36.8939H36.7602C11.0528 416.884 -13.5965 406.672 -31.7899 388.509C-49.9808 370.35 -60.2352 345.721 -60.308 320.018C-60.308 320.014 -60.308 320.011 -60.308 320.008L-60.4793 203.379C-60.4793 203.375 -60.4793 203.372 -60.4793 203.369C-60.4858 177.635 -50.2857 152.951 -32.1157 134.727C-13.9457 116.504 10.7101 106.231 36.4435 106.163C36.4467 106.163 36.45 106.163 36.4533 106.163L259.004 105.821H259.019H259.182C284.888 105.854 309.534 116.071 327.725 134.235C345.918 152.401 356.172 177.036 356.24 202.746L356.412 319.396L356.412 319.414L356.412 319.431C356.421 322.239 356.296 325.155 356.034 328.088L355.959 328.926L355.961 329.766L355.997 350.316C355.997 350.317 355.997 350.318 355.997 350.319Z" stroke="url(#paint1_linear_237_259)" stroke-width="37.0414"/>
<defs>
<linearGradient id="paint0_linear_237_259" x1="89" y1="226.973" x2="536.215" y2="226.973" gradientUnits="userSpaceOnUse">
<stop stop-color="#7624FE"/>
<stop offset="1" stop-color="#0B1C33"/>
</linearGradient>
<linearGradient id="paint1_linear_237_259" x1="170.889" y1="87.2998" x2="170.889" y2="441.999" gradientUnits="userSpaceOnUse">
<stop stop-color="#240B4D"/>
<stop offset="1" stop-color="#368BFF"/>
</linearGradient>
</defs>
</svg>
