<svg width="658" height="445" viewBox="-79 0 658 445" fill="none" xmlns="http://www.w3.org/2000/svg">
<path d="M254.31 0C234.197 0 218.393 15.7903 218.393 35.8871V410.548C218.393 430.645 234.197 446.435 254.31 446.435C274.424 446.435 290.227 430.645 290.227 410.548V35.8871C288.79 15.7903 272.987 0 254.31 0Z" fill="url(#paint0_linear_647_381)"/>
<path d="M406.598 222.5L568.943 60.2903C583.31 45.9355 583.31 24.4032 568.943 10.0484C554.576 -4.30648 533.026 -4.30648 518.659 10.0484L331.891 196.661C317.524 211.016 317.524 232.548 331.891 246.903L518.659 433.516C525.843 440.694 534.463 443.564 543.083 443.564C551.703 443.564 561.76 440.694 567.507 433.516C581.873 419.161 581.873 397.629 567.507 383.274L406.598 222.5Z" fill="url(#paint1_linear_647_381)"/>
<path d="M-43.0828 0C-63.1964 0 -78.9998 15.7903 -78.9998 35.8871C-78.9998 55.9839 -63.1964 71.7742 -43.0828 71.7742C40.2447 70.3387 107.769 139.242 107.769 222.5C107.769 305.758 40.2447 374.661 -44.5195 374.661C-64.633 374.661 -80.4365 390.452 -80.4365 410.548C-78.9998 429.21 -63.1964 445 -43.0828 445C79.0351 445 179.603 344.516 179.603 222.5C179.603 99.0484 79.0351 0 -43.0828 0Z" fill="url(#paint2_linear_647_381)"/>
<defs>
<linearGradient id="paint0_linear_647_381" x1="254.31" y1="0" x2="254.31" y2="446.435" gradientUnits="userSpaceOnUse">
<stop stop-color="#4AB4F0"/>
<stop offset="1"/>
</linearGradient>
<linearGradient id="paint1_linear_647_381" x1="450.417" y1="-0.717773" x2="450.417" y2="443.564" gradientUnits="userSpaceOnUse">
<stop stop-color="#4AB4F0"/>
<stop offset="1"/>
</linearGradient>
<linearGradient id="paint2_linear_647_381" x1="49.5831" y1="0" x2="49.5831" y2="445" gradientUnits="userSpaceOnUse">
<stop stop-color="#4AB4F0"/>
<stop offset="1"/>
</linearGradient>
</defs>
</svg>
