<svg width="138" height="93" viewBox="0 0 138 93" fill="none" xmlns="http://www.w3.org/2000/svg">
<path d="M69.9038 0C65.6855 0 62.3711 3.3 62.3711 7.5V85.8C62.3711 90 65.6855 93.3 69.9038 93.3C74.1222 93.3 77.4366 90 77.4366 85.8V7.5C77.1353 3.3 73.8209 0 69.9038 0Z" fill="#4AB4F0"/>
<path d="M101.843 46.5001L135.891 12.6001C138.904 9.6001 138.904 5.1001 135.891 2.1001C132.878 -0.899902 128.358 -0.899902 125.345 2.1001L86.1749 41.1001C83.1618 44.1001 83.1618 48.6001 86.1749 51.6001L125.345 90.6001C126.852 92.1001 128.66 92.7001 130.467 92.7001C132.275 92.7001 134.384 92.1001 135.59 90.6001C138.603 87.6001 138.603 83.1001 135.59 80.1001L101.843 46.5001Z" fill="#4AB4F0"/>
<path d="M7.53279 0C3.31445 0 4.05312e-05 3.3 4.05312e-05 7.5C4.05312e-05 11.7 3.31445 15 7.53279 15C25.0088 14.7 39.1703 29.1 39.1703 46.5C39.1703 63.9 25.0088 78.3 7.23148 78.3C3.01314 78.3 -0.30127 81.6 -0.30127 85.8C4.05312e-05 89.7 3.31445 93 7.53279 93C33.1441 93 54.2359 72 54.2359 46.5C54.2359 20.7 33.1441 0 7.53279 0Z" fill="#4AB4F0"/>
</svg>
