<svg width="215" height="189" viewBox="0 0 215 189" fill="none" xmlns="http://www.w3.org/2000/svg">
<path d="M122.61 75.5033C114.243 67.1447 100.757 67.1447 92.3898 75.5033C88.2406 79.648 86.166 85.1053 86.0968 90.6316C86.0968 96.0888 88.1714 101.546 92.3898 105.691L107.535 120.75L122.679 105.622C126.829 101.477 128.972 96.0197 128.972 90.5625C128.903 85.1053 126.829 79.648 122.61 75.5033ZM113.413 96.227C113.344 96.2961 113.344 96.2961 113.274 96.3651C113.205 96.4342 113.205 96.4342 113.136 96.5033L107.465 102.168L101.726 96.4342C98.5445 93.2566 98.5445 88.0757 101.726 84.898C103.316 83.3092 105.391 82.4803 107.465 82.4803C109.54 82.4803 111.615 83.2401 113.205 84.898C116.455 87.9375 116.455 93.0493 113.413 96.227Z" fill="#FF5082"/>
<path d="M152.83 45.3157C148.681 41.171 143.218 39.0986 137.686 39.0986C132.223 39.0986 126.759 41.171 122.541 45.3848C114.173 53.7434 114.173 67.2138 122.541 75.5723C126.69 79.7171 132.153 81.7894 137.617 81.7894C143.08 81.7894 148.543 79.7171 152.761 75.5723L167.837 60.5131L152.83 45.3157ZM143.495 66.1776C140.314 69.3552 135.127 69.3552 131.946 66.1776C130.355 64.5888 129.526 62.5164 129.526 60.444C129.526 58.3717 130.286 56.2993 131.946 54.7105C135.058 51.6019 140.175 51.5328 143.356 54.5723C143.426 54.5723 143.426 54.6414 143.495 54.7105C143.564 54.7796 143.564 54.7796 143.633 54.8486L149.304 60.5131L143.495 66.1776Z" fill="#FF5082"/>
<path d="M92.3898 45.316C88.2405 41.1712 82.7774 39.0298 77.3142 39.0298C71.851 39.0298 66.3879 41.1022 62.1695 45.316L47.0939 60.3752L62.2386 75.4344C66.3879 79.5791 71.9202 81.6515 77.3834 81.6515C82.8465 81.6515 88.3097 79.5791 92.4589 75.3653C100.757 67.1449 100.757 53.6054 92.3898 45.316ZM85.4744 60.3752C85.4744 62.4475 84.7137 64.5199 83.054 66.1087C79.8729 69.2864 74.6863 69.2864 71.5053 66.1087L65.7655 60.3752L71.4361 54.7107C71.5053 54.6416 71.5053 54.6416 71.5744 54.5725C71.6436 54.5035 71.6436 54.5035 71.7127 54.4344C74.8938 51.3949 80.0112 51.3949 83.1231 54.5725C84.6445 56.2304 85.4744 58.3028 85.4744 60.3752Z" fill="#FF5082"/>
<path d="M122.61 15.1283L107.535 0L92.3899 15.1283C88.2406 19.273 86.166 24.7303 86.166 30.1875C86.166 35.6447 88.2406 41.102 92.3899 45.3158C100.758 53.6743 114.243 53.6743 122.61 45.3158C126.759 41.1711 128.834 35.6447 128.834 30.1875C128.903 24.7303 126.829 19.273 122.61 15.1283ZM113.274 35.9901C111.684 37.5789 109.609 38.4079 107.535 38.4079C105.46 38.4079 103.385 37.648 101.795 35.9901C98.6137 32.8125 98.6137 27.6316 101.795 24.4539L107.535 18.7204L113.205 24.3849C113.274 24.4539 113.274 24.4539 113.344 24.523C113.413 24.5921 113.413 24.5921 113.482 24.6612C116.456 27.7697 116.456 32.8125 113.274 35.9901Z" fill="#FF5082"/>
<path d="M69.154 106.865C66.8719 106.865 64.8665 105.967 63.3451 104.447C61.8928 102.997 60.9247 100.924 60.9247 98.7138C60.9247 94.2237 64.5899 90.5625 69.0849 90.5625H77.245V98.7138C77.3142 103.204 73.649 106.865 69.154 106.865Z" fill="#FF5082"/>
<path d="M77.3142 30.1874H69.154C69.154 30.1874 69.154 30.1874 69.0849 30.1874C69.0849 30.1874 69.0849 30.1874 69.0157 30.1874C64.5207 30.1874 60.9247 26.5262 60.9247 22.0361C60.9247 17.5459 64.5899 13.8848 69.0849 13.8848C73.5799 13.8848 77.245 17.5459 77.245 22.0361L77.3142 30.1874Z" fill="#FF5082"/>
<path d="M151.655 104.516C149.096 107.072 145.016 107.694 141.766 105.76C139.207 104.24 137.755 101.615 137.755 98.852C137.755 98.7138 137.755 98.6447 137.755 98.5066V90.5625H145.846C145.984 90.5625 146.053 90.5625 146.192 90.5625C147.506 90.5625 148.889 90.977 150.064 91.6678C153.937 93.9474 155.251 98.921 152.969 102.859C152.554 103.48 152.139 104.033 151.655 104.516Z" fill="#FF5082"/>
<path d="M146.053 30.1874C145.984 30.1874 145.915 30.1874 145.915 30.1874H145.777H137.755V22.0361C137.755 17.5459 141.42 13.8848 145.915 13.8848C148.197 13.8848 150.203 14.7828 151.655 16.3025C153.107 17.7532 154.075 19.8256 154.075 22.0361C154.075 26.4571 150.479 30.1183 146.053 30.1874Z" fill="#FF5082"/>
<path d="M151.655 16.2334C153.107 17.6841 154.075 19.7565 154.075 21.967C154.075 26.3881 150.479 30.0492 146.053 30.1183C145.984 30.1183 145.915 30.1183 145.915 30.1183H145.777H137.755V22.0361C137.755 17.5459 141.42 13.8848 145.915 13.8848C148.128 13.8848 150.203 14.7828 151.655 16.2334Z" fill="#FF5082"/>
<path d="M74.7556 150.523C67.6327 150.523 61.7546 153.493 58.3661 158.536C56.2223 161.714 54.9775 165.651 54.9775 170.21C54.9775 170.763 54.9775 171.247 55.0467 171.73C55.8074 183.405 64.8666 189 72.681 189C77.9367 189 82.0859 186.513 84.0222 181.954V189H94.2571V170.141C94.2571 158.122 86.2352 150.523 74.7556 150.523ZM74.6864 178.638C69.6382 178.638 66.2497 175.046 66.2497 169.727C66.2497 164.408 69.6382 160.816 74.6864 160.816C79.7347 160.816 83.1232 164.408 83.1232 169.727C83.1232 175.046 79.7347 178.638 74.6864 178.638Z" fill="#FF5082"/>
<path d="M117.977 165.651C114.588 165.098 111.891 164.822 111.891 162.612C111.891 161.161 112.998 159.71 115.764 159.71C117.977 159.71 119.498 160.677 119.775 162.404H130.563C130.355 155.842 124.685 150.592 115.626 150.592C106.497 150.592 100.688 155.773 100.688 163.164C100.688 172.006 108.987 173.25 114.035 173.94C117.424 174.493 120.121 174.7 120.121 177.118C120.121 178.638 119.014 179.881 115.626 179.881C112.583 179.881 111.2 178.914 111.131 176.98H100.135C100.273 184.026 106.359 189.069 115.764 189.069C125.169 189.069 131.393 184.026 131.393 176.496C131.324 167.792 123.233 166.342 117.977 165.651Z" fill="#FF5082"/>
<path d="M155.389 150.523C143.771 150.523 135.611 158.467 135.611 170.21C135.611 182.921 145.154 189 153.315 189C158.57 189 162.719 186.513 164.656 181.954V189H174.891V170.141C174.891 158.122 166.869 150.523 155.389 150.523ZM155.32 178.638C150.272 178.638 146.883 175.046 146.883 169.727C146.883 164.408 150.272 160.816 155.32 160.816C160.368 160.816 163.757 164.408 163.757 169.727C163.757 175.046 160.368 178.638 155.32 178.638Z" fill="#FF5082"/>
<path d="M198.541 150.523C188.791 150.523 182.083 155.842 182.083 167.24V188.033V189H193.216V188.033V167.24C193.216 162.335 195.429 160.885 198.541 160.885C201.653 160.885 203.866 162.335 203.866 167.24V167.516H215V167.309C214.931 155.773 208.361 150.523 198.541 150.523Z" fill="#FF5082"/>
<path d="M43.3596 142.993C40.5243 141.473 36.8591 140.645 32.2949 140.645H13.2084V163.648C5.8781 163.648 0 169.52 0 176.842C0 178.845 0.414924 180.71 1.24477 182.368C3.3194 177.878 7.88356 174.7 13.2084 174.7V189H25.2412V174.7H32.2949C45.5034 174.7 51.3123 167.447 51.3123 157.569C51.3123 151.145 48.7536 145.895 43.3596 142.993ZM34.8536 163.372C34.1621 163.51 33.4014 163.579 32.5024 163.579H25.2412V151.697H32.5024C35.6835 151.697 37.4815 152.664 38.3805 154.184C38.9337 155.151 39.1412 156.256 39.1412 157.569C39.1412 160.47 38.1039 162.681 34.8536 163.372Z" fill="#FF5082"/>
</svg>
