<svg width="578" height="658" viewBox="0 0 578 658" fill="none" xmlns="http://www.w3.org/2000/svg">
<path d="M331.625 411.086C286 365.461 212.544 365.461 167.375 411.086C144.562 433.898 133.156 463.554 133.156 493.211C133.156 522.867 144.562 552.523 167.375 575.336L249.5 657.461L331.625 575.336C354.437 552.523 365.844 522.867 365.844 493.211C365.844 463.554 354.437 433.898 331.625 411.086ZM281.437 524.236L249.956 555.717L218.475 524.236C201.137 506.898 201.137 478.611 218.475 461.273C227.144 452.604 238.55 448.042 249.956 448.042C261.362 448.042 272.769 452.148 281.437 461.273C297.862 479.067 298.319 506.898 281.437 524.236Z" fill="url(#paint0_linear_258_1425)"/>
<path d="M495.875 246.833C473.062 224.02 443.406 212.614 413.75 212.614C384.094 212.614 354.437 224.02 331.625 246.833C286 292.458 286.456 365.914 331.625 411.083C354.437 433.895 384.094 445.301 413.75 445.301C443.406 445.301 473.062 433.895 495.875 411.083L578 328.958L495.875 246.833ZM445.231 360.439C427.894 377.776 399.606 377.776 382.269 360.439C373.6 351.77 369.037 340.364 369.037 328.958C369.037 317.551 373.144 306.145 382.269 297.476C399.606 280.139 426.981 280.139 444.319 297.02L475.8 328.501L445.231 360.439Z" fill="url(#paint1_linear_258_1425)"/>
<path d="M167.375 246.833C144.563 224.02 114.906 212.614 85.2501 212.614C55.5938 212.614 25.9376 224.02 3.12505 246.833L-79 328.958L3.12505 411.083C25.9376 433.895 55.5938 445.301 85.2501 445.301C114.906 445.301 144.563 433.895 167.375 411.083C212.544 365.914 212.544 292.001 167.375 246.833ZM129.506 328.958C129.506 340.364 125.4 351.77 116.275 360.439C98.9375 377.776 70.6501 377.776 53.3126 360.439L21.8313 328.958L53.3126 297.476C70.6501 280.595 98.4813 281.051 115.363 297.933C124.944 306.145 129.506 317.551 129.506 328.958Z" fill="url(#paint2_linear_258_1425)"/>
<path d="M331.625 82.125L249.5 0L167.375 82.125C144.562 104.938 133.156 134.594 133.156 164.25C133.156 193.906 144.562 223.563 167.375 246.375C213 292 286.456 292 331.625 246.375C354.437 223.563 365.844 193.906 365.844 164.25C365.844 134.594 354.437 104.938 331.625 82.125ZM280.981 195.731C272.312 204.4 260.906 208.963 249.5 208.963C238.094 208.963 226.687 204.856 218.019 195.731C200.681 178.394 200.681 150.106 218.019 132.769L249.5 101.288L280.981 132.769C298.319 151.019 297.862 178.85 280.981 195.731Z" fill="url(#paint3_linear_258_1425)"/>
<path d="M40.5373 582.174C28.2185 582.174 17.2685 577.155 9.056 568.942C0.843498 560.73 -4.17523 549.78 -3.71898 537.461C-3.71898 512.824 16.356 493.205 40.5373 493.205H84.7935V537.461C84.7935 562.555 65.1748 582.174 40.5373 582.174Z" fill="url(#paint4_linear_258_1425)"/>
<path d="M84.7942 164.706H40.538C15.9005 164.706 -3.71828 144.631 -3.71828 120.45C-3.71828 95.8121 16.3567 76.1933 40.538 76.1933C65.1755 76.1933 84.7942 96.2683 84.7942 120.45V164.706Z" fill="url(#paint5_linear_258_1425)"/>
<path d="M489.488 569.399C475.344 583.542 453.445 586.736 435.651 576.242C421.507 568.03 413.751 553.43 413.751 538.374C413.751 537.917 413.751 537.005 413.751 536.549V493.205H457.551C458.007 493.205 458.919 493.205 459.376 493.205C466.676 493.205 473.976 495.486 480.363 499.136C501.351 511.455 508.651 538.83 496.332 559.817C494.507 563.467 492.226 566.661 489.488 569.399Z" fill="url(#paint6_linear_258_1425)"/>
<path d="M459.377 164.253C458.92 164.253 458.92 164.253 458.464 164.253C458.008 164.253 458.008 164.253 457.551 164.253H414.208V119.996C414.208 95.3588 434.283 75.7401 458.464 75.7401C470.783 75.7401 481.733 80.7588 489.945 88.5151C498.158 96.7276 502.72 107.678 502.72 119.996C502.72 144.178 483.102 163.796 459.377 164.253Z" fill="url(#paint7_linear_258_1425)"/>
<defs>
<linearGradient id="paint0_linear_258_1425" x1="458.464" y1="0" x2="458.464" y2="657" gradientUnits="userSpaceOnUse">
<stop stop-color="#FF5082"/>
<stop offset="1"/>
</linearGradient>
<linearGradient id="paint1_linear_258_1425" x1="458.464" y1="0" x2="458.464" y2="657" gradientUnits="userSpaceOnUse">
<stop stop-color="#FF5082"/>
<stop offset="1"/>
</linearGradient>
<linearGradient id="paint2_linear_258_1425" x1="458.464" y1="0" x2="458.464" y2="657" gradientUnits="userSpaceOnUse">
<stop stop-color="#FF5082"/>
<stop offset="1"/>
</linearGradient>
<linearGradient id="paint3_linear_258_1425" x1="458.464" y1="0" x2="458.464" y2="657" gradientUnits="userSpaceOnUse">
<stop stop-color="#FF5082"/>
<stop offset="1"/>
</linearGradient>
<linearGradient id="paint4_linear_258_1425" x1="458.464" y1="0" x2="458.464" y2="657" gradientUnits="userSpaceOnUse">
<stop stop-color="#FF5082"/>
<stop offset="1"/>
</linearGradient>
<linearGradient id="paint5_linear_258_1425" x1="458.464" y1="0" x2="458.464" y2="657" gradientUnits="userSpaceOnUse">
<stop stop-color="#FF5082"/>
<stop offset="1"/>
</linearGradient>
<linearGradient id="paint6_linear_258_1425" x1="458.464" y1="0" x2="458.464" y2="657" gradientUnits="userSpaceOnUse">
<stop stop-color="#FF5082"/>
<stop offset="1"/>
</linearGradient>
<linearGradient id="paint7_linear_258_1425" x1="458.464" y1="0" x2="458.464" y2="657" gradientUnits="userSpaceOnUse">
<stop stop-color="#FF5082"/>
<stop offset="1"/>
</linearGradient>
</defs>
</svg>
