<svg width="91" height="91" viewBox="0 0 91 91" fill="none" xmlns="http://www.w3.org/2000/svg">
<path d="M12.9658 27.8915C14.2039 27.8915 15.4764 27.8915 16.7145 27.8915H16.6801C16.6801 28.4762 16.6801 29.0608 16.6801 29.6455C19.225 29.6455 21.6325 29.6455 24.0399 29.6455C24.0399 29.0265 24.0399 28.5106 24.0399 27.8915C23.4208 27.8915 22.8705 27.8915 22.2859 27.8915C22.2859 27.2381 22.2859 26.6878 22.2859 26C22.733 26 23.1801 26.0344 23.5584 25.9656C23.7647 25.9312 24.0399 25.6905 24.0742 25.5185C24.1086 24.4868 24.1086 23.455 24.1086 22.3201C22.8018 22.3201 21.6325 22.3201 20.4287 22.3201V22.3545C20.4287 21.1508 20.4287 19.9471 20.4287 18.6746C19.1563 18.6746 17.9869 18.6746 16.7489 18.6746C16.7489 19.2593 16.7489 19.8095 16.7489 20.4286C16.0954 20.4286 15.5108 20.4286 14.8917 20.4286C14.8917 16.7831 14.8917 13.1032 14.8917 9.3545C16.061 9.3545 17.2303 9.3545 18.5028 9.3545C18.5028 7.46296 18.5028 5.64021 18.5028 3.78307C19.8097 3.78307 21.0134 3.78307 22.2859 3.78307C22.2859 4.33333 22.2859 4.8836 22.2859 5.53704C22.9393 5.53704 23.4896 5.53704 24.1086 5.53704C24.1086 6.22487 24.1086 6.77513 24.1086 7.42857C22.9393 7.42857 21.77 7.42857 20.5319 7.42857C20.5319 8.04762 20.5319 8.59788 20.5319 9.21693C22.2859 9.21693 24.0742 9.21693 25.9658 9.21693C26.0002 8.66667 26.0002 8.08201 26.0346 7.39418C26.688 7.39418 27.3071 7.39418 27.9261 7.39418C27.9261 8.01323 27.9261 8.59788 27.9261 9.32011C28.5795 9.32011 29.1298 9.32011 29.7489 9.32011C29.7489 10.0079 29.7489 10.5926 29.7489 11.1772H29.7832C29.1642 11.1772 28.5795 11.1772 27.8917 11.1772C27.8917 12.4841 27.8917 13.6534 27.8917 14.9259C27.2383 14.9259 26.688 14.9259 26.1033 14.9259C26.1033 15.6138 26.1033 16.1984 26.1033 16.7831C25.4499 16.7831 24.8309 16.7487 24.1774 16.7487C24.1774 15.5106 24.1774 14.2725 24.1774 13.0344C24.7621 13.0344 25.3467 13.0344 25.9658 13.0344C25.9658 12.381 25.9658 11.8307 25.9658 11.246C25.3467 11.246 24.8309 11.246 24.2118 11.246C24.2118 11.8995 24.2118 12.4841 24.2118 13.0688C23.5928 13.0688 22.9737 13.0688 22.2859 13.0688C22.2859 12.381 22.2859 11.8307 22.2859 11.246C21.6325 11.246 21.1166 11.246 20.5319 11.246C20.4975 11.8651 20.4631 12.4497 20.4631 13C19.8097 13 19.225 13 18.5716 13C18.5716 12.381 18.5716 11.8307 18.5716 11.246C17.9526 11.246 17.4023 11.246 16.852 11.246C16.852 12.4841 16.852 13.619 16.852 14.8915C18.7092 14.8915 20.5319 14.8915 22.4235 14.8915C22.4235 15.545 22.4235 16.0952 22.4235 16.7143C23.0769 16.7143 23.6616 16.7143 24.2462 16.7143C24.2462 17.3677 24.2462 17.9868 24.2462 18.6058C23.6272 18.6058 23.0425 18.6058 22.4235 18.6058C22.4235 19.2593 22.4235 19.8095 22.4235 20.3254C24.1774 20.6005 24.1774 20.6005 24.2118 18.9841C24.2118 18.8466 24.2462 18.709 24.2462 18.5714C24.8309 18.5714 25.3811 18.5714 26.0002 18.5714C26.0346 17.8836 26.069 17.2989 26.1033 16.7143C26.688 16.7143 27.2727 16.7143 27.9949 16.7143C27.9949 17.9868 27.9949 19.2249 27.9949 20.463C27.3758 20.463 26.7912 20.463 26.1377 20.463C26.1377 21.1164 26.1377 21.6323 26.1377 22.1825C27.8917 22.4577 27.8917 22.4577 27.9261 20.8413C27.9261 20.7037 27.9605 20.5661 27.9605 20.4286C28.5795 20.4286 29.1642 20.4286 29.852 20.4286C29.852 21.1164 29.852 21.6667 29.852 22.2169C30.4711 22.2169 31.0213 22.2169 31.606 22.2169C31.6404 21.5979 31.6748 21.0476 31.7092 20.4286C32.2938 20.4286 32.8441 20.4286 33.4631 20.4286C33.4631 16.0608 33.4631 11.7963 33.4631 7.42857C31.606 7.42857 29.7832 7.42857 27.9949 7.42857C27.9261 6.84391 28.0637 6.12169 27.7885 5.74339C27.5478 5.43386 26.7568 5.60582 26.1721 5.53704C26.1721 4.91799 26.1721 4.29894 26.1721 3.71429V3.74868C27.3758 3.74868 28.5795 3.74868 29.8864 3.74868C29.8864 4.36772 29.8864 4.95238 29.8864 5.57143C31.1589 5.57143 32.3282 5.57143 33.6007 5.57143C33.6007 6.22487 33.6007 6.77513 33.6007 7.42857C34.8732 7.42857 36.0425 7.42857 37.315 7.42857C37.315 8.08201 37.315 8.63227 37.315 9.25132C37.934 9.25132 38.4499 9.25132 39.069 9.25132C39.069 8.04762 39.069 6.87831 39.069 5.60582C37.8653 5.60582 36.7303 5.60582 35.4922 5.60582C35.4578 4.98677 35.4235 4.40212 35.3891 3.74868C34.8044 3.74868 34.2541 3.74868 33.6351 3.74868C33.6351 2.47619 33.6351 1.27249 33.6351 0.0343915C34.8732 0.0343915 36.0769 0.0343915 37.315 0.0343915C37.315 0.619048 37.315 1.2037 37.315 1.85714C36.7303 1.85714 36.1801 1.85714 35.561 1.85714C35.561 2.47619 35.561 3.02645 35.561 3.6455C36.6959 3.6455 37.8653 3.6455 39.1377 3.6455C39.1377 2.47619 39.1377 1.30688 39.1377 0.0687831C41.0293 0.0687831 42.852 0.0687831 44.778 0.0687831C44.778 0.619048 44.778 1.16931 44.778 1.78836C45.4314 1.78836 45.9817 1.78836 46.6007 1.78836C46.6007 1.2037 46.6007 0.653439 46.6007 0.0343915C47.2541 0.0343915 47.8388 0.0343915 48.4922 0.0343915C48.4922 0.584656 48.4922 1.16931 48.4922 1.82275C47.942 1.82275 47.3917 1.82275 46.7383 1.82275C46.7383 3.09524 46.7383 4.29894 46.7383 5.57143C45.4658 5.57143 44.2965 5.57143 43.0584 5.57143C43.0584 6.19048 43.0584 6.74074 43.0584 7.35979C44.8123 7.35979 46.6007 7.35979 48.4922 7.35979C48.4922 6.15608 48.4922 4.98677 48.4922 3.71429C49.1113 3.71429 49.6615 3.71429 50.3494 3.71429C50.3494 2.4418 50.3494 1.2381 50.3494 0C52.2753 0 54.0981 0 55.9896 0C55.9896 1.2037 55.9896 2.37302 55.9896 3.61111C57.2277 3.61111 58.397 3.61111 59.6351 3.61111C59.6351 3.02645 59.6351 2.47619 59.6351 1.85714C60.2885 1.85714 60.8732 1.85714 61.561 1.85714C61.561 3.02645 61.561 4.23016 61.561 5.50265C62.2145 5.50265 62.7647 5.50265 63.3838 5.50265C63.3838 6.15608 63.3838 6.74074 63.3838 7.39418C62.7991 7.39418 62.2489 7.39418 61.6642 7.39418C61.6642 8.01323 61.6642 8.56349 61.6642 9.18254C63.4182 9.18254 65.1721 9.18254 67.0293 9.18254C67.0293 8.63227 67.0293 8.08201 67.0293 7.46296C66.479 7.42857 65.8944 7.39418 65.2753 7.35979C65.2753 6.77513 65.2753 6.19048 65.2753 5.57143C66.479 5.57143 67.7171 5.57143 69.024 5.57143C69.024 6.15608 69.024 6.70635 69.024 7.3254C69.643 7.3254 70.1933 7.3254 70.8467 7.3254C70.8811 7.97884 70.9155 8.56349 70.9499 9.21693C71.5346 9.21693 72.1192 9.21693 72.7383 9.21693C72.7383 10.455 72.7383 11.6587 72.7383 12.8968C73.3573 12.8968 73.9076 12.8968 74.5266 12.8968C74.5266 12.3122 74.5266 11.7619 74.5266 11.1772C75.1801 11.1772 75.7647 11.1772 76.4182 11.1772C76.4182 11.7275 76.4182 12.3122 76.4182 13C75.8679 13 75.3176 13 74.6986 13C74.6986 13.619 74.6986 14.1693 74.6986 14.8227C77.106 14.8227 79.5134 14.8227 81.9896 14.8227C81.9896 15.4762 81.9896 16.0608 81.9896 16.7143C81.4393 16.7143 80.8891 16.7143 80.27 16.7143C80.27 17.3333 80.27 17.8836 80.27 18.537C80.8203 18.537 81.3705 18.537 82.024 18.537C82.0584 19.1905 82.0928 19.7751 82.1272 20.4286C82.7462 20.4286 83.2965 20.4286 83.8811 20.4286C83.8811 21.082 83.8811 21.6667 83.8811 22.3201C83.2965 22.3201 82.7462 22.3201 82.0928 22.3201C82.0928 23.5582 82.0928 24.7619 82.0928 26.0344C80.8203 26.0344 79.6166 26.0344 78.3441 26.0344C78.3441 26.6878 78.3441 27.2381 78.3441 27.8915C77.725 27.8915 77.1748 27.8915 76.5557 27.8915C76.5557 29.1296 76.5557 30.2989 76.5557 31.537C77.106 31.537 77.6219 31.537 78.2409 31.537C78.2753 30.9868 78.3097 30.4021 78.3441 29.7831C79.5822 29.7831 80.7859 29.7831 81.9896 29.7831L82.024 29.8175C82.024 29.8862 82.0584 29.9894 82.0584 30.0582C82.1272 31.6402 82.1272 31.6058 83.7436 31.5714C84.3626 31.5714 84.9817 31.5714 85.7039 31.5714C85.7039 30.9524 85.7039 30.4021 85.7039 29.7831C86.3917 29.7831 86.9764 29.7831 87.6298 29.7831C87.6298 30.9868 87.6298 32.1561 87.6298 33.4286C88.9023 33.4286 90.0716 33.4286 91.2753 33.4286C91.2753 34.082 91.2753 34.6667 91.2753 35.3201C90.725 35.3201 90.1748 35.3201 89.487 35.3201C89.5213 35.9391 89.3494 36.6958 89.6245 36.9709C89.934 37.2804 90.6563 37.1772 91.2753 37.246C91.2753 37.7963 91.2753 38.3809 91.2753 39.0344C90.106 39.0344 88.9367 39.0344 87.8018 39.0344C87.733 39.172 87.6642 39.2407 87.6642 39.3095C87.5266 40.8915 87.5266 40.8915 89.143 40.8571C89.8309 40.8571 90.5531 40.8571 91.3097 40.8571C91.3097 42.7487 91.3097 44.537 91.3097 46.463C90.725 46.4974 90.1748 46.5317 89.4526 46.5317C89.5213 47.1164 89.4182 47.8386 89.7277 48.1481C90.0028 48.4233 90.7251 48.2857 91.3441 48.3201C91.3441 50.1429 91.3441 51.9656 91.3441 53.8571C90.7594 53.8571 90.1748 53.8571 89.487 53.8571C89.487 53.3069 89.487 52.7222 89.487 52.1032C88.8335 52.1032 88.2832 52.1032 87.6986 52.1032C87.6986 53.3069 87.6986 54.4418 87.6986 55.6799C88.9023 55.6799 90.0716 55.6799 91.3097 55.6799C91.3097 57.6058 91.3097 59.3942 91.3097 61.3201C90.725 61.3545 90.1748 61.3545 89.5557 61.3889C89.5557 61.9391 89.5557 62.4894 89.5557 63.1085C90.1404 63.1085 90.6907 63.1085 91.3097 63.1085C91.3097 64.3809 91.3097 65.5846 91.3097 66.8571C90.725 66.8915 90.1748 66.9259 89.5557 66.9603C89.5557 68.1296 89.5557 69.2989 89.5557 70.537C90.1404 70.537 90.6907 70.537 91.2753 70.537C91.2753 71.1905 91.2753 71.7751 91.2753 72.3942C91.069 72.4286 90.897 72.463 90.6907 72.463C89.3838 72.4973 89.487 72.2222 89.487 73.7698C89.487 74.5265 89.487 75.2831 89.487 76.1772C88.1801 76.1772 86.9076 76.1772 85.6695 76.1772C85.6007 76.1772 85.4975 76.1772 85.4287 76.1772C83.7779 76.1429 83.7436 76.2116 84.0531 77.9656C84.2938 77.9656 84.569 77.9656 84.8441 77.9656C85.1192 77.9656 85.3944 77.9656 85.7383 77.9656C85.7383 78.619 85.7383 79.2037 85.7383 79.8227C85.1536 79.8571 84.6033 79.8915 83.9843 79.9259C83.9843 81.7487 83.9843 83.537 83.9843 85.3942C83.3309 85.4286 82.7806 85.463 82.1615 85.4974C82.1615 86.0476 82.1615 86.5979 82.1615 87.2513C82.7118 87.2513 83.2621 87.2513 83.8811 87.2513C83.9155 87.9048 83.9499 88.4894 83.9843 89.1085C85.7727 89.1085 87.561 89.1085 89.3838 89.1085C89.3838 88.5926 89.3838 88.0423 89.3838 87.3889C88.2145 87.3889 87.0108 87.3889 85.7727 87.3889C85.7727 85.463 85.7727 83.6402 85.7727 81.7831C86.9764 81.7831 88.1801 81.7831 89.4526 81.7831C89.4526 82.3677 89.4526 82.918 89.4526 83.537C90.106 83.5714 90.6907 83.6058 91.3097 83.6402C91.3097 86.1164 91.3097 88.5582 91.3097 91.0344C87.561 91.0344 83.9155 91.0344 80.1668 91.0344C80.1668 90.4497 80.1668 89.8995 80.1668 89.2804C79.5478 89.2804 78.9975 89.2804 78.3441 89.2804C78.3441 89.8651 78.3441 90.4153 78.3441 91.0344C77.0372 91.0344 75.8679 91.0344 74.561 91.0344C74.561 90.4153 74.561 89.8651 74.561 89.2804C73.9764 89.2804 73.4261 89.2804 72.8071 89.2804C72.7727 89.8651 72.7383 90.4153 72.7039 91.0344C70.2277 91.0344 67.7859 91.0344 65.3097 91.0344C65.3097 90.4153 65.3097 89.8307 65.3097 89.1772C66.5134 89.1772 67.6827 89.1772 68.9208 89.1772C68.9208 88.5582 68.9208 88.0079 68.9208 87.4233C66.5478 87.4233 64.1404 87.4233 61.6986 87.4233C61.6986 87.9735 61.6986 88.5238 61.6986 89.1429C62.2488 89.1429 62.7991 89.1429 63.4182 89.1429C63.4182 89.7963 63.4182 90.3466 63.4182 91C62.8335 91 62.2489 91 61.561 91C61.561 90.4153 61.561 89.8651 61.561 89.2804C60.942 89.2804 60.4261 89.2804 59.8071 89.2804C59.8071 89.8651 59.8071 90.4153 59.8071 91.0344C57.8811 91.0344 56.0584 91.0344 54.1324 91.0344C54.1324 90.4497 54.1324 89.8995 54.1324 89.246C53.479 89.246 52.9287 89.246 52.2753 89.246C52.2753 88.5926 52.2753 88.0423 52.2753 87.4233C51.6563 87.4233 51.1404 87.4233 50.5213 87.4233C50.4869 87.9735 50.4526 88.5582 50.4182 89.1772C49.7991 89.2116 49.2488 89.2116 48.6298 89.246C48.6298 89.8307 48.6298 90.3809 48.6298 91C47.9764 91 47.3917 91 46.7383 91C46.7383 89.7963 46.7383 88.627 46.7383 87.3201C47.9076 87.3201 49.0769 87.3201 50.315 87.3201C50.315 86.701 50.315 86.1508 50.315 85.4974C49.1457 85.4974 47.9764 85.4974 46.8071 85.4974C46.6695 84.8095 46.7039 84.1217 46.3944 83.709C46.2224 83.4682 45.4658 83.6746 44.8811 83.6746C44.8811 84.2593 44.8811 84.8095 44.8811 85.463C44.2277 85.463 43.643 85.463 43.0584 85.463C43.024 85.4286 43.024 85.4286 42.9896 85.3942C42.9552 84.8783 42.9208 84.328 42.9208 83.709C42.3705 83.6746 41.8203 83.6402 41.1325 83.6058C41.1325 80.5794 41.1325 77.5185 41.1325 74.4233C40.4446 74.3889 39.8944 74.3545 39.3097 74.3545C39.3097 73.7354 39.3097 73.1508 39.3097 72.4974C39.8944 72.4974 40.4446 72.4974 41.0637 72.4974C41.0637 71.8783 41.0637 71.328 41.0637 70.6746C39.8256 70.6746 38.6563 70.6746 37.4182 70.6746C37.4182 70.0212 37.4182 69.4709 37.4182 68.8175C36.7647 68.8175 36.2145 68.8175 35.5954 68.8175C35.5954 67.545 35.5954 66.3757 35.5954 65.172C34.942 65.172 34.4261 65.172 33.8071 65.172C33.8071 65.7566 33.8071 66.3069 33.8071 66.9259C33.1536 66.9259 32.569 66.9259 31.9155 66.9259C31.9155 66.3413 31.9155 65.8254 31.9155 65.172C31.2621 65.172 30.7462 65.172 30.1272 65.172C30.1272 64.4841 30.1272 63.8995 30.1272 63.246C30.7118 63.246 31.2621 63.246 31.9155 63.246C31.9155 63.7963 31.9155 64.3809 31.9155 65C32.569 65 33.1192 65 33.7383 65C33.7383 64.4153 33.7383 63.8651 33.7383 63.2116C36.8679 63.2116 39.8944 63.2116 42.9896 63.2116C42.9896 61.9735 42.9896 60.8386 42.9896 59.6349C42.4393 59.6349 41.8891 59.6349 41.27 59.6349C41.27 60.1852 41.27 60.7354 41.27 61.3545C40.6166 61.3545 40.0319 61.3545 39.3785 61.3545C39.3441 60.7698 39.3097 60.2196 39.2753 59.6005C38.0716 59.6005 36.9367 59.6005 35.6986 59.6005C35.6642 60.1852 35.6298 60.7698 35.6298 61.3545C35.0108 61.3545 34.4261 61.3545 33.8071 61.3545C33.8071 60.7354 33.8071 60.1508 33.8071 59.463C34.3917 59.463 34.942 59.463 35.561 59.463C35.561 58.8439 35.561 58.328 35.561 57.709C35.0108 57.709 34.4605 57.709 33.8414 57.709C33.8414 57.0212 33.8414 56.4365 33.8414 55.7487C34.4261 55.7487 34.9764 55.7487 35.6298 55.7487C35.6298 55.0952 35.6298 54.545 35.6298 53.8915C36.2832 53.8915 36.8335 53.8915 37.4526 53.8915C37.4869 53.2381 37.5213 52.6878 37.5557 52.0688C38.1404 52.0344 38.6907 52 39.3097 52C39.3097 51.4153 39.3097 50.8995 39.3097 50.3148C38.1404 50.3148 37.0055 50.3148 35.7674 50.3148C35.733 50.8995 35.733 51.4497 35.6986 52.0688C35.0795 52.0688 34.4949 52.0688 33.8414 52.0688C33.8414 51.4841 33.8414 50.9339 33.8414 50.3148C31.9843 50.3148 30.1959 50.3148 28.3388 50.3148C28.3388 50.8307 28.3388 51.3809 28.3388 52C28.8891 52.0344 29.4737 52.0688 30.0928 52.0688C30.0928 52.6878 30.0928 53.2725 30.0928 53.9603C29.5081 53.9603 28.9578 53.9603 28.3044 53.9603C28.3044 54.6138 28.3044 55.164 28.3044 55.7831C27.651 55.7831 27.1007 55.7831 26.4129 55.7831C26.4129 55.2328 26.4129 54.6825 26.4129 54.0635C25.7938 54.0635 25.2436 54.0635 24.6245 54.0635C24.6245 55.1984 24.6245 56.3677 24.6245 57.6058C25.2092 57.6058 25.7594 57.6058 26.3785 57.6058C26.3785 58.2249 26.3785 58.7751 26.3785 59.4286C27.651 59.4286 28.8547 59.4286 30.0928 59.4286C30.0928 60.1164 30.0928 60.701 30.0928 61.3545C29.5425 61.3889 28.9578 61.3889 28.3044 61.4233C28.3044 62.0079 28.3044 62.5582 28.3044 63.1772C27.651 63.1772 27.0663 63.1772 26.4129 63.1772C26.4129 62.0079 26.4129 60.8386 26.4129 59.6005C25.7938 59.6005 25.2436 59.6005 24.6245 59.6005C24.6245 61.3545 24.6245 63.1429 24.6245 65C25.2092 65 25.7594 65 26.3785 65C26.3785 65.6534 26.3785 66.2381 26.3785 66.8915C25.8282 66.8915 25.2436 66.8915 24.5901 66.8915C24.5901 66.3413 24.5901 65.791 24.5901 65.172C23.9367 65.1376 23.352 65.1032 22.6986 65.0688C22.6986 64.4841 22.6986 63.9339 22.6986 63.2804C21.4261 63.2804 20.2568 63.2804 19.0187 63.2804C19.0187 62.627 19.0187 62.1111 19.0187 61.4233C16.5081 61.4233 14.0663 61.4233 11.5901 61.4233C11.5901 60.7354 11.5901 60.1508 11.5901 59.463C13.4129 59.463 15.2012 59.463 17.0584 59.463C17.0584 58.8439 17.0584 58.328 17.0584 57.709C16.5081 57.709 15.9578 57.709 15.3044 57.709C15.3044 57.0556 15.3044 56.5053 15.3044 55.8862C14.6854 55.8862 14.1351 55.8862 13.4817 55.8862C13.4473 56.4365 13.4129 57.0212 13.4129 57.6746C11.5557 57.6746 9.76737 57.6746 7.94462 57.6746C7.94462 59.5317 7.94462 61.2857 7.94462 63.1429C8.49489 63.1429 9.04515 63.1429 9.69859 63.1429C9.73298 63.7963 9.76737 64.3809 9.80176 65C10.3864 65 10.9367 65 11.5557 65C11.5557 64.4153 11.5557 63.8651 11.5557 63.246C12.2092 63.246 12.7938 63.246 13.4473 63.246C13.4473 63.8307 13.4473 64.3809 13.4473 65C14.0663 65 14.6166 65 15.27 65C15.27 64.4497 15.27 63.8995 15.27 63.2804C15.9235 63.2804 16.5081 63.2804 17.1272 63.2804C17.1272 63.8651 17.1272 64.4153 17.1272 65.1032C16.5769 65.1376 15.9922 65.172 15.3388 65.2063C15.3388 65.791 15.3388 66.3413 15.3388 66.9603C14.6854 66.9947 14.1007 67.0291 13.4473 67.0635C13.4473 67.6825 13.4473 68.2328 13.4473 68.8518C12.8282 68.8518 12.2436 68.8518 11.6589 68.8518C11.6589 69.4709 11.6589 69.9868 11.6589 70.5714C12.7938 70.5714 13.9631 70.5714 15.2356 70.5714C15.27 70.0212 15.3044 69.4709 15.3388 68.8175C16.5425 68.8175 17.7118 68.8175 18.9843 68.8175C18.9843 68.1984 18.9843 67.6481 18.9843 67.0291C19.6377 67.0291 20.2224 67.0291 20.8758 67.0291C20.8758 67.5794 20.8758 68.1296 20.8758 68.7831C22.7674 68.7831 24.5901 68.7831 26.4473 68.7831C26.4473 69.4365 26.4473 69.9868 26.4473 70.6058C27.0663 70.6058 27.6166 70.6058 28.27 70.6058C28.27 69.4365 28.27 68.2328 28.27 66.9947C28.9578 66.9947 29.5425 66.9947 30.1959 66.9947C30.1959 67.5794 30.1959 68.1296 30.1959 68.7831C31.4684 68.7831 32.6377 68.7831 33.9102 68.7831C33.9102 69.4365 33.9102 69.9868 33.9102 70.6058C34.5293 70.6058 35.0795 70.6058 35.733 70.6058C35.733 71.8783 35.733 73.0476 35.733 74.3201C36.3864 74.3201 36.9367 74.3201 37.5557 74.3201C37.5557 74.9735 37.5557 75.5926 37.5557 76.246C36.352 76.246 35.1483 76.246 33.8414 76.246C33.8414 75.627 33.8414 75.0767 33.8414 74.4921C33.2224 74.4921 32.7065 74.4921 32.0875 74.4921C32.0531 75.0423 32.0187 75.627 31.9843 76.2804C30.7806 76.2804 29.6113 76.2804 28.3732 76.2804C28.3732 76.8995 28.3732 77.4497 28.3732 78.0688C29.5425 78.0688 30.7118 78.0688 31.9843 78.0688C31.9843 78.7222 31.9843 79.2725 31.9843 79.8915C33.2568 79.8915 34.4261 79.8915 35.6642 79.8915C35.6642 79.3069 35.6642 78.7566 35.6642 78.1376C36.9367 78.1376 38.1404 78.1376 39.3785 78.1376C39.3785 78.7222 39.3785 79.2725 39.3785 79.9603C38.7938 79.9947 38.2436 80.0291 37.5901 80.0635C37.5901 80.6481 37.5901 81.1984 37.5901 81.8175C35.6986 81.8175 33.8758 81.8175 32.0187 81.8175C31.9843 81.2328 31.9499 80.6825 31.9499 80.0635C30.7462 80.0635 29.5769 80.0635 28.3388 80.0635C28.3388 80.6138 28.3388 81.164 28.3388 81.7831C27.6854 81.7831 27.1007 81.7831 26.4129 81.7831C26.4129 80.8889 26.3441 79.9947 26.4129 79.1005C26.4817 78.3095 26.2065 78 25.4155 78.1376C25.1748 78.172 24.8996 78.1376 24.5557 78.1376C24.5557 77.5185 24.5557 77.0026 24.5557 76.3492C23.9023 76.3492 23.3864 76.3492 22.7674 76.3492C22.7674 77.4841 22.7674 78.6534 22.7674 79.8915C23.3176 79.8915 23.8679 79.8915 24.4869 79.8915C24.4869 80.545 24.4869 81.164 24.4869 81.8518C23.2832 81.8518 22.1139 81.8518 20.8414 81.8518C20.8414 82.4709 20.8414 83.0212 20.8414 83.6402C20.188 83.6746 19.6033 83.709 19.0187 83.7434C19.0187 84.328 19.0187 84.8439 19.0187 85.463C20.2224 85.463 21.3917 85.463 22.6642 85.463C22.6642 86.1164 22.6642 86.6667 22.6642 87.3545C23.352 87.3545 23.9367 87.3545 24.5557 87.3545C24.5557 88.5926 24.5557 89.8307 24.5557 91.1032C23.9367 91.1032 23.3864 91.1032 22.6986 91.1032C22.6986 89.9339 22.6986 88.7302 22.6986 87.3889C21.3917 87.3889 20.188 87.3889 18.9843 87.3889C18.9843 86.8042 18.9843 86.2196 18.9843 85.6349C18.2965 85.6349 17.7462 85.6349 17.1959 85.6349C17.1959 86.254 17.1959 86.8042 17.1959 87.3545C17.8494 87.3545 18.434 87.3545 19.0187 87.3545C19.0187 87.9391 19.0187 88.5238 19.0187 89.2116C19.6033 89.2116 20.188 89.2116 20.8071 89.2116C20.8071 89.8995 20.8071 90.4497 20.8071 91.1032C20.188 91.1032 19.6377 91.1032 18.9843 91.1032C18.9843 90.5185 18.9843 89.9682 18.9843 89.3492C18.3653 89.3492 17.7806 89.3492 17.1616 89.3492C17.1616 88.7301 17.1616 88.1799 17.1616 87.5264C16.5081 87.4921 15.9235 87.4577 15.3044 87.4233C15.3044 85.5661 15.3044 83.7778 15.3044 81.8518C15.8891 81.8518 16.4393 81.8518 17.0584 81.8518C17.0584 80.6137 17.0584 79.4444 17.0584 78.2063C16.4737 78.172 15.9235 78.1376 15.3388 78.1376C15.3388 77.5185 15.3388 76.9339 15.3388 76.2804C15.8891 76.246 16.4737 76.2116 17.1272 76.2116C17.1272 75.0079 17.1272 73.8042 17.1272 72.5661C17.7462 72.5661 18.2965 72.5661 18.9155 72.5661C18.9155 71.9815 18.9155 71.4656 18.9155 70.8466C17.7462 70.8466 16.5769 70.8466 15.3044 70.8466C15.3044 72.0503 15.3044 73.2196 15.3044 74.4577C14.651 74.4577 14.1007 74.4577 13.4817 74.4577C13.4817 75.0767 13.4817 75.6614 13.4817 76.246C12.8282 76.246 12.2436 76.246 11.6245 76.246C11.6245 75.6614 11.6245 75.0767 11.6245 74.4233C12.1748 74.3889 12.7594 74.3545 13.3785 74.3201C13.3785 73.7698 13.3785 73.2196 13.3785 72.6005C12.1748 72.6005 10.9711 72.6005 9.69859 72.6005C9.69859 71.9127 9.69859 71.3624 9.69859 70.7778C9.07954 70.7434 8.52928 70.709 7.87584 70.709C7.87584 70.1243 7.87584 69.5741 7.87584 68.955C7.25679 68.955 6.70653 68.955 6.05309 68.955C6.05309 69.5053 6.05309 70.0555 6.05309 70.709C5.39965 70.7434 4.81499 70.7778 4.19594 70.8122C4.19594 71.3968 4.19594 71.9127 4.19594 72.5317C5.39965 72.5317 6.56896 72.5317 7.80705 72.5317C7.80705 73.1852 7.80705 73.7698 7.80705 74.4577C7.25679 74.4921 6.67213 74.5265 6.01869 74.5608C6.01869 75.1799 6.01869 75.7301 6.01869 76.3148C4.12716 76.3148 2.30441 76.3148 0.447266 76.3148C0.447266 75.6958 0.447266 75.1111 0.447266 74.4577C1.03192 74.4577 1.58219 74.4577 2.20123 74.4577C2.20123 73.2196 2.20123 72.0503 2.20123 70.8122C1.61658 70.7778 1.03192 70.7434 0.447266 70.7434C0.447266 69.4709 0.447266 68.2672 0.447266 66.9947C1.65097 66.9947 2.82028 66.9947 4.05838 66.9947C4.05838 66.41 4.05838 65.8598 4.05838 65.2407C3.50811 65.2407 2.92346 65.2407 2.27002 65.2407C2.27002 64.5873 2.27002 64.037 2.27002 63.418C1.61658 63.3836 1.06631 63.3492 0.447266 63.3148C0.447266 62.6958 0.447266 62.1111 0.447266 61.4921C1.03192 61.4921 1.61658 61.4921 2.27002 61.4921C2.27002 62.0767 2.27002 62.627 2.27002 63.2116C2.88906 63.2116 3.43933 63.2116 4.05838 63.2116C4.05838 62.0767 4.05838 60.9418 4.05838 59.6693C3.50811 59.6693 2.92346 59.6693 2.27002 59.6693C2.27002 59.0159 2.27002 58.4656 2.27002 57.8122C1.61658 57.8122 1.06631 57.8122 0.447266 57.8122C0.447266 55.2672 0.447266 52.8254 0.447266 50.3148C1.65097 50.3148 2.82028 50.3148 4.05838 50.3148C4.05838 49.6958 4.05838 49.1455 4.05838 48.5265C2.88906 48.5265 1.71975 48.5265 0.481657 48.5265C0.481657 44.1587 0.481657 39.8598 0.481657 35.4921C1.03192 35.4577 1.61658 35.4233 2.23563 35.4233C2.23563 34.8386 2.23563 34.3228 2.23563 33.7037C1.68536 33.7037 1.1007 33.7037 0.481657 33.7037C0.481657 32.3968 0.481657 31.2275 0.481657 29.955C1.06631 29.9206 1.61658 29.8862 2.23563 29.8862C2.23563 29.3016 2.23563 28.7857 2.23563 28.1667C1.68536 28.1667 1.1007 28.1667 0.481657 28.1667C0.481657 27.5132 0.481657 26.9286 0.481657 26.2751C1.71975 26.2751 2.92346 26.2751 4.16155 26.2751C4.19594 26.8598 4.23033 27.4444 4.26473 28.0635C4.88377 28.0979 5.43404 28.1323 6.08748 28.1667C6.08748 28.8201 6.08748 29.4392 6.08748 30.0582C5.46843 30.0582 4.88377 30.0582 4.26473 30.0582C4.26473 30.6772 4.26473 31.2275 4.26473 31.8122C4.88377 31.8466 5.46843 31.881 6.05309 31.9153C6.05309 33.0847 6.05309 34.2884 6.05309 35.4921C6.74092 35.5608 7.32557 35.5952 7.87584 35.664C7.87584 36.2143 7.87584 36.7645 7.87584 37.3836C8.56367 37.418 9.14832 37.4524 9.80176 37.4868C9.80176 38.1058 9.80176 38.6561 9.80176 39.2407C10.4208 39.2407 10.9711 39.2407 11.6245 39.2407C11.6245 38.6217 11.6245 38.0714 11.6245 37.4868C12.278 37.4524 12.8626 37.418 13.4129 37.3836C13.4129 36.7645 13.4129 36.2143 13.4129 35.6984C11.5213 35.6984 9.69859 35.6984 7.87584 35.6984C7.87584 35.0794 7.87584 34.4259 7.87584 33.7725C8.56367 33.7381 9.14832 33.7037 9.69859 33.6693C9.69859 33.0503 9.69859 32.5 9.69859 31.9497C8.4261 31.9497 7.2224 31.9497 6.05309 31.9497C6.05309 31.3307 6.05309 30.6772 6.08748 30.0582C6.67213 30.0238 7.25679 29.9894 7.87584 29.9894C7.91023 29.3704 7.94462 28.7857 7.97901 28.2354C9.2515 28.2354 10.4552 28.2354 11.6933 28.2354L11.6589 28.2011C11.6589 28.7857 11.6589 29.3704 11.6589 29.955C12.3811 29.9894 12.9658 30.0582 13.516 30.0926C13.516 30.7116 13.5504 31.3307 13.5504 31.9497C12.9314 31.9497 12.3467 31.9497 11.7277 31.9497C11.7277 32.5688 11.7277 33.0847 11.7277 33.6693C12.3467 33.6693 12.897 33.6693 13.516 33.6693C13.516 33.0503 13.516 32.4656 13.516 31.9153C14.1007 31.881 14.7198 31.8466 15.3044 31.8466C15.3044 31.2275 15.3044 30.6772 15.3044 30.127C14.651 30.127 14.0663 30.127 13.516 30.127C12.9658 29.164 13.0002 28.5106 12.9658 27.8915ZM79.7885 85.3598C80.4076 85.3598 80.9922 85.3598 81.6457 85.3598C81.6457 84.7751 81.6457 84.2593 81.6457 83.6746C81.061 83.6746 80.5108 83.6746 79.9605 83.6746C79.8917 84.2936 79.8573 84.8439 79.7885 85.3598C79.6854 85.4286 79.5478 85.463 79.4102 85.463C77.8626 85.5317 77.8626 85.5317 78.1377 87.2169C78.688 87.2169 79.2039 87.2169 79.7885 87.2169C79.7885 86.5635 79.7885 85.9788 79.7885 85.3598ZM33.4631 29.7831C32.8441 29.7831 32.2594 29.7831 31.5716 29.7831C31.5716 30.127 31.5716 30.4021 31.5716 30.6772C31.5716 30.9524 31.606 31.2275 31.606 31.4683C33.3256 31.709 33.3256 31.709 33.3944 30.0926C33.3944 29.9894 33.4287 29.8862 33.4631 29.7831C33.979 29.7143 34.7356 29.8862 35.0108 29.5767C35.3203 29.2672 35.2171 28.5106 35.2859 27.9603C35.2859 27.9259 35.3203 27.9259 35.3203 27.8915C35.9049 27.8915 36.4896 27.8915 37.1774 27.8915C37.1774 28.5106 37.1774 29.0608 37.1774 29.6455C37.7965 29.6455 38.3123 29.6455 39.0002 29.6455C39.0002 28.4074 39.0002 27.2037 39.0002 26C39.5848 26 40.2039 26 40.9261 26C40.9261 27.3413 40.9261 28.545 40.9261 29.7831C40.3071 29.7831 39.6536 29.7831 39.069 29.7831C39.069 31.6402 39.069 33.4286 39.069 35.2857C40.0663 35.2857 40.9605 35.2513 41.8891 35.2857C42.4737 35.3201 42.6801 35.1138 42.6801 34.5291C42.6457 33.5661 42.7489 32.5688 42.7832 31.6058C43.3679 31.6058 43.9526 31.6058 44.606 31.6058C44.606 32.2249 44.606 32.7751 44.606 33.4286C46.4975 33.4286 48.2859 33.4286 50.1086 33.4286C50.1086 34.1164 50.1086 34.7011 50.1086 35.3201C49.4896 35.3201 48.9393 35.3201 48.2859 35.3201C48.2859 35.9735 48.2859 36.5238 48.2859 37.2116C47.5981 37.2116 47.0478 37.2116 46.4975 37.2116C46.4975 37.8307 46.4975 38.3466 46.4975 38.8968C47.7012 38.8968 48.8705 38.8968 50.0399 38.8968C50.0742 38.2778 50.1086 37.7275 50.1086 37.0741C51.3811 37.0741 52.516 37.0741 53.7197 37.0741C53.7197 36.4206 53.7197 35.8704 53.7197 35.2513C53.1007 35.2513 52.5504 35.2513 51.9314 35.2513C51.9314 34.0132 51.9314 32.8439 51.9314 31.5714C51.3123 31.5714 50.7621 31.5714 50.143 31.5714C50.1086 30.918 50.0742 30.3333 50.0399 29.7487C49.4208 29.7487 48.9049 29.7487 48.2859 29.7487C48.2859 30.3677 48.2859 30.918 48.2859 31.5026C47.6324 31.5026 47.0478 31.5026 46.4287 31.5026C46.3944 30.918 46.3944 30.3333 46.36 29.7487C45.1219 29.7487 43.9526 29.7487 42.7145 29.7487C42.7489 30.4021 42.7832 30.9868 42.8176 31.5714C42.1642 31.5714 41.5451 31.5714 40.7885 31.5714C40.8573 30.8492 40.8917 30.2645 40.9261 29.7143C41.4764 29.6799 42.0266 29.6455 42.6113 29.6111C42.6113 27.754 42.6113 25.9656 42.6113 24.1085C41.9922 24.1085 41.442 24.1085 40.8573 24.1085C40.8573 23.455 40.8573 22.8704 40.8573 22.2857C42.0954 22.2857 43.2991 22.2857 44.5716 22.2857C44.5716 23.5238 44.5716 24.6931 44.5716 25.8968C45.225 25.9312 45.8097 25.9656 46.4631 26C46.4631 27.2381 46.4631 28.4074 46.4631 29.6111C47.0822 29.6111 47.5981 29.6111 48.1827 29.6111C48.2171 28.9921 48.2515 28.4074 48.2859 27.754C48.9393 27.754 49.4896 27.754 50.0055 27.754C50.0055 25.8624 50.0055 24.0741 50.0055 22.3201C49.4208 22.3201 48.8705 22.3201 48.2515 22.3201C48.2515 22.9392 48.2515 23.5238 48.2515 24.1085C47.5981 24.1085 47.0134 24.1085 46.4287 24.1085C46.4287 23.4894 46.4287 22.9048 46.4287 22.1825C47.0478 22.1825 47.5981 22.1825 48.1827 22.1825C48.2171 21.5291 48.2515 20.9788 48.2859 20.4286C48.9393 20.4286 49.524 20.4286 50.2118 20.4286C50.2118 21.0476 50.2118 21.6323 50.2118 22.2857C50.8653 22.2857 51.4155 22.2857 52.069 22.2857C52.069 22.9392 52.069 23.455 52.069 24.1085C53.3414 24.1085 54.5108 24.1085 55.7145 24.1085C55.7489 24.7619 55.7832 25.3466 55.8176 26C56.4367 26 56.9869 26 57.5716 26C57.5716 26.6534 57.5716 27.2381 57.5716 27.8915C56.9526 27.8915 56.4023 27.8915 55.8176 27.8915C55.8176 28.5106 55.8176 29.0608 55.8176 29.6455C57.0213 29.6455 58.1563 29.6455 59.3944 29.6455C59.3944 28.4074 59.3944 27.2381 59.3944 25.9312C61.3203 25.9312 63.1086 25.9312 64.9658 25.9312C64.9658 24.6587 64.9658 23.4894 64.9658 22.2513C66.2383 22.2513 67.4076 22.2513 68.6113 22.2513C68.6113 21.6323 68.6113 21.082 68.6113 20.4974C66.7885 20.4974 65.0002 20.4974 63.143 20.4974C63.143 21.1164 63.143 21.6667 63.143 22.2857C61.9049 22.2857 60.7356 22.2857 59.4975 22.2857C59.4631 22.9392 59.4287 23.5238 59.3944 24.0741C58.7409 24.0741 58.1563 24.0741 57.5372 24.0741C57.5028 23.455 57.4684 22.8704 57.4684 22.2169C56.1959 22.2169 55.0266 22.2169 53.7885 22.2169C53.7885 21.5635 53.7885 21.0132 53.7885 20.3942C53.1695 20.3942 52.5848 20.3942 52.0002 20.3942C51.9658 19.7407 51.9314 19.1561 51.9314 18.5714C48.8362 18.5714 45.8441 18.5714 42.7832 18.5714C42.7489 19.1905 42.7145 19.7751 42.7145 20.3254C41.442 20.3254 40.2383 20.3254 39.069 20.3254C39.069 19.7063 39.069 19.1217 39.069 18.4683C40.3071 18.4683 41.4764 18.4683 42.6457 18.4683C42.6457 17.8148 42.6457 17.2645 42.6457 16.6455C42.0266 16.6455 41.4764 16.6455 40.8917 16.6455C40.8573 15.9921 40.8229 15.4074 40.7885 14.8571C40.1695 14.8571 39.6536 14.8571 39.0002 14.8571C39.0002 15.4762 39.0002 16.0608 39.0002 16.7143C38.3467 16.7143 37.7965 16.7143 37.143 16.7143C37.143 17.3677 37.143 17.918 37.143 18.5714C36.4896 18.5714 35.9393 18.5714 35.3547 18.5714C35.3547 19.8439 35.3547 21.0476 35.3547 22.2513C34.7356 22.2513 34.151 22.2513 33.4975 22.2513C33.4975 23.5582 33.4975 24.7619 33.4975 25.9656C32.8785 25.9656 32.2938 25.9656 31.6748 25.9656C31.6748 26.5847 31.6748 27.1693 31.6748 27.7196C32.2594 27.7196 32.7753 27.7196 33.36 27.7196C33.3944 27.1005 33.4287 26.5159 33.4975 25.9312C34.0822 25.9312 34.7012 25.9312 35.2859 25.9312C35.3203 26.619 35.3547 27.2381 35.3891 27.8228C34.77 27.8228 34.1166 27.8228 33.4975 27.8228C33.4631 28.6138 33.4631 29.1984 33.4631 29.7831ZM40.9261 39.1032C40.3071 39.1032 39.7224 39.1032 39.0346 39.1032C39.0346 39.4471 39.0346 39.791 39.0346 40.1005C39.0346 40.3069 39.069 40.5476 39.069 40.754C40.7541 41.0635 40.7885 41.0291 40.8229 39.4815C40.8229 39.3439 40.8917 39.2063 40.9261 39.1032C41.0293 39.0344 41.1668 39 41.3044 39C42.7832 38.9312 42.7832 38.9312 42.6457 37.4524C42.6457 37.3836 42.5769 37.3148 42.5425 37.246C41.9922 37.246 41.4764 37.246 40.9261 37.246C40.8917 37.3836 40.8917 37.4868 40.8917 37.5899C40.8917 38.1058 40.9261 38.5873 40.9261 39.1032ZM37.2118 39.1032C35.9737 39.1032 34.77 39.1032 33.4975 39.1032C33.4975 39.6534 33.4975 40.2037 33.4975 40.754C33.6007 40.7884 33.6351 40.8227 33.7039 40.8227C34.3573 40.8227 34.9764 40.8228 35.6298 40.8571C37.0742 40.8915 37.0742 40.8915 37.143 39.4127C37.143 39.3095 37.143 39.172 37.2118 39.1032C37.315 39.0344 37.4526 39 37.5901 39C39.1034 38.9312 39.1034 38.9312 38.9658 37.4524C38.9658 37.3836 38.897 37.3148 38.8626 37.246C38.3123 37.246 37.7965 37.246 37.2118 37.246C37.2118 37.8651 37.2118 38.4841 37.2118 39.1032ZM35.3547 44.709C34.7356 44.6746 34.0822 44.6058 33.4631 44.5714C33.4287 43.9524 33.4287 43.4021 33.3944 42.8175C32.1563 42.8175 30.9869 42.8175 29.7832 42.8175C29.7832 43.4709 29.7832 44.0899 29.7832 44.709C29.1642 44.6746 28.5108 44.6058 27.8917 44.5714C27.8917 43.9524 27.8917 43.3677 27.8917 42.8175C28.4764 42.7487 29.0266 42.6799 29.6457 42.6455C29.6457 42.0608 29.6457 41.545 29.6457 40.9947C29.0266 40.9947 28.5108 40.9947 27.9261 40.9947C27.9261 41.6481 27.9261 42.2672 27.9261 42.8862C27.3071 42.8518 26.6536 42.7831 26.0346 42.7487C26.0346 42.1296 26.0346 41.545 26.0346 40.9947C26.6192 40.9259 27.2039 40.8915 27.7885 40.8227C27.8229 40.2037 27.8573 39.6534 27.8917 39.1032C29.7145 39.1032 31.5028 39.1032 33.4287 39.1032C33.4287 37.1085 33.4287 35.3201 33.4287 33.5317C33.5663 33.4974 33.7039 33.463 33.8414 33.463C35.3203 33.4286 35.3203 33.4286 35.2171 31.8466C35.2171 31.8122 35.1483 31.7434 35.1139 31.6746C34.5981 31.6746 34.0478 31.6746 33.4631 31.6746C33.4631 32.328 33.4631 32.9471 33.4631 33.5317C32.8441 33.5317 32.2594 33.5317 31.5372 33.5317C31.5372 34.1508 31.5372 34.7354 31.5372 35.3545C30.8838 35.3545 30.3335 35.3545 29.6801 35.3545C29.6801 35.9735 29.6801 36.5582 29.6801 37.246C29.0266 37.246 28.442 37.246 27.8917 37.246C27.8917 37.9339 27.8917 38.5185 27.8917 39.1032C27.2727 39.1032 26.6536 39.1032 26.0002 39.1032C26.0002 39.7566 26.0002 40.3757 26.0002 40.9947C25.3811 40.9603 24.7965 40.9259 24.143 40.8915C24.143 40.2725 24.143 39.6534 24.143 39.0688C24.7621 39.0344 25.3123 39 25.8626 39C25.8626 38.381 25.8626 37.8307 25.8626 37.2116C25.2436 37.2116 24.6933 37.2116 24.1086 37.2116C24.0742 36.5582 24.0399 36.0079 24.0399 35.4577C23.3864 35.4577 22.8362 35.4577 22.2515 35.4577C22.2515 36.0767 22.2515 36.627 22.2515 37.2116C21.5981 37.2116 21.0478 37.2116 20.4287 37.2116C20.3944 36.5926 20.36 36.0079 20.3256 35.3889C19.0875 35.3889 17.9182 35.3889 16.6801 35.3889C16.6801 34.7354 16.6801 34.1508 16.6801 33.5661C17.2647 33.5317 17.8838 33.463 18.4684 33.4286C18.4684 32.8095 18.4684 32.2936 18.4684 31.7778C17.8494 31.7778 17.2991 31.7778 16.7145 31.7778C16.7145 32.4312 16.7145 33.0159 16.7145 33.6005C16.0954 33.6005 15.5108 33.6005 14.8917 33.6005C14.8917 34.8042 14.8917 35.9735 14.8917 37.1772C15.5108 37.2116 16.061 37.246 16.7145 37.2804C16.7145 37.8995 16.7145 38.4497 16.7145 39.0688C17.3679 39.0688 17.9182 39.0688 18.5372 39.0688C18.5372 39.7222 18.5372 40.2725 18.5372 40.8915C19.1907 40.9259 19.7753 40.9603 20.4287 40.9947C20.4287 41.5794 20.4287 42.164 20.4287 42.7487C21.0822 42.7831 21.6668 42.8175 22.3203 42.8518C22.3203 44.0899 22.3203 45.2593 22.3203 46.463C22.9049 46.463 23.6616 46.6693 23.8679 46.4286C24.1774 46.0159 24.143 45.328 24.2462 44.7434C24.8309 44.7434 25.3811 44.7434 26.0346 44.7434C26.0346 45.3624 26.0346 45.9127 26.0346 46.4973C26.688 46.4973 27.2383 46.4973 27.7885 46.4973C29.5425 46.4973 29.5425 46.4973 29.7145 44.7778C30.2991 44.7434 30.8838 44.6746 31.5716 44.6402C31.5716 45.328 31.5716 45.8783 31.5716 46.463C32.8097 46.463 33.979 46.463 35.1827 46.463C35.2515 45.7751 35.2859 45.2249 35.3547 44.709C36.524 44.6058 37.6933 44.5714 38.9314 44.5026C38.9314 43.918 38.9314 43.3677 38.9314 42.8175C37.7277 42.8175 36.5584 42.8175 35.3547 42.8175C35.3547 43.4709 35.3547 44.0899 35.3547 44.709ZM83.5028 35.3889C83.5028 34.7698 83.5028 34.1852 83.5028 33.4974C83.1933 33.4974 82.9182 33.4974 82.643 33.4974C82.3679 33.4974 82.0928 33.5317 81.852 33.5317C81.5769 35.2513 81.5769 35.2513 83.1589 35.3201C83.2621 35.2857 83.3996 35.3201 83.5028 35.3889C83.5372 35.9392 83.5372 36.5238 83.5372 37.1772C82.9526 37.1772 82.4023 37.1772 81.7832 37.1772C81.7489 37.8307 81.7145 38.4153 81.7145 39.0688C81.0954 39.0688 80.5452 39.0688 79.9605 39.0688C79.9605 39.6878 79.9605 40.2381 79.9605 40.8915C81.1986 40.8915 82.3679 40.8915 83.606 40.8915C83.606 42.164 83.606 43.3333 83.606 44.537C85.4975 44.537 87.2859 44.537 89.0743 44.537C89.0743 43.9524 89.0743 43.4021 89.0743 42.7487C87.8362 42.7487 86.6325 42.7487 85.4975 42.7487C85.4975 40.8228 85.4975 39.0344 85.4975 37.1429C86.1166 37.1429 86.6668 37.1429 87.2171 37.1429C87.2171 35.9048 87.2171 34.7354 87.2171 33.5317C86.6325 33.5317 86.1166 33.5317 85.4975 33.5317C85.4631 34.1508 85.4287 34.7011 85.4287 35.3201C84.7409 35.3201 84.1219 35.3545 83.5028 35.3889ZM61.3203 70.5714C60.0134 70.5714 58.8097 70.5714 57.606 70.5714C57.606 69.918 57.606 69.2989 57.606 68.6455C58.8441 68.6455 60.0134 68.6455 61.2171 68.6455C61.2171 68.0265 61.2171 67.5106 61.2171 66.9603C60.5981 66.9259 60.0134 66.8915 59.36 66.8571C59.36 66.2381 59.36 65.6878 59.36 65.1376C58.7409 65.1376 58.1906 65.1376 57.5716 65.1376C57.5716 65.7566 57.5716 66.3069 57.5716 66.9259C56.9526 66.9259 56.4023 66.9259 55.7145 66.9259C55.7145 67.5794 55.7145 68.1296 55.7145 68.7143C55.0266 68.7143 54.442 68.7143 53.8573 68.7143C53.8573 68.0608 53.8573 67.5106 53.8573 66.8915C54.4764 66.8571 55.061 66.8227 55.6113 66.8227C55.6113 66.2037 55.6113 65.6878 55.6113 65.0688C53.1351 65.0688 50.7277 65.0688 48.2859 65.0688C48.2515 64.4153 48.2171 63.8651 48.2171 63.2804C47.6325 63.2804 47.0822 63.2804 46.5319 63.2804C46.5319 64.4841 46.5319 65.619 46.5319 66.8571C47.77 66.8571 48.9737 66.8571 50.2118 66.8571C50.2118 67.5106 50.2118 68.0608 50.2118 68.7143C50.8653 68.7143 51.4155 68.7143 52.069 68.7143C52.069 69.3677 52.069 69.918 52.069 70.5714C52.7224 70.5714 53.2727 70.5714 53.8573 70.5714C53.8573 71.2593 53.8573 71.8439 53.8573 72.4286C53.2383 72.463 52.688 72.4974 52.1033 72.4974C52.1033 73.082 52.1033 73.6323 52.1033 74.2513C52.7224 74.2513 53.2727 74.2513 53.8573 74.2513C53.8573 74.9048 53.8573 75.4894 53.8573 76.1085C53.2727 76.1429 52.688 76.1772 52.0346 76.2116C52.0346 76.8307 52.0346 77.3809 52.0346 77.9656C51.3811 78 50.7965 78.0344 50.2462 78.0688C50.2462 79.3069 50.2462 80.4418 50.2462 81.6111C50.8309 81.6111 51.3811 81.6111 52.0002 81.6111C52.0002 80.9921 52.0002 80.4418 52.0002 79.8915C53.9261 79.8915 55.7489 79.8915 57.6748 79.8915C57.6748 80.5106 57.6748 81.0608 57.6748 81.6455C58.2594 81.6455 58.8097 81.6455 59.36 81.6455C59.3944 81.0264 59.4287 80.4418 59.4631 79.8227C61.3203 79.8227 63.1086 79.8227 64.9314 79.8227C64.9658 79.1693 65.0002 78.5846 65.0002 78.0344C65.6536 78.0344 66.2383 78.0344 66.8573 78.0344C66.8573 78.6534 66.8573 79.2381 66.8573 79.9259C66.2383 79.9259 65.688 79.9259 65.1033 79.9259C65.1033 80.5794 65.1033 81.0952 65.1033 81.6799C66.3071 81.6799 67.442 81.6799 68.6801 81.6799C68.6801 81.0608 68.6801 80.4762 68.6801 79.8571C69.3335 79.8571 69.8838 79.8571 70.5372 79.8571C70.5372 79.2037 70.5372 78.6534 70.5372 78.0688C71.225 78.0688 71.8097 78.0688 72.4287 78.0688C72.4631 78.6878 72.4975 79.2725 72.4975 79.8227C73.1166 79.8227 73.6324 79.8227 74.1827 79.8227C74.1827 78.619 74.1827 77.4497 74.1827 76.2116C72.9446 76.2116 71.7753 76.2116 70.5028 76.2116C70.5028 75.5926 70.5028 75.0423 70.5028 74.4577C69.8838 74.4577 69.3335 74.4577 68.7832 74.4577C68.7488 75.0767 68.7145 75.627 68.7145 76.2116C67.442 76.2116 66.2383 76.2116 64.9658 76.2116C64.9658 75.5926 64.9658 75.0423 64.9658 74.4577C64.3123 74.4233 63.7277 74.3889 63.1774 74.3545C63.1774 73.082 63.1774 71.8783 63.1774 70.6058C64.4155 70.6058 65.5848 70.6058 66.7885 70.6058C66.7885 69.9868 66.7885 69.4365 66.7885 68.8175C66.1695 68.8175 65.6192 68.8175 65.0346 68.8175C65.0002 68.164 64.9658 67.5794 64.9658 67.0291C64.3467 67.0291 63.8309 67.0291 63.2118 67.0291C63.2118 67.6481 63.2118 68.1984 63.2118 68.8518C62.5584 68.8518 61.9737 68.8518 61.3547 68.8518C61.3203 69.4365 61.3203 69.9524 61.3203 70.5714ZM55.7832 46.4286C57.6748 46.4286 59.4631 46.4286 61.2515 46.4286C61.2515 47.082 61.2515 47.6667 61.2515 48.3545C60.0134 48.3545 58.8097 48.3545 57.5716 48.3545C57.5716 49.0079 57.5716 49.5582 57.5716 50.2116C56.9182 50.2116 56.3679 50.2116 55.7145 50.2116C55.7145 51.4841 55.7145 52.6534 55.7145 53.9259C55.061 53.9259 54.5108 53.9259 53.9605 53.9259C53.9605 54.545 53.9605 55.0608 53.9605 55.6111C55.7832 55.6111 57.5372 55.6111 59.3256 55.6111C59.3256 55.0264 59.3256 54.4762 59.3256 53.8571C58.7065 53.8571 58.1563 53.8571 57.5716 53.8571C57.5716 53.2037 57.5716 52.619 57.5716 52C58.1906 51.9656 58.7753 51.9312 59.4287 51.8968C59.4287 51.2434 59.4287 50.7275 59.4287 50.0741C60.7012 50.0741 61.8705 50.0741 63.0742 50.0741C63.1086 49.4206 63.143 48.8704 63.143 48.2857C63.7621 48.2513 64.3123 48.2169 64.9314 48.1825C64.9314 47.5635 64.9314 47.0476 64.9314 46.4286C64.3123 46.4286 63.7277 46.4286 63.1086 46.4286C63.1086 45.7751 63.1086 45.2249 63.1086 44.5714C62.4552 44.5714 61.9049 44.5714 61.3547 44.5714C61.3547 43.8836 61.3547 43.2989 61.3547 42.7143C61.9737 42.6799 62.524 42.6455 63.1086 42.6111C63.143 41.9921 63.1774 41.4418 63.1774 40.7884C63.7965 40.7884 64.3467 40.7884 64.9314 40.7884C64.9314 38.8968 64.9314 37.1429 64.9314 35.3201C64.3467 35.3201 63.8309 35.3201 63.2462 35.3201C63.2118 35.9391 63.1774 36.5238 63.143 37.0741C62.4896 37.0741 61.9049 37.0741 61.2171 37.0741C61.2171 36.455 61.2171 35.8704 61.2171 35.3201C60.5981 35.3201 60.0478 35.3201 59.4975 35.3201C59.4631 35.9391 59.4287 36.5238 59.4287 37.1429C58.8097 37.1429 58.225 37.1429 57.5716 37.1429C57.5716 37.7963 57.5716 38.3466 57.5716 39C56.2991 39 55.1298 39 53.8573 39C53.8573 39.6534 53.8573 40.2037 53.8573 40.8571C53.2039 40.8571 52.6536 40.8571 52.0002 40.8571C52.0002 41.5106 52.0002 42.0608 52.0002 42.7143C51.3467 42.7143 50.7965 42.7143 50.2462 42.7143C50.2462 43.3333 50.2462 43.8836 50.2462 44.5026C50.8653 44.5026 51.4155 44.5026 52.0346 44.5026C52.0346 45.7751 52.0346 46.9444 52.0346 48.1138C53.2727 48.1138 54.442 48.1138 55.6113 48.1138C55.6113 47.5291 55.6113 46.9788 55.6113 46.3942C54.9922 46.3942 54.442 46.3942 53.8573 46.3942C53.8573 45.1217 53.8573 43.918 53.8573 42.6111C54.4764 42.6111 55.0266 42.6111 55.6801 42.6111C55.6801 41.9577 55.6801 41.4074 55.6801 40.8227C56.3679 40.8227 56.9526 40.8227 57.5716 40.8227C57.5716 42.0952 57.5716 43.2989 57.5716 44.537C56.9526 44.537 56.4023 44.537 55.8176 44.537C55.7832 45.2249 55.7832 45.7751 55.7832 46.4286ZM65.0002 61.3545C65.0002 60.6323 65.0002 60.0476 65.0002 59.3942C66.2383 59.3942 67.4076 59.3942 68.6113 59.3942C68.6113 58.7751 68.6113 58.2249 68.6113 57.6058C67.9922 57.6058 67.442 57.6058 66.7885 57.6058C66.7885 56.3333 66.7885 55.1296 66.7885 53.8915C66.1351 53.8915 65.5848 53.8915 65.0002 53.8915C65.0002 53.2381 65.0002 52.6534 65.0002 51.9656C66.2383 51.9656 67.4076 51.9656 68.6801 51.9656C68.6801 51.3122 68.6801 50.7619 68.6801 50.1772C69.2991 50.1428 69.8838 50.1085 70.4684 50.1085C70.4684 49.5238 70.4684 48.9735 70.4684 48.4233C69.2647 48.4233 68.1298 48.4233 66.9261 48.4233C66.8917 49.0423 66.8573 49.627 66.8229 50.246C65.5848 50.246 64.4155 50.246 63.2118 50.246C63.1774 50.8995 63.143 51.4841 63.1086 52.1032C61.8362 52.1032 60.6668 52.1032 59.4975 52.1032C59.4975 52.7222 59.4975 53.2381 59.4975 53.7884C60.1166 53.8227 60.7012 53.8571 61.3547 53.8915C61.3547 54.5106 61.3547 55.0608 61.3547 55.7143C62.5928 55.7143 63.7621 55.7143 64.9658 55.7143C64.9658 56.4021 64.9658 56.9868 64.9658 57.6746C64.3467 57.6746 63.7965 57.6746 63.143 57.6746C63.143 58.328 63.143 58.9127 63.143 59.463C62.4552 59.463 61.8705 59.463 61.2171 59.463C61.2171 58.8439 61.2171 58.2936 61.2171 57.709C60.5981 57.709 60.0478 57.709 59.4975 57.709C59.4975 60.1508 59.4975 62.5238 59.4975 65.0344C60.1166 65.0344 60.7012 65.0344 61.3547 65.0344C61.3547 65.6878 61.3547 66.2381 61.3547 66.8227C61.9393 66.8227 62.4896 66.8227 63.1086 66.8227C63.1086 65.5846 63.1086 64.381 63.1086 63.2116C65.0346 63.2116 66.8573 63.2116 68.7488 63.2116C68.7488 63.8307 68.7488 64.3809 68.7488 64.9656C69.3679 64.9656 69.9182 64.9656 70.5372 64.9656C70.5372 64.3465 70.5372 63.7963 70.5372 63.1429C71.1907 63.1429 71.7409 63.1429 72.3256 63.1429C72.3256 62.5238 72.3256 62.0079 72.3256 61.3889C69.8838 61.3545 67.4764 61.3545 65.0002 61.3545ZM50.1086 57.5026C50.1086 56.2302 50.1086 55.0608 50.1086 53.7884C51.3811 53.7884 52.5848 53.7884 53.7541 53.7884C53.7541 53.1349 53.7541 52.619 53.7541 52.0344C52.516 52.0344 51.3467 52.0344 50.143 52.0344C50.1086 51.3809 50.0742 50.8307 50.0742 50.246C49.4896 50.246 48.9393 50.246 48.2859 50.246C48.2859 51.4841 48.2859 52.6878 48.2859 53.8571C47.6324 53.8571 47.0478 53.8571 46.3944 53.8571C46.3944 52.619 46.3944 51.4497 46.3944 50.246C44.5028 50.246 42.7145 50.246 40.9605 50.246C40.9605 50.8307 40.9605 51.3466 40.9605 52C42.1986 52 43.4023 52 44.5716 52C44.5716 53.3069 44.5716 54.5106 44.5716 55.7831C43.9526 55.7831 43.4023 55.7831 42.8176 55.7831C42.8176 56.4021 42.8176 56.9524 42.8176 57.5714C43.4367 57.5714 43.9869 57.5714 44.5716 57.5714C44.606 58.2249 44.6404 58.8095 44.6748 59.4286C45.2938 59.4286 45.8441 59.4286 46.4975 59.4286C46.4975 60.0476 46.4975 60.5979 46.4975 61.2169C47.151 61.2513 47.7356 61.2857 48.3547 61.3201C48.3547 61.9391 48.3547 62.4894 48.3547 63.0741C48.9737 63.0741 49.524 63.0741 50.0742 63.0741C50.1086 62.455 50.143 61.9048 50.143 61.3201C50.7965 61.3201 51.3811 61.3201 52.0002 61.3201C52.0346 61.9391 52.069 62.5238 52.1033 63.1429C53.3414 63.1429 54.5108 63.1429 55.7832 63.1429C55.7832 63.7963 55.7832 64.3466 55.7832 64.9312C56.4023 64.9312 56.9182 64.9312 57.5028 64.9312C57.5028 63.7275 57.5028 62.5926 57.5028 61.3545C56.2647 61.3545 55.0954 61.3545 53.8229 61.3545C53.8229 60.082 53.8229 58.9127 53.8229 57.7434C52.5848 57.7434 51.4155 57.7434 50.1774 57.7434C50.1774 58.3624 50.1774 58.9127 50.1774 59.463C49.524 59.463 48.9393 59.463 48.3203 59.463C48.2859 58.8783 48.2515 58.2936 48.2515 57.709C47.6325 57.6746 47.0822 57.6402 46.4975 57.6058C46.4975 56.9524 46.4975 56.3677 46.4975 55.7487C47.1166 55.7487 47.7012 55.7487 48.3203 55.7487C48.3547 56.3677 48.3891 56.9524 48.4235 57.537C48.9737 57.5026 49.4552 57.5026 50.1086 57.5026ZM53.8573 11.1429C53.8573 11.7963 53.8573 12.381 53.8573 12.9656C53.2383 12.9656 52.6536 12.9656 52.0346 12.9656C52.0002 12.3466 51.9658 11.7619 51.9314 11.2116C51.3123 11.2116 50.7965 11.2116 50.2462 11.2116C50.2462 12.4497 50.2462 13.5847 50.2462 14.8571C50.8653 14.8571 51.4155 14.8571 52.069 14.8571C52.069 16.1296 52.069 17.3333 52.069 18.5026C52.7224 18.5026 53.2383 18.5026 53.8229 18.5026C53.8229 17.2645 53.8229 16.0952 53.8229 14.8571C55.0954 14.8571 56.2647 14.8571 57.4684 14.8571C57.4684 14.2381 57.4684 13.6878 57.4684 13.0688C56.8494 13.0344 56.2991 13 55.7489 12.9656C55.7489 12.3122 55.7489 11.7275 55.7489 11.0741C56.3679 11.0741 56.9182 11.0741 57.4684 11.0741C57.4684 10.455 57.4684 9.90476 57.4684 9.25132C56.8494 9.25132 56.2991 9.25132 55.6801 9.25132C55.6801 7.97884 55.6801 6.80952 55.6801 5.60582C53.8229 5.60582 52.069 5.60582 50.2462 5.60582C50.2462 6.19048 50.2462 6.74074 50.2462 7.39418C51.4843 7.39418 52.6536 7.39418 53.8573 7.39418C53.8573 8.08201 53.8573 8.66667 53.8573 9.28571C53.2383 9.28571 52.688 9.28571 52.1377 9.28571C52.1377 9.90476 52.1377 10.455 52.1377 11.0741C52.7224 11.1429 53.2727 11.1429 53.8573 11.1429ZM76.0742 39.1032C73.6324 39.1032 71.225 39.1032 68.7488 39.1032C68.7488 40.3413 68.7488 41.545 68.7488 42.8175C66.8573 42.8175 65.069 42.8175 63.2462 42.8175C63.2462 43.4365 63.2462 43.9524 63.2462 44.537C63.8653 44.5714 64.4155 44.6058 65.1033 44.6402C65.1033 45.2593 65.1033 45.8095 65.1033 46.3942C65.7224 46.3942 66.2383 46.3942 66.8573 46.3942C66.8573 45.7751 66.8573 45.2249 66.8573 44.5714C69.3679 44.5714 71.8097 44.5714 74.3203 44.5714C74.3203 43.2989 74.3203 42.1296 74.3203 40.8571C74.9737 40.8571 75.524 40.8571 76.1086 40.8571C76.0742 40.2037 76.0742 39.6878 76.0742 39.1032ZM79.7885 33.4286C78.516 33.4286 77.3467 33.4286 76.0742 33.4286C76.0742 32.7751 76.0742 32.2249 76.0742 31.5714C74.8018 31.5714 73.6324 31.5714 72.36 31.5714C72.36 30.2989 72.36 29.0952 72.36 27.9259C71.7409 27.9259 71.1907 27.9259 70.6748 27.9259C70.6748 29.7487 70.6748 31.537 70.6748 33.4286C71.2938 33.4286 71.8441 33.4286 72.4631 33.4286C72.4631 34.254 72.4631 34.9762 72.4631 35.6984C72.4631 37.2116 72.4631 37.246 74.0108 37.0741C74.0452 37.0741 74.1139 37.0397 74.2171 36.9709C74.2515 36.4206 74.2859 35.8704 74.3203 35.3201C75.0081 35.3201 75.5584 35.3201 76.2462 35.3201C76.2462 36.5582 76.2462 37.7275 76.2462 38.8968C76.8652 38.8968 77.3811 38.8968 78.0002 38.8968C78.0002 37.6587 78.0002 36.4894 78.0002 35.2857C78.6536 35.2513 79.2383 35.2169 79.8229 35.1825C79.7885 34.5979 79.7885 34.082 79.7885 33.4286ZM5.53721 46.463C6.19065 46.4286 6.74092 46.3942 7.35996 46.3942C7.35996 44.5714 7.35996 42.7831 7.35996 40.9947C5.53721 40.9947 3.74885 40.9947 1.9261 40.9947C1.9261 42.1984 1.9261 43.3333 1.9261 44.537C2.54515 44.5714 3.09541 44.6058 3.78324 44.6402C3.78324 45.8783 3.78324 47.0476 3.78324 48.2169C4.43668 48.2169 4.95256 48.2169 5.5716 48.2169C5.53721 47.5979 5.53721 47.082 5.53721 46.463ZM70.5028 13C70.5028 11.6931 70.5028 10.5238 70.5028 9.32011C69.2647 9.32011 68.1298 9.32011 66.9605 9.32011C66.9605 9.90476 66.9605 10.455 66.9605 11.0741C67.5452 11.0741 68.0954 11.0741 68.7145 11.0741C68.7145 11.7275 68.7145 12.3122 68.7145 12.8968C68.061 12.8968 67.4764 12.8968 66.7885 12.8968C66.7885 12.2778 66.7885 11.7275 66.7885 11.1429C66.1695 11.1429 65.6536 11.1429 65.1033 11.1429C65.1033 12.3466 65.1033 13.5159 65.1033 14.754C66.3071 14.754 67.4764 14.754 68.7145 14.754C68.7489 15.4074 68.7832 15.9921 68.8176 16.5767C69.4367 16.5767 69.9526 16.5767 70.5028 16.5767C70.5372 15.9577 70.5716 15.373 70.606 14.754C71.225 14.754 71.7753 14.754 72.36 14.754C72.36 14.1349 72.36 13.5847 72.36 12.9656C71.7409 13 71.1907 13 70.5028 13ZM3.74885 53.9259C3.74885 55.1984 3.74885 56.3333 3.74885 57.5026C4.33351 57.5026 4.88377 57.5026 5.53721 57.5026C5.53721 56.8836 5.53721 56.3333 5.53721 55.6799C6.8097 55.6799 8.0134 55.6799 9.28589 55.6799C9.28589 54.4074 9.28589 53.2381 9.28589 51.9656C10.5584 51.9656 11.7277 51.9656 12.897 51.9656C12.897 51.3466 12.897 50.7963 12.897 50.2804C11.0399 50.2804 9.2515 50.2804 7.39436 50.2804C7.39436 50.8995 7.39436 51.4497 7.39436 52.0688C6.77531 52.0688 6.22504 52.0688 5.606 52.0688C5.5716 52.7222 5.53721 53.3069 5.50282 53.9259C4.91817 53.9259 4.3679 53.9259 3.74885 53.9259ZM40.9605 65.0344C40.9605 66.3069 40.9605 67.4762 40.9605 68.7143C42.1986 68.7143 43.3679 68.7143 44.5716 68.7143C44.5716 69.3677 44.5716 69.9524 44.5716 70.5714C43.9526 70.6058 43.4023 70.6402 42.7832 70.6402C42.7832 71.2593 42.7832 71.7751 42.7832 72.3254C43.9869 72.3254 45.1563 72.3254 46.3256 72.3254C46.3256 70.5026 46.3256 68.7487 46.3256 66.9259C45.7409 66.8915 45.1906 66.8571 44.5028 66.8227C44.5028 65.5846 44.5028 64.4153 44.5028 63.2116C43.8494 63.2116 43.3335 63.2116 42.7145 63.2116C42.7145 63.8307 42.7145 64.4153 42.7145 65C42.0954 65.0344 41.5451 65.0344 40.9605 65.0344ZM76.1086 63.1085C76.7965 63.1085 77.3467 63.1085 78.0002 63.1085C78.0002 61.836 78.0002 60.6667 78.0002 59.3942C78.6536 59.3942 79.2039 59.3942 79.7541 59.3942C79.7541 58.7751 79.7541 58.2249 79.7541 57.709C78.5504 57.709 77.4155 57.709 76.2118 57.709C76.1774 58.328 76.143 58.9127 76.1086 59.5661C75.4896 59.5661 74.9393 59.5661 74.2859 59.5661C74.2859 61.4233 74.2859 63.2116 74.2859 65.0344C73.6324 65.0688 73.0478 65.1032 72.4975 65.1376C72.4975 65.7566 72.4975 66.2725 72.4975 66.8227C73.7012 66.8227 74.8362 66.8227 76.0742 66.8227C76.1086 65.5846 76.1086 64.4153 76.1086 63.1085ZM29.6113 35.2169C29.6113 32.0873 29.6113 29.0608 29.6113 26.0688C29.0266 26.0688 28.4764 26.0688 27.8573 26.0688C27.8573 27.3069 27.8573 28.4762 27.8573 29.7831C26.5848 29.7831 25.3811 29.7831 24.1774 29.7831C24.1774 31.0212 24.1774 32.1561 24.1774 33.3598C24.7277 33.3598 25.5187 33.5661 25.725 33.3254C26.0346 32.9127 25.9658 32.1905 26.069 31.6058C26.6536 31.6058 27.2039 31.6058 27.8917 31.6058C27.8917 32.8439 27.8917 34.0132 27.8917 35.2169C28.5108 35.2169 29.061 35.2169 29.6113 35.2169ZM42.7832 14.7884C44.606 14.7884 46.3944 14.7884 48.1827 14.7884C48.1827 12.9312 48.1827 11.1772 48.1827 9.3545C46.36 9.3545 44.606 9.3545 42.7832 9.3545C42.7832 11.1772 42.7832 12.9656 42.7832 14.7884ZM14.7885 48.2169C14.7885 46.3598 14.7885 44.6058 14.7885 42.8175C12.9658 42.8175 11.1774 42.8175 9.35467 42.8175C9.35467 44.6402 9.35467 46.4286 9.35467 48.2169C11.1774 48.2169 12.9314 48.2169 14.7885 48.2169ZM76.2462 76.246C76.2462 78.0688 76.2462 79.8571 76.2462 81.6455C78.069 81.6455 79.8229 81.6455 81.6113 81.6455C81.6113 79.8227 81.6113 78.0344 81.6113 76.246C79.7885 76.246 78.0346 76.246 76.2462 76.246ZM81.6113 48.2169C81.6113 46.3942 81.6113 44.6058 81.6113 42.8175C79.7885 42.8175 78.0346 42.8175 76.2462 42.8175C76.2462 44.6402 76.2462 46.4286 76.2462 48.2169C78.069 48.2169 79.8229 48.2169 81.6113 48.2169ZM42.7832 42.8175C42.7832 44.6402 42.7832 46.3942 42.7832 48.2169C44.606 48.2169 46.3944 48.2169 48.1827 48.2169C48.1827 46.3942 48.1827 44.6402 48.1827 42.8175C46.3944 42.8175 44.6404 42.8175 42.7832 42.8175ZM42.8176 76.246C42.8176 78.0688 42.8176 79.8571 42.8176 81.6455C44.6404 81.6455 46.3944 81.6455 48.1827 81.6455C48.1827 79.8227 48.1827 78.0344 48.1827 76.246C46.36 76.246 44.606 76.246 42.8176 76.246ZM85.36 57.6058C85.36 56.2989 85.36 55.1296 85.36 53.9603C84.1219 53.9603 82.9526 53.9603 81.7832 53.9603C81.7832 54.545 81.7832 55.0608 81.7832 55.6455C82.4023 55.6799 82.9526 55.7143 83.5372 55.7487C83.5372 56.4365 83.5372 56.9868 83.5372 57.6746C82.9182 57.6746 82.3679 57.6746 81.8176 57.6746C81.8176 58.2936 81.8176 58.8095 81.8176 59.3598C84.2594 59.3598 86.6668 59.3598 89.0743 59.3598C89.0743 58.7751 89.0743 58.2249 89.0743 57.6402C87.8362 57.6058 86.6668 57.6058 85.36 57.6058ZM64.9658 83.6402C64.9658 82.9868 64.9658 82.4021 64.9658 81.8175C63.1086 81.8175 61.3203 81.8175 59.5319 81.8175C59.5319 83.0212 59.5319 84.1905 59.5319 85.3598C60.1166 85.3598 60.6668 85.3598 61.2859 85.3598C61.2859 84.7407 61.2859 84.1905 61.2859 83.6402C61.9393 83.6402 62.5584 83.6402 63.2118 83.6402C63.2118 84.2593 63.2118 84.8095 63.2118 85.3598C64.4499 85.3598 65.6192 85.3598 66.7541 85.3598C66.7541 84.7751 66.7541 84.2593 66.7541 83.6402C66.2039 83.6402 65.688 83.6402 64.9658 83.6402ZM87.2171 51.9312C87.2171 50.1085 87.2171 48.3201 87.2171 46.5317C86.0134 46.5317 84.8441 46.5317 83.6748 46.5317C83.6748 47.7354 83.6748 48.8704 83.6748 50.1085C84.2594 50.1085 84.8097 50.1085 85.4287 50.1085C85.4631 50.7619 85.4975 51.3466 85.5319 51.9312C86.1166 51.9312 86.6325 51.9312 87.2171 51.9312ZM70.4684 27.8571C70.4684 27.2037 70.4684 26.6534 70.4684 26.0688C68.6457 26.0688 66.8917 26.0688 65.1033 26.0688C65.1033 27.2725 65.1033 28.4418 65.1033 29.6455C66.3071 29.6455 67.442 29.6455 68.6457 29.6455C68.6801 29.0265 68.7145 28.4762 68.7145 27.8228C69.3335 27.8571 69.8494 27.8571 70.4684 27.8571ZM40.7541 59.3598C40.7541 56.918 40.7541 54.5106 40.7541 52.1376C40.1351 52.1376 39.5848 52.1376 38.9658 52.1376C38.9658 52.7566 38.9658 53.3069 38.9658 53.9603C38.3123 53.9603 37.7621 53.9603 37.2118 53.9603C37.2118 54.5794 37.2118 55.1296 37.2118 55.7143C37.8309 55.7143 38.3811 55.7143 39.0346 55.7143C39.0346 56.9868 39.0346 58.1905 39.0346 59.3598C39.688 59.3598 40.2039 59.3598 40.7541 59.3598ZM50.2118 85.4286C50.8653 85.4286 51.4155 85.4286 52.0346 85.4286C52.0346 86.082 52.0346 86.6323 52.0346 87.2169C52.6536 87.2169 53.1695 87.2169 53.7541 87.2169C53.7885 86.5979 53.8229 86.0132 53.8573 85.3942C54.4764 85.3942 55.0266 85.3942 55.6113 85.3942C55.6113 84.7751 55.6113 84.2249 55.6113 83.6402C54.9922 83.6058 54.442 83.5714 53.8573 83.537C53.8229 82.918 53.7885 82.3677 53.7885 81.8175C53.1695 81.8175 52.6536 81.8175 52.0002 81.8175C52.0002 82.4365 52.0002 82.9868 52.0002 83.5714C51.3467 83.6058 50.7965 83.6402 50.2118 83.6402C50.2118 84.2593 50.2118 84.7751 50.2118 85.4286ZM20.4975 52.0344C20.4975 52.6878 20.4975 53.2037 20.4975 53.754C21.7356 53.754 22.8705 53.754 24.143 53.754C24.143 53.1349 24.143 52.5847 24.143 52C24.7965 51.9656 25.3467 51.9312 25.897 51.8968C25.897 50.6587 25.897 49.5238 25.897 48.3889C25.278 48.3889 24.7277 48.3889 24.1086 48.3889C24.1086 49.0079 24.1086 49.5582 24.1086 50.2116C23.4552 50.2116 22.9049 50.2116 22.2515 50.2116C22.2515 50.8651 22.2515 51.4153 22.2515 52.0344C21.6325 52.0344 21.0822 52.0344 20.4975 52.0344ZM70.6748 59.3254C71.8785 59.3254 73.0478 59.3254 74.2171 59.3254C74.2171 57.5026 74.2171 55.7487 74.2171 53.9603C73.0134 53.9603 71.8441 53.9603 70.6748 53.9603C70.6748 54.545 70.6748 55.0608 70.6748 55.6455C71.2938 55.6799 71.8441 55.7143 72.3944 55.7143C72.3944 56.3677 72.3944 56.9868 72.3944 57.6402C71.7753 57.6402 71.225 57.6402 70.6404 57.6402C70.6748 58.2593 70.6748 58.7751 70.6748 59.3254ZM72.4975 74.1825C75.5928 74.1825 78.6192 74.1825 81.6457 74.1825C81.6457 73.5979 81.6457 73.082 81.6457 72.5317C78.5848 72.5317 75.5584 72.5317 72.4975 72.5317C72.4975 73.1164 72.4975 73.6323 72.4975 74.1825ZM70.6748 18.5026C73.1166 18.5026 75.524 18.5026 77.9314 18.5026C77.9314 17.8836 77.9314 17.3333 77.9314 16.7831C75.4896 16.7831 73.1166 16.7831 70.6748 16.7831C70.6748 17.3677 70.6748 17.918 70.6748 18.5026ZM13.0346 53.7884C13.688 53.8227 14.2383 53.8571 14.8917 53.8915C14.8917 54.545 14.8917 55.0952 14.8917 55.6111C16.1298 55.6111 17.2991 55.6111 18.4684 55.6111C18.4684 55.0264 18.4684 54.5106 18.4684 53.8915C17.8494 53.8915 17.2991 53.8915 16.7145 53.8915C16.6801 53.2381 16.6457 52.6534 16.6113 52.1032C15.3732 52.1032 14.2039 52.1032 13.0002 52.1032C13.0346 52.6878 13.0346 53.1693 13.0346 53.7884ZM22.2171 50.1085C22.2171 49.455 22.2171 48.9391 22.2171 48.3889C20.979 48.3889 19.8097 48.3889 18.5372 48.3889C18.5372 49.0079 18.5372 49.5582 18.5372 50.1772C17.9182 50.1772 17.3679 50.1772 16.7832 50.1772C16.7832 50.7963 16.7832 51.3466 16.7832 51.8624C18.0213 51.8624 19.1907 51.8624 20.4287 51.8624C20.4287 51.2434 20.4287 50.6931 20.4287 50.0741C21.0478 50.1085 21.5981 50.1085 22.2171 50.1085ZM70.6748 20.4974C70.6748 22.3201 70.6748 24.1085 70.6748 25.9312C71.2594 25.9312 71.8097 25.9312 72.4287 25.9312C72.4287 24.6931 72.4287 23.5238 72.4287 22.3201C73.0822 22.2857 73.6325 22.2513 74.2171 22.2169C74.2171 21.5979 74.2171 21.0476 74.2171 20.4974C72.979 20.4974 71.8441 20.4974 70.6748 20.4974ZM18.5028 40.9603C17.8838 40.9603 17.3335 40.9603 16.7832 40.9603C16.7832 42.7831 16.7832 44.537 16.7832 46.3598C17.3679 46.3598 17.9182 46.3598 18.5028 46.3598C18.5028 44.537 18.5028 42.7831 18.5028 40.9603ZM85.5319 68.8175C85.5319 70.6746 85.5319 72.4286 85.5319 74.2169C86.151 74.2169 86.7012 74.2169 87.2171 74.2169C87.2171 72.3942 87.2171 70.6402 87.2171 68.8175C86.6668 68.8175 86.1166 68.8175 85.5319 68.8175ZM63.0399 14.7884C63.0399 13.5503 63.0399 12.381 63.0399 11.2116C62.4552 11.2116 61.9393 11.2116 61.3547 11.2116C61.3203 11.8307 61.2859 12.381 61.2859 13.0344C60.6668 13.0344 60.1166 13.0344 59.5319 13.0344C59.5319 13.6534 59.5319 14.2037 59.5319 14.7884C60.7012 14.7884 61.8362 14.7884 63.0399 14.7884ZM61.3547 18.5026C62.5928 18.5026 63.7277 18.5026 64.8626 18.5026C64.8626 17.2645 64.8626 16.0952 64.8626 14.9259C64.278 14.9259 63.7621 14.9259 63.2118 14.9259C63.1774 15.545 63.143 16.1296 63.1086 16.7487C62.4896 16.7487 61.9393 16.7487 61.3547 16.7487C61.3547 17.3677 61.3547 17.8836 61.3547 18.5026ZM59.36 85.4974C58.1219 85.4974 56.9869 85.4974 55.8176 85.4974C55.8176 86.082 55.8176 86.6323 55.8176 87.2857C56.4367 87.2857 56.9869 87.2857 57.6404 87.2857C57.6404 87.9391 57.6404 88.4894 57.6404 89.0741C58.2594 89.0741 58.8097 89.0741 59.36 89.0741C59.36 87.8704 59.36 86.7354 59.36 85.4974ZM78.1033 50.246C78.1033 51.4497 78.1033 52.619 78.1033 53.7884C79.3071 53.7884 80.4764 53.7884 81.6457 53.7884C81.6457 53.2037 81.6457 52.6878 81.6457 52.0688C81.0266 52.0688 80.442 52.0688 79.8229 52.0688C79.8229 51.4153 79.8229 50.8651 79.8229 50.2804C79.2039 50.246 78.688 50.246 78.1033 50.246ZM78.1033 65.1032C78.1033 66.3413 78.1033 67.4762 78.1033 68.6111C79.3414 68.6111 80.4764 68.6111 81.6457 68.6111C81.6457 68.0265 81.6457 67.5106 81.6457 66.9259C81.0266 66.8915 80.442 66.8571 79.8229 66.8227C79.8229 66.2037 79.8229 65.6534 79.8229 65.0688C79.2039 65.1032 78.688 65.1032 78.1033 65.1032ZM37.0399 12.9312C37.0399 11.6931 37.0399 10.5238 37.0399 9.3545C36.4552 9.3545 35.9049 9.3545 35.3891 9.3545C35.3891 10.5926 35.3891 11.7619 35.3891 12.9312C35.9737 12.9312 36.4896 12.9312 37.0399 12.9312ZM53.7885 27.9603C52.5504 27.9603 51.3811 27.9603 50.2806 27.9603C50.2806 28.5794 50.2806 29.1296 50.2806 29.6455C51.4843 29.6455 52.6192 29.6455 53.7885 29.6455C53.7885 29.0608 53.7885 28.5106 53.7885 27.9603ZM81.7832 72.3598C82.4023 72.3598 82.9182 72.3598 83.5028 72.3598C83.5028 71.1561 83.5028 70.0212 83.5028 68.8175C82.9182 68.8175 82.3679 68.8175 81.7832 68.8175C81.7832 70.0212 81.7832 71.1561 81.7832 72.3598ZM74.2171 83.6058C73.4949 83.6058 72.8414 83.6058 72.1536 83.6058C70.4684 83.5714 70.434 83.6058 70.7092 85.3598C71.8441 85.3598 73.0134 85.3598 74.2171 85.3598C74.2171 84.8095 74.2171 84.2936 74.2171 83.6058ZM63.2462 29.7831C63.2462 31.0212 63.2462 32.1561 63.2462 33.3598C63.8309 33.3598 64.3467 33.3598 64.897 33.3598C64.897 32.1561 64.897 30.9868 64.897 29.7831C64.3467 29.7831 63.8309 29.7831 63.2462 29.7831ZM22.2171 59.5661C20.979 59.5661 19.8097 59.5661 18.6404 59.5661C18.6404 60.1508 18.6404 60.6667 18.6404 61.2169C19.8441 61.2169 21.0134 61.2169 22.2171 61.2169C22.2171 60.6323 22.2171 60.1164 22.2171 59.5661ZM25.9314 70.6746C24.6933 70.6746 23.524 70.6746 22.3547 70.6746C22.3547 71.2593 22.3547 71.8095 22.3547 72.3254C23.5928 72.3254 24.7277 72.3254 25.9314 72.3254C25.9314 71.7751 25.9314 71.2936 25.9314 70.6746ZM74.3547 85.4974C74.3547 86.7354 74.3547 87.8704 74.3547 89.0741C74.9393 89.0741 75.4896 89.0741 76.0399 89.0741C76.0399 87.8704 76.0399 86.701 76.0399 85.4974C75.4896 85.4974 74.9737 85.4974 74.3547 85.4974ZM85.4975 66.7884C86.7356 66.7884 87.8705 66.7884 89.0399 66.7884C89.0399 66.2037 89.0399 65.6534 89.0399 65.1032C87.8362 65.1032 86.7012 65.1032 85.4975 65.1032C85.4975 65.6534 85.4975 66.1693 85.4975 66.7884ZM7.46314 68.6111C8.73563 68.6111 9.87055 68.6111 11.0743 68.6111C11.0743 68.0265 11.0743 67.5106 11.0743 66.9947C9.83615 66.9947 8.66684 66.9947 7.46314 66.9947C7.46314 67.5794 7.46314 68.0608 7.46314 68.6111ZM65.1033 72.5317C65.1033 73.1164 65.1033 73.6667 65.1033 74.2169C66.3071 74.2169 67.442 74.2169 68.6113 74.2169C68.6113 73.6323 68.6113 73.082 68.6113 72.5317C67.4076 72.5317 66.2727 72.5317 65.1033 72.5317ZM48.3891 70.6402C48.3891 71.9127 48.3891 73.0476 48.3891 74.1825C48.9737 74.1825 49.524 74.1825 50.0055 74.1825C50.0055 72.9788 50.0055 71.8095 50.0055 70.6402C49.4552 70.6402 48.9393 70.6402 48.3891 70.6402ZM65.1033 66.754C66.3071 66.754 67.4764 66.754 68.6457 66.754C68.6457 66.1693 68.6457 65.6534 68.6457 65.1032C67.442 65.1032 66.2727 65.1032 65.1033 65.1032C65.1033 65.6878 65.1033 66.2037 65.1033 66.754ZM74.1827 51.9312C74.1827 50.7275 74.1827 49.5582 74.1827 48.3889C73.5981 48.3889 73.0822 48.3889 72.5319 48.3889C72.5319 49.5926 72.5319 50.7619 72.5319 51.9312C73.1166 51.9312 73.5981 51.9312 74.1827 51.9312ZM20.4631 33.3254C22.2515 33.6349 22.4922 33.3942 22.1483 31.6746C21.5981 31.6746 21.0478 31.6746 20.4631 31.6746C20.4631 32.2249 20.4631 32.7407 20.4631 33.3254ZM1.89171 33.3598C2.51076 33.3598 3.06102 33.3598 3.61129 33.3598C3.61129 32.7407 3.61129 32.2249 3.61129 31.6746C3.02663 31.6746 2.47637 31.6746 1.89171 31.6746C1.89171 32.2249 1.89171 32.7407 1.89171 33.3598ZM35.3547 37.0397C35.9393 37.0397 36.4896 37.0397 37.0742 37.0397C37.0742 36.4206 37.0742 35.9048 37.0742 35.3545C36.4896 35.3545 35.9393 35.3545 35.3547 35.3545C35.3547 35.9392 35.3547 36.4206 35.3547 37.0397ZM20.36 79.9603C19.7409 79.9603 19.1907 79.9603 18.6404 79.9603C18.6404 80.5794 18.6404 81.0952 18.6404 81.6455C19.2594 81.6455 19.8097 81.6455 20.36 81.6455C20.36 81.0608 20.36 80.545 20.36 79.9603ZM3.64568 38.8624C3.64568 38.3466 3.64568 37.7963 3.64568 37.246C3.02663 37.246 2.47637 37.246 1.9261 37.246C1.75414 39.1032 1.85732 39.2063 3.64568 38.8624ZM7.32557 38.9312C7.32557 38.3122 7.32557 37.7619 7.32557 37.2116C6.70652 37.2116 6.19065 37.2116 5.64039 37.2116C5.64039 37.7963 5.64039 38.3466 5.64039 38.9312C6.22504 38.9312 6.74092 38.9312 7.32557 38.9312ZM13.0346 38.9312C13.6536 38.9312 14.2039 38.9312 14.7541 38.9312C14.7541 38.3122 14.7541 37.7963 14.7541 37.246C14.1351 37.246 13.6192 37.246 13.0346 37.246C13.0346 37.7963 13.0346 38.3122 13.0346 38.9312ZM7.46314 40.7884C8.08219 40.7884 8.63245 40.7884 9.21711 40.7884C9.21711 40.2037 9.21711 39.6534 9.21711 39.1032C8.59806 39.1032 8.0478 39.1032 7.46314 39.1032C7.46314 39.6878 7.46314 40.2037 7.46314 40.7884ZM37.0742 16.6455C37.0742 16.0265 37.0742 15.4762 37.0742 14.9259C36.4896 14.9259 35.9393 14.9259 35.3547 14.9259C35.3547 15.5106 35.3547 16.0608 35.3547 16.6455C35.9393 16.6455 36.4552 16.6455 37.0742 16.6455ZM39.1033 11.2116C39.1033 11.8651 39.1033 12.4153 39.1033 12.9656C39.688 12.9656 40.2039 12.9656 40.7885 12.9656C40.7885 12.3466 40.7885 11.7963 40.7885 11.2116C40.1695 11.2116 39.6536 11.2116 39.1033 11.2116ZM12.9314 40.7884C12.9314 40.2037 12.9314 39.6534 12.9314 39.1032C12.3467 39.1032 11.7965 39.1032 11.2118 39.1032C11.2118 39.6878 11.2118 40.2381 11.2118 40.7884C11.7965 40.7884 12.3467 40.7884 12.9314 40.7884ZM44.5028 1.92593C43.8838 1.92593 43.3679 1.92593 42.8176 1.92593C42.8176 2.54497 42.8176 3.09524 42.8176 3.6455C43.4023 3.6455 43.9182 3.6455 44.5028 3.6455C44.5028 3.06085 44.5028 2.51058 44.5028 1.92593ZM83.4684 63.0741C83.4684 62.4894 83.4684 61.9391 83.4684 61.3889C82.8838 61.3889 82.3679 61.3889 81.8176 61.3889C81.8176 61.9735 81.8176 62.5238 81.8176 63.0741C82.4023 63.0741 82.9182 63.0741 83.4684 63.0741ZM85.4975 63.0741C86.0822 63.0741 86.6324 63.0741 87.1827 63.0741C87.1827 62.4894 87.1827 61.9392 87.1827 61.4233C86.5981 61.4233 86.0478 61.4233 85.4975 61.4233C85.4975 61.9735 85.4975 62.4894 85.4975 63.0741ZM3.74885 64.8968C4.40229 64.8968 4.91816 64.8968 5.46843 64.8968C5.46843 64.3122 5.46843 63.7963 5.46843 63.246C4.88377 63.246 4.33351 63.246 3.74885 63.246C3.74885 63.8307 3.74885 64.3466 3.74885 64.8968ZM46.3256 39.1032C45.7065 39.1032 45.1906 39.1032 44.6748 39.1032C44.6748 39.6878 44.6748 40.2037 44.6748 40.7196C46.3944 41.0635 46.5663 40.8915 46.3256 39.1032ZM79.9261 64.8968C80.5108 64.8968 81.061 64.8968 81.6113 64.8968C81.6113 64.3122 81.6113 63.7963 81.6113 63.246C81.0266 63.246 80.4764 63.246 79.9261 63.246C79.9261 63.8651 79.9261 64.3809 79.9261 64.8968ZM85.36 63.2804C84.7409 63.2804 84.1907 63.2804 83.6404 63.2804C83.6404 63.8651 83.6404 64.381 83.6404 64.9312C84.225 64.9312 84.7753 64.9312 85.36 64.9312C85.36 64.3466 85.36 63.8307 85.36 63.2804ZM11.1774 66.754C11.7965 66.754 12.3467 66.754 12.897 66.754C12.897 66.1693 12.897 65.6534 12.897 65.1032C12.3123 65.1032 11.7621 65.1032 11.1774 65.1032C11.1774 65.6534 11.1774 66.1693 11.1774 66.754ZM81.6457 59.5317C81.0266 59.5317 80.5108 59.5317 79.9261 59.5317C79.9261 60.1164 79.9261 60.6323 79.9261 61.2169C80.5108 61.2169 81.061 61.2169 81.6457 61.2169C81.6457 60.6323 81.6457 60.1164 81.6457 59.5317ZM55.8176 31.6402C55.8176 32.2593 55.8176 32.7751 55.8176 33.3598C56.4023 33.3598 56.9182 33.3598 57.4684 33.3598C57.4684 32.7751 57.4684 32.2249 57.4684 31.6402C56.9182 31.6402 56.4023 31.6402 55.8176 31.6402ZM55.6113 35.2513C55.6113 34.6323 55.6113 34.082 55.6113 33.5317C55.0266 33.5317 54.4764 33.5317 53.9605 33.5317C53.9605 34.1508 53.9605 34.6667 53.9605 35.2513C54.5451 35.2513 55.0266 35.2513 55.6113 35.2513ZM63.0399 35.2169C63.0399 34.5635 63.0399 34.0476 63.0399 33.4974C62.4552 33.4974 61.9393 33.4974 61.3891 33.4974C61.3891 34.082 61.3891 34.6323 61.3891 35.2169C61.9393 35.2169 62.4552 35.2169 63.0399 35.2169ZM50.2118 39.0688C50.2118 39.6534 50.2118 40.2037 50.2118 40.754C50.7965 40.754 51.3467 40.754 51.8626 40.754C51.8626 40.1349 51.8626 39.619 51.8626 39.0688C51.3123 39.0688 50.7965 39.0688 50.2118 39.0688ZM3.64568 68.8518C3.02663 68.8518 2.47637 68.8518 1.9261 68.8518C1.9261 69.4365 1.9261 69.9524 1.9261 70.5026C2.51076 70.5026 3.06102 70.5026 3.64568 70.5026C3.64568 69.918 3.64568 69.4021 3.64568 68.8518ZM53.9605 87.3545C53.9605 87.9735 53.9605 88.5238 53.9605 89.0741C54.5451 89.0741 55.061 89.0741 55.6113 89.0741C55.6113 88.4894 55.6113 87.9391 55.6113 87.3545C55.061 87.3545 54.5451 87.3545 53.9605 87.3545ZM59.5319 29.7831C59.5319 30.4021 59.5319 30.9524 59.5319 31.5026C60.1166 31.5026 60.6324 31.5026 61.1827 31.5026C61.1827 30.918 61.1827 30.3677 61.1827 29.7831C60.6324 29.7831 60.1166 29.7831 59.5319 29.7831ZM55.6113 29.7831C55.0266 29.7831 54.5108 29.7831 53.9605 29.7831C53.9605 30.3677 53.9605 30.918 53.9605 31.5026C54.5451 31.5026 55.061 31.5026 55.6113 31.5026C55.6113 30.918 55.6113 30.3677 55.6113 29.7831ZM24.0742 59.3598C24.0742 58.7407 24.0742 58.2249 24.0742 57.6746C23.4896 57.6746 22.9393 57.6746 22.3547 57.6746C22.3547 58.2593 22.3547 58.8095 22.3547 59.3598C22.9393 59.3598 23.4552 59.3598 24.0742 59.3598ZM27.9261 70.6746C27.9261 71.2593 27.9261 71.8095 27.9261 72.3254C28.5108 72.3254 29.061 72.3254 29.6457 72.3254C29.6457 71.7407 29.6457 71.2249 29.6457 70.6746C29.061 70.6746 28.5108 70.6746 27.9261 70.6746ZM31.6404 70.6746C31.6404 71.2593 31.6404 71.7751 31.6404 72.3254C32.225 72.3254 32.7753 72.3254 33.36 72.3254C33.36 71.7407 33.36 71.2249 33.36 70.6746C32.7753 70.6746 32.225 70.6746 31.6404 70.6746ZM79.9605 55.8175C79.9605 56.4021 79.9605 56.9524 79.9605 57.5026C80.5452 57.5026 81.061 57.5026 81.6113 57.5026C81.6113 56.918 81.6113 56.3677 81.6113 55.8175C81.0266 55.8175 80.5108 55.8175 79.9605 55.8175ZM61.1827 5.64021C60.5981 5.64021 60.0478 5.64021 59.5319 5.64021C59.5319 6.25926 59.5319 6.80952 59.5319 7.35979C60.1166 7.35979 60.6324 7.35979 61.1827 7.35979C61.1827 6.77513 61.1827 6.22487 61.1827 5.64021ZM27.7885 74.2169C27.7885 73.5979 27.7885 73.082 27.7885 72.5317C27.1695 72.5317 26.6536 72.5317 26.1033 72.5317C26.1033 73.1508 26.1033 73.6667 26.1033 74.2169C26.688 74.2169 27.2039 74.2169 27.7885 74.2169ZM29.7832 72.5661C29.7832 73.1508 29.7832 73.6667 29.7832 74.2857C30.1616 74.2857 30.4711 74.2857 30.815 74.2857C31.0213 74.2857 31.2621 74.2513 31.4684 74.2513C31.778 72.463 31.606 72.3254 29.7832 72.5661ZM61.3891 29.6455C61.9737 29.6455 62.524 29.6455 63.0399 29.6455C63.0399 29.0265 63.0399 28.4762 63.0399 27.9603C62.4552 27.9603 61.9393 27.9603 61.3891 27.9603C61.3891 28.5106 61.3891 29.0608 61.3891 29.6455ZM37.0742 57.537C37.0742 56.8836 37.0742 56.3677 37.0742 55.8175C36.4896 55.8175 35.9393 55.8175 35.3547 55.8175C35.3547 56.4021 35.3547 56.918 35.3547 57.5026C35.6642 57.5026 35.9049 57.537 36.1457 57.537C36.4208 57.537 36.6959 57.537 37.0742 57.537ZM22.2171 76.0741C22.3547 74.1825 22.1827 74.0106 20.4975 74.4921C20.4975 75.0079 20.4975 75.5238 20.4975 76.0741C21.0822 76.0741 21.6325 76.0741 22.2171 76.0741ZM25.9314 76.0741C25.9314 75.455 25.9314 74.9391 25.9314 74.3889C25.3467 74.3889 24.7965 74.3889 24.2118 74.3889C24.2118 74.9735 24.2118 75.5238 24.2118 76.0741C24.7965 76.0741 25.3467 76.0741 25.9314 76.0741ZM70.4684 35.2169C70.4684 34.6323 70.4684 34.082 70.4684 33.5317C69.8838 33.5317 69.3335 33.5317 68.8176 33.5317C68.8176 34.1164 68.8176 34.6667 68.8176 35.2169C69.4023 35.2169 69.9182 35.2169 70.4684 35.2169ZM55.6113 26.0688C55.0266 26.0688 54.5108 26.0688 53.9605 26.0688C53.9605 26.6534 53.9605 27.2037 53.9605 27.7884C54.5451 27.7884 55.061 27.7884 55.6113 27.7884C55.6113 27.2037 55.6113 26.6534 55.6113 26.0688ZM39.069 46.3254C40.8573 46.6349 41.1668 46.3254 40.6854 44.709C40.1351 44.709 39.5848 44.709 39.069 44.709C39.069 45.2936 39.069 45.8095 39.069 46.3254ZM76.0399 25.9656C76.0399 25.3466 76.0399 24.7963 76.0399 24.246C75.4552 24.246 74.9049 24.246 74.3891 24.246C74.3891 24.8651 74.3891 25.381 74.3891 25.9656C74.9737 25.9656 75.4552 25.9656 76.0399 25.9656ZM11.2462 53.9603C11.2462 54.545 11.2462 55.0952 11.2462 55.6111C11.8653 55.6111 12.3811 55.6111 12.897 55.6111C12.897 55.0264 12.897 54.5106 12.897 53.9603C12.3123 53.9603 11.7621 53.9603 11.2462 53.9603ZM27.7885 53.7884C27.7885 53.1693 27.7885 52.6534 27.7885 52.1032C27.2039 52.1032 26.6536 52.1032 26.069 52.1032C26.069 52.6878 26.069 53.2381 26.069 53.7884C26.6536 53.7884 27.1695 53.7884 27.7885 53.7884ZM78.1377 18.6402C78.1377 19.2593 78.1377 19.8095 78.1377 20.3598C78.7568 20.3598 79.2727 20.3598 79.7885 20.3598C79.7885 19.7407 79.7885 19.1905 79.7885 18.6402C79.2039 18.6402 78.6536 18.6402 78.1377 18.6402ZM68.8176 18.6402C68.8176 19.2593 68.8176 19.8095 68.8176 20.3942C69.4023 20.3942 69.9182 20.3942 70.4684 20.3942C70.4684 19.7751 70.4684 19.2249 70.4684 18.6402C69.8838 18.6402 69.4023 18.6402 68.8176 18.6402ZM46.3256 35.3889C45.7753 35.3889 45.2594 35.3889 44.606 35.3889C44.606 35.7672 44.606 36.1455 44.606 36.4894C44.606 36.6614 44.6404 36.8677 44.6404 37.0397C46.3944 37.3492 46.5663 37.1772 46.3256 35.3889ZM59.36 18.6402C58.7409 18.6402 58.225 18.6402 57.7092 18.6402C57.7092 19.2593 57.7092 19.8095 57.7092 20.3598C58.2938 20.3598 58.8097 20.3598 59.36 20.3598C59.36 19.7751 59.36 19.2593 59.36 18.6402ZM55.6457 18.6746C55.0266 18.6746 54.4764 18.6746 53.9949 18.6746C53.9949 19.2936 53.9949 19.8439 53.9949 20.3598C54.5795 20.3598 55.0954 20.3598 55.6457 20.3598C55.6457 19.7751 55.6457 19.2593 55.6457 18.6746ZM57.5028 81.8175C56.8838 81.8175 56.3679 81.8175 55.8176 81.8175C55.8176 82.4021 55.8176 82.9524 55.8176 83.5026C56.4023 83.5026 56.9182 83.5026 57.5028 83.5026C57.5028 82.9524 57.5028 82.4021 57.5028 81.8175ZM83.5028 51.9312C83.5028 51.3466 83.5028 50.7963 83.5028 50.2804C82.9182 50.2804 82.3679 50.2804 81.8176 50.2804C81.8176 50.8651 81.8176 51.3809 81.8176 51.9312C82.3679 51.9312 82.9182 51.9312 83.5028 51.9312ZM66.9261 18.5026C67.5452 18.5026 68.061 18.5026 68.6113 18.5026C68.6113 17.918 68.6113 17.3677 68.6113 16.8175C68.0266 16.8175 67.4764 16.8175 66.9261 16.8175C66.9261 17.4021 66.9261 17.918 66.9261 18.5026ZM68.6113 37.0741C68.6113 36.455 68.6113 35.9048 68.6113 35.3545C68.0266 35.3545 67.5108 35.3545 66.9605 35.3545C66.9605 35.9392 66.9605 36.4894 66.9605 37.0741C67.5108 37.0741 68.0266 37.0741 68.6113 37.0741ZM59.3256 14.9259C58.7065 14.9259 58.1907 14.9259 57.6748 14.9259C57.6748 15.5106 57.6748 16.0608 57.6748 16.6455C58.2594 16.6455 58.7753 16.6455 59.3256 16.6455C59.3256 16.0608 59.3256 15.545 59.3256 14.9259ZM77.9314 83.709C76.2118 83.3651 75.9023 83.6746 76.315 85.3254C76.8652 85.3254 77.3811 85.3254 77.9314 85.3254C77.9314 84.7407 77.9314 84.2249 77.9314 83.709ZM33.4975 50.0397C35.3203 50.2804 35.4578 50.1429 35.1483 48.3889C34.5981 48.3889 34.0822 48.3889 33.4975 48.3889C33.4975 48.9391 33.4975 49.455 33.4975 50.0397ZM5.606 50.0741C6.19065 50.0741 6.74092 50.0741 7.32557 50.0741C7.32557 49.4894 7.32557 48.9391 7.32557 48.3889C6.70652 48.3889 6.15626 48.3889 5.606 48.3889C5.606 48.9735 5.606 49.4894 5.606 50.0741ZM37.2118 48.2169C37.8309 48.2169 38.3467 48.2169 38.9314 48.2169C38.9314 47.6323 38.9314 47.082 38.9314 46.5317C38.3467 46.5317 37.7965 46.5317 37.2118 46.5317C37.2118 47.1164 37.2118 47.6323 37.2118 48.2169ZM57.6748 11.2116C57.6748 11.8307 57.6748 12.381 57.6748 12.9312C58.2594 12.9312 58.7753 12.9312 59.3256 12.9312C59.3256 12.3466 59.3256 11.7963 59.3256 11.2116C58.7753 11.2116 58.2594 11.2116 57.6748 11.2116ZM70.6748 48.1825C71.2938 48.1825 71.8097 48.1825 72.3256 48.1825C72.3256 47.5635 72.3256 47.0476 72.3256 46.5317C71.7409 46.5317 71.1907 46.5317 70.6748 46.5317C70.6748 47.1164 70.6748 47.6323 70.6748 48.1825ZM50.2462 48.3889C50.2462 49.0079 50.2462 49.5238 50.2462 50.0741C50.8309 50.0741 51.3811 50.0741 51.9314 50.0741C51.9314 49.4894 51.9314 48.9735 51.9314 48.3889C51.3467 48.3889 50.7965 48.3889 50.2462 48.3889ZM77.9314 53.9603C77.3123 53.9603 76.7965 53.9603 76.2462 53.9603C76.2462 54.545 76.2462 55.0952 76.2462 55.6455C76.8309 55.6455 77.3467 55.6455 77.9314 55.6455C77.9314 55.0608 77.9314 54.545 77.9314 53.9603ZM70.4684 55.8518C69.8494 55.8518 69.3335 55.8518 68.8176 55.8518C68.8176 56.4365 68.8176 56.9524 68.8176 57.5026C69.4023 57.5026 69.9182 57.5026 70.4684 57.5026C70.4684 56.918 70.4684 56.4021 70.4684 55.8518ZM72.3256 70.5026C72.3256 69.8836 72.3256 69.3677 72.3256 68.8518C71.7409 68.8518 71.1907 68.8518 70.6748 68.8518C70.6748 69.4365 70.6748 69.9524 70.6748 70.5026C71.2594 70.5026 71.7753 70.5026 72.3256 70.5026ZM44.6404 61.3889C44.6404 61.9735 44.6404 62.5238 44.6404 63.0397C45.225 63.0397 45.7753 63.0397 46.3256 63.0397C46.3256 62.455 46.3256 61.9391 46.3256 61.3889C45.7753 61.3889 45.2594 61.3889 44.6404 61.3889ZM68.8176 66.9603C68.8176 67.5794 68.8176 68.0952 68.8176 68.6111C69.4023 68.6111 69.9526 68.6111 70.4684 68.6111C70.4684 68.0265 70.4684 67.5106 70.4684 66.9603C69.9182 66.9603 69.3679 66.9603 68.8176 66.9603Z" fill="white"/>
<path d="M12.9312 78.0342C12.9312 82.3675 12.9312 86.5977 12.9312 90.931C8.63227 90.931 4.33333 90.931 0 90.931C0 86.6665 0 82.3675 0 78.0342C4.29894 78.0342 8.59788 78.0342 12.9312 78.0342ZM11.0741 79.8913C7.94444 79.8913 4.8836 79.8913 1.85714 79.8913C1.85714 82.9866 1.85714 86.013 1.85714 89.0395C4.95238 89.0395 8.01323 89.0395 11.0741 89.0395C11.0741 85.9786 11.0741 82.9866 11.0741 79.8913Z" fill="white"/>
<path d="M90.9654 0.0341797C90.9654 4.33312 90.9654 8.59767 90.9654 12.8966C86.6665 12.8966 82.3675 12.8966 78.0342 12.8966C78.0342 8.63206 78.0342 4.36751 78.0342 0.0341797C82.2987 0.0341797 86.5977 0.0341797 90.9654 0.0341797ZM79.8913 1.85693C79.8913 4.98656 79.8913 8.04741 79.8913 11.0739C82.9866 11.0739 86.013 11.0739 89.0395 11.0739C89.0395 7.97862 89.0395 4.91778 89.0395 1.85693C85.9786 1.85693 82.9522 1.85693 79.8913 1.85693Z" fill="white"/>
<path d="M0 0C4.29894 0 8.59788 0 12.8968 0C12.8968 4.29894 12.8968 8.59788 12.8968 12.9312C8.59788 12.9312 4.33333 12.9312 0 12.9312C0 8.63227 0 4.33333 0 0ZM1.85714 1.85714C1.85714 4.98677 1.85714 8.01323 1.85714 11.0397C4.95238 11.0397 8.01323 11.0397 11.0397 11.0397C11.0397 7.94444 11.0397 4.91799 11.0397 1.85714C7.97884 1.85714 4.95238 1.85714 1.85714 1.85714Z" fill="white"/>
<path d="M3.64544 16.7485C3.64544 16.1639 3.64544 15.5792 3.64544 14.9258C5.53697 14.9258 7.35972 14.9258 9.25126 14.9258C9.28565 15.476 9.32004 16.0607 9.35443 16.7485C10.0079 16.7485 10.5581 16.7485 11.1428 16.7485L11.1084 16.7141C11.1084 17.3332 11.1084 17.9522 11.1084 18.6057V18.5713C9.87031 18.5713 8.6666 18.5713 7.35972 18.5713C7.35972 19.2935 7.35972 19.8438 7.35972 20.4972C6.70628 20.4972 6.15602 20.4972 5.50258 20.4972C5.53697 21.1163 5.36501 21.8729 5.60575 22.0448C6.05285 22.3544 6.74068 22.2856 7.29094 22.3544C7.29094 22.9734 7.29094 23.5237 7.29094 24.1771C6.67189 24.1771 6.12163 24.1771 5.46819 24.1771C5.46819 24.8305 5.46819 25.3808 5.46819 25.9999C4.78036 25.9999 4.1957 25.9999 3.61105 25.9999C3.61105 25.4152 3.61105 24.8305 3.61105 24.1427C2.95761 24.1427 2.40734 24.1427 1.7539 24.1427C1.7539 22.8702 1.7539 21.7009 1.7539 20.4628C1.13486 20.4628 0.5502 20.4628 -0.0688477 20.4628C-0.0688477 19.1903 -0.0688477 17.9866 -0.0688477 16.6797C1.23803 16.7141 2.44173 16.7141 3.64544 16.7485C3.8174 18.7088 3.8174 18.7088 5.36501 18.5369C5.39941 18.5369 5.4338 18.4681 5.46819 18.4681C5.46819 17.9178 5.46819 17.3676 5.46819 16.7829C4.81475 16.7485 4.23009 16.7485 3.64544 16.7485Z" fill="white"/>
<path d="M24.1426 87.2515C24.1426 86.6668 24.1426 86.0821 24.1426 85.4287C24.7272 85.4287 25.2775 85.4287 25.8965 85.4287C25.9309 84.7753 25.9653 84.225 25.9997 83.606C28.4759 83.606 30.9177 83.606 33.3939 83.606C33.3939 85.4631 33.3939 87.2858 33.3939 89.1774C32.1902 89.1774 31.0209 89.1774 29.7484 89.1774C29.7484 89.8308 29.7484 90.3811 29.7484 91.0001C29.0606 91.0001 28.4759 91.0001 27.8225 91.0001C27.8225 90.0028 27.7881 89.0398 27.8225 88.1112C27.8569 87.5266 27.6849 87.3202 27.0659 87.3202C26.1029 87.3202 25.1399 87.2858 24.1426 87.2515Z" fill="white"/>
<path d="M72.4286 3.71429C71.1218 3.71429 69.9525 3.71429 68.7144 3.71429C68.7144 2.4418 68.7144 1.2381 68.7144 0C69.3334 0 69.9181 0 70.5715 0C70.5715 0.584656 70.5715 1.13492 70.5715 1.75397C71.8096 1.75397 72.9789 1.75397 74.217 1.75397C74.217 1.2037 74.217 0.619048 74.217 0.0343915C74.8704 0.0343915 75.4551 0.0343915 76.1085 0.0343915C76.1085 1.85714 76.1085 3.67989 76.1085 5.57143C75.5583 5.57143 75.008 5.57143 74.389 5.57143C74.3546 6.19048 74.3202 6.77513 74.2514 7.39418C73.6323 7.39418 73.0477 7.39418 72.3942 7.39418C72.4286 6.22487 72.4286 5.02116 72.4286 3.71429Z" fill="white"/>
<path d="M89.1084 20.4628C89.1428 21.0475 89.1772 21.6321 89.2116 22.2856C89.8306 22.2856 90.3809 22.2856 90.9655 22.2856C90.9655 22.939 90.9655 23.5237 90.9655 24.1427C90.3809 24.1427 89.7962 24.1427 89.1428 24.1427C89.1428 23.5924 89.1428 23.0078 89.1428 22.32C88.455 22.32 87.8359 22.32 87.2512 22.32C87.2512 21.7353 87.2512 21.1506 87.2512 20.4972C86.6322 20.4972 86.0819 20.4972 85.4629 20.4972C85.4629 18.6057 85.4629 16.8173 85.4629 14.9258C87.2513 14.9258 89.074 14.9258 90.9655 14.9258C90.9655 15.476 90.9655 16.0607 90.9655 16.7141C90.4497 16.7141 89.8994 16.7141 89.246 16.7141C89.246 17.3676 89.246 17.9178 89.246 18.5713C89.8306 18.5713 90.3809 18.5713 90.9655 18.5713C90.9655 19.2247 90.9655 19.8094 90.9655 20.4972C90.3121 20.4628 89.6931 20.4628 89.1084 20.4628C89.074 19.8782 89.074 19.2591 89.074 18.6745C88.455 18.6745 87.9047 18.6745 87.3544 18.6745C87.3544 19.2935 87.3544 19.8438 87.3544 20.4628C88.0079 20.4628 88.5581 20.4628 89.1084 20.4628Z" fill="white"/>
<path d="M16.7144 27.8915C16.7144 27.2724 16.7144 26.6878 16.7144 26.0343C16.9207 26.0343 17.0927 25.9999 17.2302 25.9999C18.6403 25.9655 18.5027 26.2751 18.5371 24.6243C18.5371 23.8677 18.5371 23.1454 18.5371 22.32C19.2249 22.32 19.844 22.32 20.4286 22.32V22.2856C20.4286 24.1428 20.4286 25.9655 20.4286 27.8571C19.1218 27.8915 17.9181 27.8915 16.7144 27.8915Z" fill="white"/>
<path d="M14.8569 0C16.095 0 17.2643 0 18.5024 0C18.5024 0.584656 18.5024 1.16931 18.5024 1.82275C17.9178 1.85714 17.3675 1.89153 16.7141 1.89153C16.7141 3.12963 16.7141 4.29894 16.7141 5.50265C16.0606 5.50265 15.476 5.50265 14.8569 5.50265C14.8569 3.71429 14.8569 1.89153 14.8569 0Z" fill="white"/>
<path d="M63.1428 1.85693C63.7274 1.85693 64.2777 1.85693 64.8968 1.85693C64.9311 1.20349 64.9655 0.618836 64.9655 0.0341797C65.619 0.0341797 66.1692 0.0341797 66.8227 0.0341797C66.8227 1.27227 66.8227 2.44159 66.8227 3.71407C65.5846 3.71407 64.3809 3.71407 63.1084 3.71407C63.1428 3.06063 63.1428 2.51037 63.1428 1.85693Z" fill="white"/>
<path d="M26.0345 3.67968C25.4499 3.67968 24.8652 3.67968 24.143 3.67968C24.3837 2.30402 24.0398 1.40984 22.2515 1.96011C22.2515 1.51302 22.2515 1.20349 22.2515 0.92836C22.2515 0.653227 22.2515 0.378095 22.2515 0.0341797C23.4896 0.0341797 24.6933 0.0341797 26.0001 0.0341797C26.0001 1.23788 26.0001 2.47598 26.0345 3.67968C26.0001 3.71407 26.0345 3.67968 26.0345 3.67968Z" fill="white"/>
<path d="M40.9257 87.2856C40.9257 88.4893 40.9257 89.693 40.9257 90.9655C40.2379 90.9655 39.6876 90.9655 39.0342 90.9655C39.0342 89.7618 39.0342 88.5581 39.0342 87.2168C39.6532 87.2168 40.2723 87.2168 40.8913 87.2168L40.9257 87.2856Z" fill="white"/>
<path d="M35.2856 87.2856C35.9391 87.2856 36.4893 87.2856 37.1084 87.2856C37.1084 88.5237 37.1084 89.7274 37.1084 90.9655C36.4893 90.9655 35.9391 90.9655 35.2856 90.9655C35.2856 89.7618 35.2856 88.5581 35.2856 87.2856Z" fill="white"/>
<path d="M90.9311 27.8569C89.7274 27.8569 88.5237 27.8569 87.2856 27.8569C87.2856 27.2379 87.2856 26.6532 87.2856 26.0342C88.4893 26.0342 89.693 26.0342 90.9311 26.0342C90.9311 26.6188 90.9311 27.2035 90.9311 27.8569Z" fill="white"/>
<path d="M35.3198 83.5713C36.5579 83.5713 37.7272 83.5713 38.9653 83.5713C38.9653 84.1559 38.9653 84.775 38.9653 85.4284C37.7616 85.4284 36.5579 85.4284 35.3198 85.4284C35.3198 84.8094 35.3198 84.2591 35.3198 83.5713Z" fill="white"/>
<path d="M87.2856 79.8569C87.2856 79.2035 87.2856 78.6532 87.2856 78.0342C88.4893 78.0342 89.693 78.0342 90.9311 78.0342C90.9311 78.6188 90.9311 79.2035 90.9311 79.8569C89.7274 79.8569 88.5581 79.8569 87.2856 79.8569Z" fill="white"/>
<path d="M83.5371 27.8915C83.5371 26.6878 83.5371 25.4841 83.5371 24.1772C84.1905 24.1772 84.8096 24.1772 85.3943 24.1772C85.3943 25.3809 85.3943 26.619 85.3943 27.9259C84.7752 27.8915 84.1562 27.8915 83.5371 27.8915Z" fill="white"/>
<path d="M11.1084 22.3203C12.3121 22.3203 13.5502 22.3203 14.8227 22.3203C14.8227 22.9394 14.8227 23.524 14.8227 24.1775C13.5846 24.1775 12.3465 24.1775 11.1084 24.1775C11.1428 23.5584 11.1428 22.9394 11.1084 22.3203Z" fill="white"/>
<path d="M40.8569 87.2514C40.8569 86.6667 40.8569 86.0821 40.8569 85.463C41.5104 85.4286 42.1294 85.3943 42.7141 85.3599C42.7485 85.3943 42.7485 85.3943 42.7829 85.4286C42.7485 86.0477 42.7141 86.6324 42.7141 87.2858C42.095 87.2858 41.5104 87.2858 40.9257 87.2858L40.8569 87.2514Z" fill="white"/>
<path d="M11.1427 16.7485C11.1427 16.1639 11.1427 15.5792 11.1427 14.9258C11.7274 14.9258 12.312 14.9258 12.9655 14.9258C12.9655 15.5104 12.9655 16.0951 12.9655 16.7141C12.312 16.7141 11.7274 16.7141 11.1427 16.7485C11.1083 16.7141 11.1427 16.7485 11.1427 16.7485Z" fill="white"/>
<path d="M11.1084 24.1772C11.1084 24.7963 11.1084 25.4153 11.1084 26.0688V26.0344C10.4893 26.0344 9.90469 26.0344 9.28564 26.0344C9.28564 25.3466 9.28564 24.7619 9.28564 24.1772C9.97348 24.1772 10.5581 24.1772 11.1084 24.1772Z" fill="white"/>
<path d="M90.9656 31.5713C90.3122 31.5713 89.7619 31.5713 89.1772 31.5713C89.1772 30.9522 89.1772 30.402 89.1772 29.7485C89.7619 29.7485 90.3466 29.7485 90.9656 29.7485C90.9656 30.3676 90.9656 30.9178 90.9656 31.5713Z" fill="white"/>
<path d="M11.1084 26.0342C11.6931 26.0342 12.2777 26.0342 12.9655 26.0342C12.9655 26.6532 12.9655 27.2723 12.9655 27.8913H12.9999C12.3809 27.8913 11.7618 27.8913 11.1084 27.8913L11.1428 27.9257C11.1428 27.2723 11.1428 26.6532 11.1084 26.0342Z" fill="white"/>
<path d="M11.1084 18.606C11.6931 18.606 12.2777 18.606 12.9311 18.606C12.9311 19.1906 12.9311 19.7753 12.9311 20.4631C12.3121 20.4631 11.7274 20.4631 11.1084 20.4631C11.1428 19.8441 11.1428 19.1906 11.1084 18.606Z" fill="white"/>
<path d="M11.1084 20.4287C11.1084 21.0478 11.1084 21.6668 11.1084 22.2859C10.4893 22.2859 9.90469 22.2859 9.28564 22.2859C9.28564 21.6324 9.28564 21.0134 9.28564 20.4287C9.97348 20.4631 10.5581 20.4631 11.1084 20.4287Z" fill="white"/>
<path d="M85.394 24.1775C85.394 23.5928 85.394 23.0081 85.394 22.3203C86.0475 22.3203 86.6665 22.3203 87.2512 22.3203C87.2856 22.905 87.32 23.4896 87.3544 24.1775C86.6321 24.1431 86.0131 24.1431 85.394 24.1775C85.394 24.1431 85.394 24.1775 85.394 24.1775Z" fill="white"/>
<path d="M83.537 27.8916C83.537 28.4763 83.537 29.0609 83.537 29.7831C82.918 29.7831 82.2989 29.7831 81.6799 29.7831L81.6455 29.7487C81.6455 29.1641 81.6455 28.5794 81.6455 27.8916C82.3333 27.8916 82.918 27.8916 83.537 27.8916Z" fill="white"/>
<path d="M44.5713 91C43.9178 91 43.3676 91 42.7485 91C42.7485 90.4153 42.7485 89.8307 42.7485 89.1772C43.3332 89.1772 43.9178 89.1772 44.5713 89.1772C44.5713 89.7619 44.5713 90.3466 44.5713 91Z" fill="white"/>
<path d="M57.5369 74.2859C57.5369 73.598 57.5369 73.0478 57.5369 72.4287C58.8094 72.4287 60.0131 72.4287 61.2856 72.4287C61.2856 73.0134 61.2856 73.5636 61.2856 74.2515C60.7353 74.2858 60.185 74.3202 59.5316 74.3546C59.5316 74.9049 59.5316 75.4208 59.5316 76.0398C60.0819 76.0742 60.6665 76.0742 61.2856 76.1086C61.2856 76.7277 61.2856 77.3123 61.2856 77.9657C60.0475 77.9657 58.8438 77.9657 57.5369 77.9657C57.5369 77.3467 57.5369 76.7964 57.5369 76.2118C56.9178 76.1774 56.3332 76.143 55.7485 76.143C55.7485 75.5239 55.7485 74.9393 55.7485 74.2859C56.2988 74.2859 56.8491 74.2859 57.5369 74.2859Z" fill="white"/>
<path d="M39.0688 26.0346C38.4497 26.0346 37.8651 26.0346 37.1772 26.0346C37.1772 25.3468 37.1772 24.7621 37.1772 24.1431C37.7619 24.1431 38.3466 24.1431 39.0688 24.1431C39.0688 24.7965 39.0688 25.4156 39.0688 26.0346Z" fill="white"/>
<path d="M37.1772 24.1772C36.5581 24.1772 35.9735 24.1772 35.2856 24.1772C35.2856 23.4893 35.2856 22.9047 35.2856 22.2856C35.8703 22.2856 36.455 22.2856 37.1772 22.2856C37.1772 22.9391 37.1772 23.5581 37.1772 24.1772Z" fill="white"/>
<path d="M59.4287 40.8572C59.4287 40.2382 59.4287 39.6879 59.4287 39.0688C60.0478 39.0688 60.6324 39.0688 61.2859 39.0688C61.2859 39.6879 61.2859 40.2382 61.2859 40.8572C60.6668 40.8572 60.0822 40.8572 59.4287 40.8572Z" fill="white"/>
<path d="M29.7144 11.1431C30.299 11.1431 30.8837 11.1431 31.5371 11.1431C31.5371 13.6193 31.5371 16.0611 31.5371 18.5372C30.9524 18.5372 30.3678 18.5372 29.7487 18.5372C29.7487 16.0611 29.7487 13.5849 29.7144 11.1431C29.7487 11.1431 29.7144 11.1431 29.7144 11.1431Z" fill="white"/>
<path d="M70.5713 42.7141C70.5713 42.0951 70.5713 41.5448 70.5713 40.9258C71.1903 40.9258 71.775 40.9258 72.4284 40.9258C72.4284 41.5104 72.4284 42.0951 72.4284 42.7141C71.8094 42.7141 71.2247 42.7141 70.5713 42.7141Z" fill="white"/>
<path d="M44.5713 12.9312C44.5713 12.3466 44.5713 11.7963 44.5713 11.1772C45.1559 11.1772 45.775 11.1772 46.394 11.1772C46.394 11.7619 46.394 12.3122 46.394 12.9312C45.8094 12.9312 45.2247 12.9312 44.5713 12.9312Z" fill="white"/>
<path d="M11.1426 44.606C11.796 44.606 12.3463 44.606 12.9309 44.606C12.9309 45.225 12.9309 45.8097 12.9309 46.4287C12.3119 46.4287 11.7616 46.4287 11.1426 46.4287C11.1426 45.8097 11.1426 45.225 11.1426 44.606Z" fill="white"/>
<path d="M78.0342 78.0342C78.6188 78.0342 79.2035 78.0342 79.8225 78.0342C79.8225 78.6532 79.8225 79.2035 79.8225 79.8569C79.2379 79.8569 78.6532 79.8569 78.0342 79.8569C78.0342 79.2379 78.0342 78.6532 78.0342 78.0342Z" fill="white"/>
<path d="M78.0342 44.606C78.6188 44.606 79.2035 44.606 79.8225 44.606C79.8225 45.225 79.8225 45.7753 79.8225 46.4287C79.2379 46.4287 78.6876 46.4287 78.0342 46.4287C78.0342 45.8441 78.0342 45.2594 78.0342 44.606Z" fill="white"/>
<path d="M44.606 46.4287C44.606 45.8097 44.606 45.2594 44.606 44.606C45.225 44.606 45.8097 44.606 46.4287 44.606C46.4287 45.1906 46.4287 45.7753 46.4287 46.4287C45.8097 46.4287 45.225 46.4287 44.606 46.4287Z" fill="white"/>
<path d="M46.4287 78.0342C46.4287 78.6532 46.4287 79.2035 46.4287 79.8225C45.8441 79.8225 45.2594 79.8225 44.606 79.8225C44.606 79.2723 44.606 78.6532 44.606 78.0342C45.1906 78.0342 45.7753 78.0342 46.4287 78.0342Z" fill="white"/>
<path d="M3.71436 87.2168C3.71436 85.394 3.71436 83.6057 3.71436 81.7485C5.53711 81.7485 7.32547 81.7485 9.18261 81.7485C9.18261 83.5369 9.18261 85.3596 9.18261 87.2168C7.39425 87.2168 5.60589 87.2168 3.71436 87.2168Z" fill="white"/>
<path d="M87.1826 9.25118C85.3255 9.25118 83.5715 9.25118 81.7144 9.25118C81.7144 7.42843 81.7144 5.60568 81.7144 3.74854C83.5371 3.74854 85.3255 3.74854 87.1826 3.74854C87.1826 5.53689 87.1826 7.35965 87.1826 9.25118Z" fill="white"/>
<path d="M9.1824 9.25118C7.35965 9.25118 5.57129 9.25118 3.74854 9.25118C3.74854 7.42843 3.74854 5.60568 3.74854 3.74854C5.53689 3.74854 7.32526 3.74854 9.1824 3.74854C9.1824 5.53689 9.1824 7.35965 9.1824 9.25118Z" fill="white"/>
</svg>
